<?xml version="1.0" encoding="utf-8"?>
<!-- Generator: Adobe Illustrator 18.0.0, SVG Export Plug-In . SVG Version: 6.00 Build 0)  -->
<!DOCTYPE svg PUBLIC "-//W3C//DTD SVG 1.1//EN" "http://www.w3.org/Graphics/SVG/1.1/DTD/svg11.dtd">
<svg version="1.1" id="Layer_1" xmlns="http://www.w3.org/2000/svg" xmlns:xlink="http://www.w3.org/1999/xlink" x="0px" y="0px"
	 viewBox="0 0 284.7 286.3" enable-background="new 0 0 284.7 286.3" xml:space="preserve">
<g>
	<g>
		<circle fill="#FED063" cx="142.3" cy="143.2" r="134.9"/>
		<g>
			<path fill="#EEC15C" d="M142.3,8.2v269.9c74.5,0,134.9-60.4,134.9-134.9C277.3,68.6,216.9,8.2,142.3,8.2z"/>
		</g>
	</g>
	<g>
		<g>
			<polygon fill="#D7D8D8" points="182.4,212.6 209.8,212.6 209.8,185.2 209.8,56.5 91.9,56.5 91.9,212.6 			"/>
			<polygon fill="#EFF0F0" points="174.1,219.1 201.5,219.1 201.5,191.7 201.5,63.1 83.5,63.1 83.5,219.1 			"/>
			<polygon fill="#4C657C" points="165.4,197.5 192.8,197.5 165.4,224.9 			"/>
			<polygon fill="#FFFFFF" points="165.4,224.9 165.4,197.5 192.8,197.5 192.8,68.8 74.9,68.8 74.9,224.9 			"/>
			<g>
				
					<line fill="none" stroke="#ED6D6F" stroke-width="5.8576" stroke-miterlimit="10" x1="142.5" y1="114.2" x2="142.5" y2="143.8"/>
				
					<line fill="none" stroke="#ED6D6F" stroke-width="5.8576" stroke-miterlimit="10" x1="150.8" y1="124.1" x2="150.8" y2="143.8"/>
				
					<line fill="none" stroke="#ED6D6F" stroke-width="5.8576" stroke-miterlimit="10" x1="159.2" y1="130.2" x2="159.2" y2="143.8"/>
				
					<line fill="none" stroke="#ED6D6F" stroke-width="5.8576" stroke-miterlimit="10" x1="167.5" y1="122.8" x2="167.5" y2="143.8"/>
				
					<line fill="none" stroke="#ED6D6F" stroke-width="5.8576" stroke-miterlimit="10" x1="175.8" y1="130.2" x2="175.8" y2="143.8"/>
				
					<line fill="none" stroke="#ED6D6F" stroke-width="5.8576" stroke-miterlimit="10" x1="125.1" y1="129.8" x2="125.1" y2="143.8"/>
				
					<line fill="none" stroke="#ED6D6F" stroke-width="5.8576" stroke-miterlimit="10" x1="116.7" y1="124.1" x2="116.7" y2="143.8"/>
				
					<line fill="none" stroke="#ED6D6F" stroke-width="5.8576" stroke-miterlimit="10" x1="108.4" y1="130.2" x2="108.4" y2="143.8"/>
				
					<line fill="none" stroke="#ED6D6F" stroke-width="5.8576" stroke-miterlimit="10" x1="100.1" y1="122.8" x2="100.1" y2="143.8"/>
				<line fill="none" stroke="#ED6D6F" stroke-width="5.8576" stroke-miterlimit="10" x1="91.7" y1="118.5" x2="91.7" y2="143.8"/>
			</g>
			<rect x="91" y="158.4" fill="#F6D066" width="34.5" height="47.9"/>
		</g>
		<circle fill="#4C96D2" cx="91.3" cy="82.9" r="3.5"/>
		<circle fill="#4C96D2" cx="91.3" cy="92.6" r="3.5"/>
		<circle fill="#4C96D2" cx="91.3" cy="102.4" r="3.5"/>
		<line fill="none" stroke="#BEC4C9" stroke-width="3.9051" stroke-miterlimit="10" x1="98.8" y1="82.9" x2="129.9" y2="82.9"/>
		<line fill="none" stroke="#BEC4C9" stroke-width="3.9051" stroke-miterlimit="10" x1="98.8" y1="92.6" x2="129.9" y2="92.6"/>
		<line fill="none" stroke="#BEC4C9" stroke-width="3.9051" stroke-miterlimit="10" x1="98.8" y1="102.4" x2="129.9" y2="102.4"/>
		<g>
			<path fill="#BEC4C9" d="M163.9,95.5V80.9c-8,0-14.5,6.5-14.5,14.5c0,8,6.5,14.5,14.5,14.5c8,0,14.5-6.5,14.5-14.5H163.9z"/>
			<path fill="#BEC4C9" d="M181.4,92.5c0-8-6.5-14.5-14.5-14.5v14.5H181.4z"/>
		</g>
		<g>
			<path fill="#4C657C" d="M156.7,173h14.5c0-8-6.5-14.5-14.5-14.5c-8,0-14.5,6.5-14.5,14.5c0,8,6.5,14.5,14.5,14.5V173z"/>
			<path fill="#BEC4C9" d="M159.6,190.4c8,0,14.5-6.5,14.5-14.5h-14.5V190.4z"/>
		</g>
	</g>
</g>
</svg>
