<?xml version="1.0" encoding="utf-8"?>
<!-- Generator: Adobe Illustrator 18.0.0, SVG Export Plug-In . SVG Version: 6.00 Build 0)  -->
<!DOCTYPE svg PUBLIC "-//W3C//DTD SVG 1.1//EN" "http://www.w3.org/Graphics/SVG/1.1/DTD/svg11.dtd">
<svg version="1.1" id="Layer_1" xmlns="http://www.w3.org/2000/svg" xmlns:xlink="http://www.w3.org/1999/xlink" x="0px" y="0px"
	 viewBox="0 0 227.3 228.7" enable-background="new 0 0 227.3 228.7" xml:space="preserve">
<g>
	<g>
		<polygon fill="#DCA900" points="162.2,115.6 162.2,87 111.4,86.9 111.4,116.1 		"/>
		<g>
			<path fill="#C49413" d="M136.8,99.4c-14,0-25.4,5.2-25.4,11.6c0,6.4,11.4,11.6,25.4,11.6c14,0,25.4-5.2,25.4-11.6
				C162.2,104.6,150.9,99.4,136.8,99.4z"/>
			<path fill="#FCD900" d="M136.8,101.3c-11.7,0-21.2,3.9-21.2,8.6c0,4.8,9.5,8.6,21.2,8.6c11.7,0,21.2-3.9,21.2-8.6
				C158,105.2,148.5,101.3,136.8,101.3z"/>
			<path fill="#D8B800" d="M136.8,118.7l0-0.2v-0.2h0c0.3,0,0.7,0,1,0l0,0.3C137.5,118.7,137.1,118.7,136.8,118.7z M135.8,118.7
				c-0.3,0-0.7,0-1,0l0-0.3c0.3,0,0.7,0,1,0L135.8,118.7z M138.8,118.7l0-0.3c0.3,0,0.7,0,1-0.1l0,0.3
				C139.5,118.7,139.2,118.7,138.8,118.7z M133.7,118.6c-0.3,0-0.7,0-1-0.1l0-0.3c0.3,0,0.7,0.1,1,0.1L133.7,118.6z M140.9,118.6
				l0-0.3c0.3,0,0.7-0.1,1-0.1l0,0.3C141.6,118.5,141.2,118.6,140.9,118.6z M131.7,118.5c-0.3,0-0.7-0.1-1-0.1l0-0.3
				c0.3,0,0.7,0.1,1,0.1L131.7,118.5z M142.9,118.4l0-0.3c0.3,0,0.7-0.1,1-0.1l0,0.3C143.6,118.3,143.3,118.3,142.9,118.4z
				 M129.7,118.2c-0.3-0.1-0.7-0.1-1-0.2l0.1-0.3c0.3,0.1,0.7,0.1,1,0.2L129.7,118.2z M144.9,118.1l-0.1-0.3c0.3-0.1,0.7-0.1,1-0.2
				l0.1,0.3C145.6,118,145.3,118,144.9,118.1z M127.6,117.9c-0.3-0.1-0.7-0.1-1-0.2l0.1-0.3c0.3,0.1,0.7,0.1,1,0.2L127.6,117.9z
				 M146.9,117.7l-0.1-0.3c0.3-0.1,0.7-0.2,1-0.2l0.1,0.3C147.6,117.5,147.3,117.6,146.9,117.7z M125.6,117.4
				c-0.3-0.1-0.7-0.2-1-0.3l0.1-0.3c0.3,0.1,0.6,0.2,1,0.3L125.6,117.4z M148.9,117.2l-0.1-0.3c0.3-0.1,0.7-0.2,1-0.3l0.1,0.3
				C149.6,117,149.3,117.1,148.9,117.2z M123.7,116.9c-0.3-0.1-0.7-0.2-1-0.3l0.1-0.3c0.3,0.1,0.6,0.2,1,0.3L123.7,116.9z
				 M150.9,116.6l-0.1-0.3c0.3-0.1,0.6-0.2,0.9-0.4l0.1,0.3C151.5,116.3,151.2,116.4,150.9,116.6z M121.7,116.2
				c-0.3-0.1-0.6-0.3-0.9-0.4l0.1-0.3c0.3,0.1,0.6,0.3,0.9,0.4L121.7,116.2z M152.8,115.8l-0.1-0.3c0.3-0.1,0.6-0.3,0.9-0.4l0.2,0.3
				C153.4,115.5,153.1,115.6,152.8,115.8z M119.9,115.3c-0.3-0.2-0.6-0.3-0.9-0.5l0.2-0.3c0.3,0.2,0.6,0.3,0.9,0.5L119.9,115.3z
				 M154.6,114.8l-0.2-0.3c0.3-0.2,0.6-0.4,0.8-0.6l0.2,0.3C155.2,114.4,154.9,114.6,154.6,114.8z M118.1,114.2
				c-0.3-0.2-0.6-0.4-0.8-0.7l0.2-0.3c0.2,0.2,0.5,0.4,0.8,0.6L118.1,114.2z M156.3,113.6l-0.2-0.2c0.3-0.2,0.5-0.5,0.7-0.7l0.3,0.2
				C156.8,113.1,156.5,113.4,156.3,113.6z M116.6,112.8c-0.2-0.3-0.4-0.6-0.6-0.9l0.3-0.2c0.2,0.3,0.3,0.5,0.6,0.8L116.6,112.8z
				 M157.6,112l-0.3-0.2c0.2-0.3,0.3-0.6,0.4-0.9l0.3,0.1C157.9,111.4,157.8,111.7,157.6,112z M115.6,111c-0.1-0.3-0.1-0.7-0.1-1
				l0.3,0v0c0,0.3,0,0.6,0.1,0.9L115.6,111z M158.1,110l-0.3,0l0.2,0l-0.2,0c0-0.3,0-0.6-0.1-0.9l0.3-0.1
				C158.1,109.3,158.1,109.6,158.1,110L158.1,110z M115.9,109l-0.3-0.1c0.1-0.3,0.2-0.7,0.4-1l0.3,0.2
				C116.2,108.4,116,108.7,115.9,109z M157.3,108.1c-0.1-0.3-0.3-0.5-0.6-0.8l0.3-0.2c0.2,0.3,0.4,0.6,0.6,0.9L157.3,108.1z
				 M116.9,107.3l-0.3-0.2c0.2-0.3,0.5-0.5,0.7-0.7l0.2,0.2C117.3,106.8,117.1,107,116.9,107.3z M156.1,106.6
				c-0.2-0.2-0.5-0.4-0.8-0.6l0.2-0.3c0.3,0.2,0.6,0.4,0.8,0.7L156.1,106.6z M118.4,105.9l-0.2-0.3c0.3-0.2,0.6-0.4,0.9-0.6l0.2,0.3
				C118.9,105.6,118.6,105.7,118.4,105.9z M154.5,105.4c-0.3-0.2-0.6-0.3-0.9-0.5l0.2-0.3c0.3,0.2,0.6,0.3,0.9,0.5L154.5,105.4z
				 M120.1,104.9l-0.2-0.3c0.3-0.2,0.6-0.3,0.9-0.5l0.1,0.3C120.7,104.6,120.3,104.7,120.1,104.9z M152.7,104.4
				c-0.3-0.1-0.6-0.3-0.9-0.4l0.1-0.3c0.3,0.1,0.6,0.3,0.9,0.4L152.7,104.4z M121.9,104l-0.1-0.3c0.3-0.1,0.6-0.2,1-0.4l0.1,0.3
				C122.5,103.8,122.2,103.9,121.9,104z M150.8,103.7c-0.3-0.1-0.6-0.2-1-0.3l0.1-0.3c0.3,0.1,0.7,0.2,1,0.3L150.8,103.7z
				 M123.8,103.3l-0.1-0.3c0.3-0.1,0.6-0.2,1-0.3l0.1,0.3C124.4,103.1,124.1,103.2,123.8,103.3z M148.9,103.1
				c-0.3-0.1-0.6-0.2-1-0.3l0.1-0.3c0.3,0.1,0.7,0.2,1,0.3L148.9,103.1z M125.7,102.8l-0.1-0.3c0.3-0.1,0.7-0.2,1-0.2l0.1,0.3
				C126.4,102.6,126.1,102.7,125.7,102.8z M146.9,102.6c-0.3-0.1-0.7-0.1-1-0.2l0.1-0.3c0.3,0.1,0.7,0.1,1,0.2L146.9,102.6z
				 M127.7,102.3l-0.1-0.3c0.3-0.1,0.7-0.1,1-0.2l0.1,0.3C128.4,102.2,128.1,102.3,127.7,102.3z M144.9,102.2
				c-0.3-0.1-0.7-0.1-1-0.2l0-0.3c0.3,0.1,0.7,0.1,1,0.2L144.9,102.2z M129.7,102l-0.1-0.3c0.3,0,0.7-0.1,1-0.1l0,0.3
				C130.4,101.9,130.1,101.9,129.7,102z M142.9,101.9c-0.3,0-0.7-0.1-1-0.1l0-0.3c0.3,0,0.7,0.1,1,0.1L142.9,101.9z M131.7,101.7
				l0-0.3c0.3,0,0.7-0.1,1-0.1l0,0.3C132.4,101.7,132.1,101.7,131.7,101.7z M140.9,101.7c-0.3,0-0.7-0.1-1-0.1l0-0.3
				c0.3,0,0.7,0,1,0.1L140.9,101.7z M133.8,101.6l0-0.3c0.3,0,0.7,0,1-0.1l0,0.3C134.4,101.5,134.1,101.6,133.8,101.6z M138.9,101.5
				c-0.3,0-0.7,0-1,0l0-0.3c0.3,0,0.7,0,1,0L138.9,101.5z M135.8,101.5l0-0.3c0.3,0,0.7,0,1,0h0v0.3h0
				C136.5,101.5,136.1,101.5,135.8,101.5z"/>
		</g>
		<path fill="#C49413" d="M136.8,91.2c-14,0-25.4,5.2-25.4,11.6c0,6.4,11.4,11.6,25.4,11.6c14,0,25.4-3.9,25.4-11.6
			C162.2,96.4,150.9,91.2,136.8,91.2z"/>
		<path fill="#FCD900" d="M136.8,92.9c-11.7,0-21.2,3.9-21.2,8.6c0,4.8,9.5,8.6,21.2,8.6c11.7,0,21.2-3.9,21.2-8.6
			C158,96.8,148.5,92.9,136.8,92.9z"/>
		<path fill="#D8B800" d="M136.8,110.3l0-0.2V110h0c0.3,0,0.7,0,1,0l0,0.3C137.5,110.3,137.1,110.3,136.8,110.3z M135.8,110.3
			c-0.3,0-0.7,0-1,0l0-0.3c0.3,0,0.7,0,1,0L135.8,110.3z M138.8,110.3l0-0.3c0.3,0,0.7,0,1-0.1l0,0.3
			C139.5,110.3,139.2,110.3,138.8,110.3z M133.7,110.2c-0.3,0-0.7,0-1-0.1l0-0.3c0.3,0,0.7,0.1,1,0.1L133.7,110.2z M140.9,110.2
			l0-0.3c0.3,0,0.7-0.1,1-0.1l0,0.3C141.6,110.1,141.2,110.1,140.9,110.2z M131.7,110.1c-0.3,0-0.7-0.1-1-0.1l0-0.3
			c0.3,0,0.7,0.1,1,0.1L131.7,110.1z M142.9,110l0-0.3c0.3,0,0.7-0.1,1-0.1l0,0.3C143.6,109.9,143.3,109.9,142.9,110z M129.7,109.8
			c-0.3,0-0.7-0.1-1-0.2l0.1-0.3c0.3,0.1,0.7,0.1,1,0.2L129.7,109.8z M144.9,109.7l-0.1-0.3c0.3-0.1,0.7-0.1,1-0.2l0.1,0.3
			C145.6,109.6,145.3,109.6,144.9,109.7z M127.6,109.5c-0.3-0.1-0.7-0.1-1-0.2l0.1-0.3c0.3,0.1,0.7,0.1,1,0.2L127.6,109.5z
			 M146.9,109.3l-0.1-0.3c0.3-0.1,0.7-0.2,1-0.2l0.1,0.3C147.6,109.1,147.3,109.2,146.9,109.3z M125.6,109c-0.3-0.1-0.7-0.2-1-0.3
			l0.1-0.3c0.3,0.1,0.6,0.2,1,0.3L125.6,109z M148.9,108.8l-0.1-0.3c0.3-0.1,0.7-0.2,1-0.3l0.1,0.3
			C149.6,108.6,149.3,108.7,148.9,108.8z M123.7,108.5c-0.3-0.1-0.7-0.2-1-0.3l0.1-0.3c0.3,0.1,0.6,0.2,1,0.3L123.7,108.5z
			 M150.9,108.2l-0.1-0.3c0.3-0.1,0.6-0.2,0.9-0.4l0.1,0.3C151.5,107.9,151.2,108,150.9,108.2z M121.7,107.8
			c-0.3-0.1-0.6-0.3-0.9-0.4l0.1-0.3c0.3,0.1,0.6,0.3,0.9,0.4L121.7,107.8z M152.8,107.4l-0.1-0.3c0.3-0.1,0.6-0.3,0.9-0.4l0.2,0.3
			C153.4,107.1,153.1,107.2,152.8,107.4z M119.9,106.9c-0.3-0.2-0.6-0.3-0.9-0.5l0.2-0.3c0.3,0.2,0.6,0.3,0.9,0.5L119.9,106.9z
			 M154.6,106.4l-0.2-0.3c0.3-0.2,0.6-0.4,0.8-0.6l0.2,0.3C155.2,106,154.9,106.2,154.6,106.4z M118.1,105.8
			c-0.3-0.2-0.6-0.4-0.8-0.7l0.2-0.3c0.2,0.2,0.5,0.4,0.8,0.6L118.1,105.8z M156.3,105.2l-0.2-0.3c0.3-0.2,0.5-0.5,0.7-0.7l0.3,0.2
			C156.8,104.7,156.5,104.9,156.3,105.2z M116.6,104.4c-0.2-0.3-0.4-0.6-0.6-0.9l0.3-0.2c0.2,0.3,0.3,0.5,0.6,0.8L116.6,104.4z
			 M157.6,103.6l-0.3-0.2c0.2-0.3,0.3-0.6,0.4-0.9l0.3,0.1C157.9,102.9,157.8,103.3,157.6,103.6z M115.6,102.6
			c-0.1-0.3-0.1-0.7-0.1-1l0.3,0v0c0,0.3,0,0.6,0.1,0.9L115.6,102.6z M158.1,101.6l-0.3,0l0.2,0l-0.2,0c0-0.3,0-0.6-0.1-0.9l0.3-0.1
			C158.1,100.9,158.1,101.2,158.1,101.6L158.1,101.6z M115.9,100.6l-0.3-0.1c0.1-0.3,0.2-0.7,0.4-1l0.3,0.2
			C116.2,100,116,100.3,115.9,100.6z M157.3,99.7c-0.1-0.3-0.3-0.5-0.6-0.8l0.3-0.2c0.2,0.3,0.4,0.6,0.6,0.9L157.3,99.7z
			 M116.9,98.9l-0.3-0.2c0.2-0.3,0.5-0.5,0.7-0.7l0.2,0.2C117.3,98.4,117.1,98.6,116.9,98.9z M156.1,98.2c-0.2-0.2-0.5-0.4-0.8-0.6
			l0.2-0.3c0.3,0.2,0.6,0.4,0.8,0.7L156.1,98.2z M118.4,97.5l-0.2-0.3c0.3-0.2,0.6-0.4,0.9-0.6l0.2,0.3
			C118.9,97.1,118.6,97.3,118.4,97.5z M154.5,97c-0.3-0.2-0.6-0.3-0.9-0.5l0.2-0.3c0.3,0.2,0.6,0.3,0.9,0.5L154.5,97z M120.1,96.5
			l-0.2-0.3c0.3-0.2,0.6-0.3,0.9-0.5L121,96C120.7,96.2,120.3,96.3,120.1,96.5z M152.7,96c-0.3-0.1-0.6-0.3-0.9-0.4l0.1-0.3
			c0.3,0.1,0.6,0.3,0.9,0.4L152.7,96z M121.9,95.6l-0.1-0.3c0.3-0.1,0.6-0.2,1-0.4l0.1,0.3C122.5,95.4,122.2,95.5,121.9,95.6z
			 M150.8,95.3c-0.3-0.1-0.6-0.2-1-0.3l0.1-0.3c0.3,0.1,0.7,0.2,1,0.3L150.8,95.3z M123.8,94.9l-0.1-0.3c0.3-0.1,0.6-0.2,1-0.3
			l0.1,0.3C124.4,94.7,124.1,94.8,123.8,94.9z M148.9,94.6c-0.3-0.1-0.6-0.2-1-0.3L148,94c0.3,0.1,0.7,0.2,1,0.3L148.9,94.6z
			 M125.7,94.4l-0.1-0.3c0.3-0.1,0.7-0.2,1-0.2l0.1,0.3C126.4,94.2,126.1,94.3,125.7,94.4z M146.9,94.1c-0.3-0.1-0.7-0.1-1-0.2
			l0.1-0.3c0.3,0.1,0.7,0.1,1,0.2L146.9,94.1z M127.7,93.9l-0.1-0.3c0.3-0.1,0.7-0.1,1-0.2l0.1,0.3
			C128.4,93.8,128.1,93.9,127.7,93.9z M144.9,93.8c-0.3-0.1-0.7-0.1-1-0.2l0-0.3c0.3,0.1,0.7,0.1,1,0.2L144.9,93.8z M129.7,93.6
			l-0.1-0.3c0.3,0,0.7-0.1,1-0.1l0,0.3C130.4,93.5,130.1,93.5,129.7,93.6z M142.9,93.5c-0.3,0-0.7-0.1-1-0.1l0-0.3
			c0.3,0,0.7,0.1,1,0.1L142.9,93.5z M131.7,93.3l0-0.3c0.3,0,0.7-0.1,1-0.1l0,0.3C132.4,93.3,132.1,93.3,131.7,93.3z M140.9,93.2
			c-0.3,0-0.7-0.1-1-0.1l0-0.3c0.3,0,0.7,0,1,0.1L140.9,93.2z M133.8,93.2l0-0.3c0.3,0,0.7,0,1-0.1l0,0.3
			C134.4,93.1,134.1,93.2,133.8,93.2z M138.9,93.1c-0.3,0-0.7,0-1,0l0-0.3c0.3,0,0.7,0,1,0L138.9,93.1z M135.8,93.1l0-0.3
			c0.3,0,0.7,0,1,0h0v0.3h0C136.5,93.1,136.1,93.1,135.8,93.1z"/>
		<g>
			<path fill="#C49413" d="M136.8,84.9c-14,0-25.4,5.2-25.4,11.6c0,6.4,11.4,11.6,25.4,11.6c14,0,25.4-5.2,25.4-11.6
				C162.2,90.1,150.9,84.9,136.8,84.9z"/>
			<path fill="#FCD900" d="M136.8,86.8c-11.7,0-21.2,3.9-21.2,8.6c0,4.8,9.5,8.6,21.2,8.6c11.7,0,21.2-3.9,21.2-8.6
				C158,90.7,148.5,86.8,136.8,86.8z"/>
			<path fill="#D8B800" d="M136.8,104.2l0-0.2v-0.2h0c0.3,0,0.7,0,1,0l0,0.3C137.5,104.2,137.1,104.2,136.8,104.2z M135.8,104.2
				c-0.3,0-0.7,0-1,0l0-0.3c0.3,0,0.7,0,1,0L135.8,104.2z M138.8,104.2l0-0.3c0.3,0,0.7,0,1-0.1l0,0.3
				C139.5,104.1,139.2,104.1,138.8,104.2z M133.7,104.1c-0.3,0-0.7,0-1-0.1l0-0.3c0.3,0,0.7,0.1,1,0.1L133.7,104.1z M140.9,104
				l0-0.3c0.3,0,0.7-0.1,1-0.1l0,0.3C141.6,104,141.2,104,140.9,104z M131.7,103.9c-0.3,0-0.7-0.1-1-0.1l0-0.3c0.3,0,0.7,0.1,1,0.1
				L131.7,103.9z M142.9,103.8l0-0.3c0.3,0,0.7-0.1,1-0.1l0,0.3C143.6,103.7,143.3,103.8,142.9,103.8z M129.7,103.7
				c-0.3,0-0.7-0.1-1-0.2l0.1-0.3c0.3,0.1,0.7,0.1,1,0.2L129.7,103.7z M144.9,103.5l-0.1-0.3c0.3-0.1,0.7-0.1,1-0.2l0.1,0.3
				C145.6,103.4,145.3,103.5,144.9,103.5z M127.6,103.3c-0.3-0.1-0.7-0.1-1-0.2l0.1-0.3c0.3,0.1,0.7,0.1,1,0.2L127.6,103.3z
				 M146.9,103.1l-0.1-0.3c0.3-0.1,0.7-0.2,1-0.2l0.1,0.3C147.6,103,147.3,103.1,146.9,103.1z M125.6,102.9c-0.3-0.1-0.7-0.2-1-0.3
				l0.1-0.3c0.3,0.1,0.6,0.2,1,0.3L125.6,102.9z M148.9,102.7l-0.1-0.3c0.3-0.1,0.7-0.2,1-0.3l0.1,0.3
				C149.6,102.5,149.3,102.6,148.9,102.7z M123.7,102.3c-0.3-0.1-0.7-0.2-1-0.3l0.1-0.3c0.3,0.1,0.6,0.2,1,0.3L123.7,102.3z
				 M150.9,102l-0.1-0.3c0.3-0.1,0.6-0.2,0.9-0.4l0.1,0.3C151.5,101.8,151.2,101.9,150.9,102z M121.7,101.6
				c-0.3-0.1-0.6-0.3-0.9-0.4l0.1-0.3c0.3,0.1,0.6,0.3,0.9,0.4L121.7,101.6z M152.8,101.3l-0.1-0.3c0.3-0.1,0.6-0.3,0.9-0.4l0.2,0.3
				C153.4,101,153.1,101.1,152.8,101.3z M119.9,100.8c-0.3-0.2-0.6-0.3-0.9-0.5l0.2-0.3c0.3,0.2,0.6,0.3,0.9,0.5L119.9,100.8z
				 M154.6,100.3l-0.2-0.3c0.3-0.2,0.6-0.4,0.8-0.6l0.2,0.3C155.2,99.9,154.9,100.1,154.6,100.3z M118.1,99.7
				c-0.3-0.2-0.6-0.4-0.8-0.7l0.2-0.3c0.2,0.2,0.5,0.4,0.8,0.6L118.1,99.7z M156.3,99.1l-0.2-0.2c0.3-0.2,0.5-0.5,0.7-0.7l0.3,0.2
				C156.8,98.6,156.5,98.8,156.3,99.1z M116.6,98.3c-0.2-0.3-0.4-0.6-0.6-0.9l0.3-0.2c0.2,0.3,0.3,0.5,0.6,0.8L116.6,98.3z
				 M157.6,97.5l-0.3-0.2c0.2-0.3,0.3-0.6,0.4-0.9l0.3,0.1C157.9,96.8,157.8,97.1,157.6,97.5z M115.6,96.4c-0.1-0.3-0.1-0.7-0.1-1
				l0.3,0v0c0,0.3,0,0.6,0.1,0.9L115.6,96.4z M158.1,95.4l-0.3,0l0.2,0l-0.2,0c0-0.3,0-0.6-0.1-0.9l0.3-0.1
				C158.1,94.7,158.1,95.1,158.1,95.4L158.1,95.4z M115.9,94.4l-0.3-0.1c0.1-0.3,0.2-0.7,0.4-1l0.3,0.2
				C116.2,93.8,116,94.1,115.9,94.4z M157.3,93.6c-0.1-0.3-0.3-0.5-0.6-0.8l0.3-0.2c0.2,0.3,0.4,0.6,0.6,0.9L157.3,93.6z
				 M116.9,92.7l-0.3-0.2c0.2-0.3,0.5-0.5,0.7-0.7l0.2,0.2C117.3,92.3,117.1,92.5,116.9,92.7z M156.1,92.1c-0.2-0.2-0.5-0.4-0.8-0.6
				l0.2-0.3c0.3,0.2,0.6,0.4,0.8,0.7L156.1,92.1z M118.4,91.4l-0.2-0.3c0.3-0.2,0.6-0.4,0.9-0.6l0.2,0.3
				C118.9,91,118.6,91.2,118.4,91.4z M154.5,90.9c-0.3-0.2-0.6-0.3-0.9-0.5l0.2-0.3c0.3,0.2,0.6,0.3,0.9,0.5L154.5,90.9z
				 M120.1,90.3l-0.2-0.3c0.3-0.2,0.6-0.3,0.9-0.5l0.1,0.3C120.7,90,120.3,90.2,120.1,90.3z M152.7,89.9c-0.3-0.1-0.6-0.3-0.9-0.4
				l0.1-0.3c0.3,0.1,0.6,0.3,0.9,0.4L152.7,89.9z M121.9,89.5l-0.1-0.3c0.3-0.1,0.6-0.2,1-0.4l0.1,0.3
				C122.5,89.2,122.2,89.4,121.9,89.5z M150.8,89.1c-0.3-0.1-0.6-0.2-1-0.3l0.1-0.3c0.3,0.1,0.7,0.2,1,0.3L150.8,89.1z M123.8,88.8
				l-0.1-0.3c0.3-0.1,0.6-0.2,1-0.3l0.1,0.3C124.4,88.6,124.1,88.7,123.8,88.8z M148.9,88.5c-0.3-0.1-0.6-0.2-1-0.3l0.1-0.3
				c0.3,0.1,0.7,0.2,1,0.3L148.9,88.5z M125.7,88.2l-0.1-0.3c0.3-0.1,0.7-0.2,1-0.2l0.1,0.3C126.4,88.1,126.1,88.2,125.7,88.2z
				 M146.9,88c-0.3-0.1-0.7-0.1-1-0.2l0.1-0.3c0.3,0.1,0.7,0.1,1,0.2L146.9,88z M127.7,87.8l-0.1-0.3c0.3-0.1,0.7-0.1,1-0.2l0.1,0.3
				C128.4,87.7,128.1,87.7,127.7,87.8z M144.9,87.6c-0.3-0.1-0.7-0.1-1-0.2l0-0.3c0.3,0,0.7,0.1,1,0.2L144.9,87.6z M129.7,87.5
				l-0.1-0.3c0.3,0,0.7-0.1,1-0.1l0,0.3C130.4,87.4,130.1,87.4,129.7,87.5z M142.9,87.3c-0.3,0-0.7-0.1-1-0.1l0-0.3
				c0.3,0,0.7,0.1,1,0.1L142.9,87.3z M131.7,87.2l0-0.3c0.3,0,0.7-0.1,1-0.1l0,0.3C132.4,87.1,132.1,87.2,131.7,87.2z M140.9,87.1
				c-0.3,0-0.7,0-1-0.1l0-0.3c0.3,0,0.7,0,1,0.1L140.9,87.1z M133.8,87l0-0.3c0.3,0,0.7,0,1-0.1l0,0.3C134.4,87,134.1,87,133.8,87z
				 M138.9,87c-0.3,0-0.7,0-1,0l0-0.3c0.3,0,0.7,0,1,0L138.9,87z M135.8,87l0-0.3c0.3,0,0.7,0,1,0h0V87h0
				C136.5,87,136.1,87,135.8,87z"/>
		</g>
		<g>
			<path fill="#C49413" d="M136.8,79c-14,0-25.4,5.2-25.4,11.6c0,6.4,11.4,11.6,25.4,11.6c14,0,25.4-5.2,25.4-11.6
				C162.2,84.2,150.9,79,136.8,79z"/>
			<path fill="#FCD900" d="M136.8,80.9c-11.7,0-21.2,3.9-21.2,8.6c0,4.8,9.5,8.6,21.2,8.6c11.7,0,21.2-3.9,21.2-8.6
				C158,84.8,148.5,80.9,136.8,80.9z"/>
			<path fill="#D8B800" d="M136.8,98.3l0-0.2V98h0c0.3,0,0.7,0,1,0l0,0.3C137.5,98.3,137.1,98.3,136.8,98.3z M135.8,98.3
				c-0.3,0-0.7,0-1,0l0-0.3c0.3,0,0.7,0,1,0L135.8,98.3z M138.8,98.3l0-0.3c0.3,0,0.7,0,1,0l0,0.3C139.5,98.2,139.2,98.2,138.8,98.3
				z M133.7,98.2c-0.3,0-0.7,0-1-0.1l0-0.3c0.3,0,0.7,0,1,0.1L133.7,98.2z M140.9,98.1l0-0.3c0.3,0,0.7-0.1,1-0.1l0,0.3
				C141.6,98.1,141.2,98.1,140.9,98.1z M131.7,98c-0.3,0-0.7-0.1-1-0.1l0-0.3c0.3,0,0.7,0.1,1,0.1L131.7,98z M142.9,97.9l0-0.3
				c0.3,0,0.7-0.1,1-0.1l0,0.3C143.6,97.8,143.3,97.9,142.9,97.9z M129.7,97.8c-0.3,0-0.7-0.1-1-0.2l0.1-0.3c0.3,0.1,0.7,0.1,1,0.2
				L129.7,97.8z M144.9,97.6l-0.1-0.3c0.3-0.1,0.7-0.1,1-0.2l0.1,0.3C145.6,97.5,145.3,97.6,144.9,97.6z M127.6,97.4
				c-0.3-0.1-0.7-0.1-1-0.2l0.1-0.3c0.3,0.1,0.7,0.1,1,0.2L127.6,97.4z M146.9,97.2l-0.1-0.3c0.3-0.1,0.7-0.2,1-0.2l0.1,0.3
				C147.6,97.1,147.3,97.2,146.9,97.2z M125.6,97c-0.3-0.1-0.7-0.2-1-0.3l0.1-0.3c0.3,0.1,0.6,0.2,1,0.3L125.6,97z M148.9,96.7
				l-0.1-0.3c0.3-0.1,0.7-0.2,1-0.3l0.1,0.3C149.6,96.6,149.3,96.7,148.9,96.7z M123.7,96.4c-0.3-0.1-0.7-0.2-1-0.3l0.1-0.3
				c0.3,0.1,0.6,0.2,1,0.3L123.7,96.4z M150.9,96.1l-0.1-0.3c0.3-0.1,0.6-0.2,0.9-0.4l0.1,0.3C151.5,95.9,151.2,96,150.9,96.1z
				 M121.7,95.7c-0.3-0.1-0.6-0.3-0.9-0.4l0.1-0.3c0.3,0.1,0.6,0.3,0.9,0.4L121.7,95.7z M152.8,95.4l-0.1-0.3
				c0.3-0.1,0.6-0.3,0.9-0.4l0.2,0.3C153.4,95,153.1,95.2,152.8,95.4z M119.9,94.9c-0.3-0.2-0.6-0.3-0.9-0.5l0.2-0.3
				c0.3,0.2,0.6,0.3,0.9,0.5L119.9,94.9z M154.6,94.4l-0.2-0.3c0.3-0.2,0.6-0.4,0.8-0.6l0.2,0.3C155.2,94,154.9,94.2,154.6,94.4z
				 M118.1,93.8c-0.3-0.2-0.6-0.4-0.8-0.7l0.2-0.2c0.2,0.2,0.5,0.4,0.8,0.6L118.1,93.8z M156.3,93.2l-0.2-0.2
				c0.3-0.2,0.5-0.5,0.7-0.7l0.3,0.2C156.8,92.7,156.5,92.9,156.3,93.2z M116.6,92.4c-0.2-0.3-0.4-0.6-0.6-0.9l0.3-0.2
				c0.2,0.3,0.3,0.5,0.6,0.8L116.6,92.4z M157.6,91.6l-0.3-0.2c0.2-0.3,0.3-0.6,0.4-0.9l0.3,0.1C157.9,90.9,157.8,91.2,157.6,91.6z
				 M115.6,90.5c-0.1-0.3-0.1-0.7-0.1-1l0.3,0v0c0,0.3,0,0.6,0.1,0.9L115.6,90.5z M158.1,89.5l-0.3,0l0.2,0l-0.2,0
				c0-0.3,0-0.6-0.1-0.9l0.3-0.1C158.1,88.8,158.1,89.2,158.1,89.5L158.1,89.5z M115.9,88.5l-0.3-0.1c0.1-0.3,0.2-0.7,0.4-1l0.3,0.2
				C116.2,87.9,116,88.2,115.9,88.5z M157.3,87.7c-0.1-0.3-0.3-0.5-0.6-0.8l0.3-0.2c0.2,0.3,0.4,0.6,0.6,0.9L157.3,87.7z
				 M116.9,86.8l-0.3-0.2c0.2-0.3,0.5-0.5,0.7-0.7l0.2,0.2C117.3,86.4,117.1,86.6,116.9,86.8z M156.1,86.2c-0.2-0.2-0.5-0.4-0.8-0.6
				l0.2-0.3c0.3,0.2,0.6,0.4,0.8,0.7L156.1,86.2z M118.4,85.5l-0.2-0.3c0.3-0.2,0.6-0.4,0.9-0.6l0.2,0.3
				C118.9,85.1,118.6,85.3,118.4,85.5z M154.5,85c-0.3-0.2-0.6-0.3-0.9-0.5l0.2-0.3c0.3,0.2,0.6,0.3,0.9,0.5L154.5,85z M120.1,84.4
				l-0.2-0.3c0.3-0.2,0.6-0.3,0.9-0.5L121,84C120.7,84.1,120.3,84.3,120.1,84.4z M152.7,84c-0.3-0.1-0.6-0.3-0.9-0.4l0.1-0.3
				c0.3,0.1,0.6,0.3,0.9,0.4L152.7,84z M121.9,83.6l-0.1-0.3c0.3-0.1,0.6-0.2,1-0.4l0.1,0.3C122.5,83.3,122.2,83.5,121.9,83.6z
				 M150.8,83.2c-0.3-0.1-0.6-0.2-1-0.3l0.1-0.3c0.3,0.1,0.7,0.2,1,0.3L150.8,83.2z M123.8,82.9l-0.1-0.3c0.3-0.1,0.6-0.2,1-0.3
				l0.1,0.3C124.4,82.7,124.1,82.8,123.8,82.9z M148.9,82.6c-0.3-0.1-0.6-0.2-1-0.3L148,82c0.3,0.1,0.7,0.2,1,0.3L148.9,82.6z
				 M125.7,82.3l-0.1-0.3c0.3-0.1,0.7-0.2,1-0.2l0.1,0.3C126.4,82.2,126.1,82.3,125.7,82.3z M146.9,82.1c-0.3-0.1-0.7-0.1-1-0.2
				l0.1-0.3c0.3,0.1,0.7,0.1,1,0.2L146.9,82.1z M127.7,81.9l-0.1-0.3c0.3-0.1,0.7-0.1,1-0.2l0.1,0.3
				C128.4,81.8,128.1,81.8,127.7,81.9z M144.9,81.7c-0.3-0.1-0.7-0.1-1-0.2l0-0.3c0.3,0,0.7,0.1,1,0.2L144.9,81.7z M129.7,81.6
				l-0.1-0.3c0.3-0.1,0.7-0.1,1-0.1l0,0.3C130.4,81.5,130.1,81.5,129.7,81.6z M142.9,81.4c-0.3,0-0.7-0.1-1-0.1l0-0.3
				c0.3,0,0.7,0.1,1,0.1L142.9,81.4z M131.7,81.3l0-0.3c0.3,0,0.7-0.1,1-0.1l0,0.3C132.4,81.2,132.1,81.3,131.7,81.3z M140.9,81.2
				c-0.3,0-0.7,0-1-0.1l0-0.3c0.3,0,0.7,0,1,0.1L140.9,81.2z M133.8,81.1l0-0.3c0.3,0,0.7,0,1-0.1l0,0.3
				C134.4,81.1,134.1,81.1,133.8,81.1z M138.9,81.1c-0.3,0-0.7,0-1,0l0-0.3c0.3,0,0.7,0,1,0L138.9,81.1z M135.8,81.1l0-0.3
				c0.3,0,0.7,0,1,0h0v0.3h0C136.5,81.1,136.1,81.1,135.8,81.1z"/>
		</g>
		<g>
			<path fill="#FBCD3B" d="M136.8,70.5c-14,0-25.4,5.2-25.4,11.6c0,6.4,11.4,11.6,25.4,11.6c14,0,25.4-5.2,25.4-11.6
				C162.2,75.7,150.9,70.6,136.8,70.5z"/>
			<g>
				<path fill="#E1B544" d="M157.6,116.4c-1.3,0.8-2.9,1.6-4.6,2.2c-1.4,0.5-3,1-4.6,1.3c-1.5,0.3-3,0.6-4.6,0.8
					c-1.5,0.2-3,0.3-4.6,0.4c-0.7,0-1.5,0-2.3,0c-0.8,0-1.6,0-2.4,0c-1.6-0.1-3.1-0.2-4.6-0.4c-1.6-0.2-3.2-0.5-4.6-0.8
					c-1.7-0.4-3.2-0.8-4.6-1.4c-1.7-0.6-3.3-1.4-4.6-2.2c-2.3-1.4-3.9-3.1-4.5-4.9c0,1.6,0,4.7,0,6.2c0.7,1.7,2.3,3.3,4.5,4.7
					c1.3,0.8,2.9,1.6,4.6,2.2c1.4,0.5,3,1,4.6,1.4c1.5,0.3,3,0.6,4.6,0.9c1.5,0.2,3,0.3,4.6,0.4c0.8,0,1.6,0.1,2.4,0.1
					c0.8,0,1.5,0,2.3-0.1c1.6-0.1,3.1-0.2,4.6-0.4c1.6-0.2,3.2-0.5,4.6-0.8c1.7-0.4,3.2-0.9,4.6-1.4c1.7-0.6,3.3-1.4,4.6-2.2
					c2.3-1.4,3.9-3,4.6-4.7c0-1.5,0-4.6,0-6.2C161.6,113.3,159.9,115,157.6,116.4z"/>
				<path fill="#E1B544" d="M157.6,108.9c-1.3,0.8-2.9,1.5-4.6,2.2c-1.4,0.5-3,1-4.6,1.3c-1.5,0.3-3,0.6-4.6,0.8
					c-1.5,0.2-3,0.3-4.6,0.4c-0.7,0-1.5,0-2.3,0c-0.8,0-1.6,0-2.4-0.1c-1.6-0.1-3.1-0.2-4.6-0.4c-1.6-0.2-3.2-0.5-4.6-0.8
					c-1.7-0.4-3.2-0.8-4.6-1.4c-1.7-0.6-3.3-1.4-4.6-2.2c-2.3-1.4-3.9-3.1-4.5-4.9c0,1.6,0,4.7,0,6.2c0.7,1.7,2.3,3.3,4.5,4.7
					c1.3,0.8,2.9,1.6,4.6,2.2c1.4,0.5,3,1,4.6,1.4c1.5,0.4,3,0.6,4.6,0.9c1.5,0.2,3,0.3,4.6,0.4c0.8,0,1.6,0.1,2.4,0.1
					c0.8,0,1.5,0,2.3-0.1c1.6-0.1,3.1-0.2,4.6-0.4c1.6-0.2,3.2-0.5,4.6-0.8c1.7-0.4,3.2-0.9,4.6-1.4c1.7-0.6,3.3-1.4,4.6-2.2
					c2.3-1.4,3.9-3,4.6-4.7c0-1.5,0-4.7,0-6.3C161.6,105.7,159.9,107.5,157.6,108.9z"/>
				<path fill="#E1B544" d="M157.6,101.9c-1.3,0.8-2.9,1.5-4.6,2.2c-1.4,0.5-3,1-4.6,1.3c-1.5,0.3-3,0.6-4.6,0.8
					c-1.5,0.2-3,0.3-4.6,0.4c-0.7,0-1.5,0-2.3,0c-0.8,0-1.6,0-2.4-0.1c-1.6-0.1-3.1-0.2-4.6-0.4c-1.6-0.2-3.2-0.5-4.6-0.8
					c-1.7-0.4-3.2-0.8-4.6-1.4c-1.7-0.6-3.3-1.4-4.6-2.2c-2.3-1.4-3.9-3.1-4.5-4.9c0,1.6,0,4.7,0,6.2c0.7,1.7,2.3,3.3,4.5,4.7
					c1.3,0.8,2.9,1.6,4.6,2.2c1.4,0.5,3,1,4.6,1.4c1.5,0.3,3,0.6,4.6,0.9c1.5,0.2,3,0.3,4.6,0.4c0.8,0,1.6,0.1,2.4,0.1
					c0.8,0,1.5,0,2.3,0c1.6-0.1,3.1-0.2,4.6-0.4c1.6-0.2,3.2-0.5,4.6-0.8c1.7-0.4,3.2-0.9,4.6-1.4c1.7-0.6,3.3-1.4,4.6-2.2
					c2.3-1.4,3.9-3,4.6-4.7c0-1.5,0-4.6,0-6.2C161.6,98.8,159.9,100.5,157.6,101.9z"/>
				<path fill="#E1B544" d="M157.6,94.8c-1.3,0.8-2.9,1.6-4.6,2.2c-1.4,0.5-3,1-4.6,1.3c-1.5,0.3-3,0.6-4.6,0.8
					c-1.5,0.2-3,0.3-4.6,0.4c-0.7,0-1.5,0-2.3,0c-0.8,0-1.6,0-2.4-0.1c-1.6-0.1-3.1-0.2-4.6-0.4c-1.6-0.2-3.2-0.5-4.6-0.8
					c-1.7-0.4-3.2-0.8-4.6-1.4c-1.7-0.6-3.3-1.4-4.6-2.2c-2.3-1.4-3.9-3.1-4.5-4.9c0,1.6,0,4.7,0,6.2c0.7,1.7,2.3,3.3,4.5,4.7
					c1.3,0.8,2.9,1.6,4.6,2.2c1.4,0.5,3,1,4.6,1.4c1.5,0.3,3,0.6,4.6,0.9c1.5,0.2,3,0.3,4.6,0.4c0.8,0,1.6,0.1,2.4,0.1
					c0.8,0,1.5,0,2.3-0.1c1.6-0.1,3.1-0.2,4.6-0.4c1.6-0.2,3.2-0.5,4.6-0.8c1.7-0.4,3.2-0.9,4.6-1.4c1.7-0.6,3.3-1.4,4.6-2.2
					c2.3-1.4,3.9-3,4.6-4.7c0-1.5,0-4.6,0-6.2C161.6,91.7,159.9,93.4,157.6,94.8z"/>
				<path fill="#E1B544" d="M157.6,87.6c-1.3,0.8-2.9,1.6-4.6,2.2c-1.4,0.5-3,1-4.6,1.3c-1.5,0.3-3,0.6-4.6,0.8
					c-1.5,0.2-3,0.3-4.6,0.4c-0.7,0-1.5,0-2.3,0c-0.8,0-1.6,0-2.4-0.1c-1.6-0.1-3.1-0.2-4.6-0.4c-1.6-0.2-3.2-0.5-4.6-0.8
					c-1.7-0.4-3.2-0.8-4.6-1.4c-1.7-0.6-3.3-1.4-4.6-2.2c-2.3-1.4-3.9-3.1-4.5-4.9c0,1.6,0,4.7,0,6.2c0.7,1.7,2.3,3.3,4.5,4.7
					c1.3,0.8,2.9,1.6,4.6,2.2c1.4,0.5,3,1,4.6,1.4c1.5,0.3,3,0.6,4.6,0.9c1.5,0.2,3,0.3,4.6,0.4c0.8,0,1.6,0.1,2.4,0.1
					c0.8,0,1.5,0,2.3-0.1c1.6-0.1,3.1-0.2,4.6-0.4c1.6-0.2,3.2-0.5,4.6-0.8c1.7-0.4,3.2-0.9,4.6-1.4c1.7-0.6,3.3-1.4,4.6-2.2
					c2.3-1.4,3.9-3,4.6-4.7c0-1.5,0-4.6,0-6.2C161.6,84.4,159.9,86.1,157.6,87.6z"/>
			</g>
		</g>
		<path fill="#E1B544" d="M136.9,90.3L136.9,90.3c-10.9,0-22.5-3.2-22.5-9c0-5.8,11.6-9,22.5-9c10.9,0,22.5,3.2,22.5,9
			C159.4,87.2,147.8,90.3,136.9,90.3z M136.9,74.8c-11.7,0-19.8,3.4-19.8,6.5c0,3.1,8.1,6.5,19.8,6.5c11.7,0,19.8-3.4,19.8-6.5
			C156.7,78.2,148.6,74.8,136.9,74.8z"/>
		<g>
			<path fill="#E1B544" d="M152.6,81.7h-3.6c-0.1,1.2-0.8,2.3-1.6,3l-4.5-0.5c0.9-0.7,1.7-1.8,1.7-2.9c0-1-0.8-1.7-2.4-1.7
				c-1.5,0-2.4,0.6-3.3,1.9c-1.4,1.9-3.3,3.1-7,3.1c-3.4,0-6-1.1-6.8-3h-3.6v-1.7h3.4c0.1-1.2,0.7-2,1.3-2.5l4.3,0.5
				c-0.4,0.5-1.3,1.3-1.3,2.5c0,1.1,1.1,1.5,2.1,1.5c1.3,0,2.1-0.6,3.3-2.1c1.6-2.1,3.7-2.9,7.2-2.9c3.4,0,6.3,1.1,7.1,3.1h3.9V81.7
				z"/>
		</g>
	</g>
	<g>
		<polygon fill="#DCA900" points="109.6,129.5 109.6,100.9 58.7,100.8 58.7,130.1 		"/>
		<g>
			<path fill="#C49413" d="M84.2,113.3c-14,0-25.4,5.2-25.4,11.6c0,6.4,11.4,11.6,25.4,11.6c14,0,25.4-5.2,25.4-11.6
				C109.6,118.5,98.2,113.4,84.2,113.3z"/>
			<path fill="#FCD900" d="M84.2,115.3c-11.7,0-21.2,3.9-21.2,8.6c0,4.8,9.5,8.6,21.2,8.6c11.7,0,21.2-3.9,21.2-8.6
				C105.3,119.1,95.9,115.3,84.2,115.3z"/>
			<path fill="#D8B800" d="M84.2,132.7l0-0.2v-0.2h0c0.3,0,0.7,0,1,0l0,0.3C84.8,132.7,84.5,132.7,84.2,132.7z M83.1,132.7
				c-0.3,0-0.7,0-1,0l0-0.3c0.3,0,0.7,0,1,0L83.1,132.7z M86.2,132.7l0-0.3c0.3,0,0.7,0,1-0.1l0,0.3
				C86.9,132.6,86.5,132.6,86.2,132.7z M81.1,132.6c-0.3,0-0.7,0-1-0.1l0-0.3c0.3,0,0.7,0.1,1,0.1L81.1,132.6z M88.2,132.5l0-0.3
				c0.3,0,0.7-0.1,1-0.1l0,0.3C88.9,132.5,88.6,132.5,88.2,132.5z M79,132.4c-0.3,0-0.7-0.1-1-0.1l0-0.3c0.3,0,0.7,0.1,1,0.1
				L79,132.4z M90.3,132.3l0-0.3c0.3,0,0.7-0.1,1-0.1l0,0.3C90.9,132.2,90.6,132.3,90.3,132.3z M77,132.2c-0.3-0.1-0.7-0.1-1-0.2
				l0.1-0.3c0.3,0.1,0.7,0.1,1,0.2L77,132.2z M92.3,132l-0.1-0.3c0.3-0.1,0.7-0.1,1-0.2l0.1,0.3C93,131.9,92.6,132,92.3,132z
				 M75,131.8c-0.3-0.1-0.7-0.1-1-0.2l0.1-0.3c0.3,0.1,0.7,0.1,1,0.2L75,131.8z M94.3,131.6l-0.1-0.3c0.3-0.1,0.7-0.2,1-0.2l0.1,0.3
				C95,131.5,94.6,131.6,94.3,131.6z M73,131.4c-0.3-0.1-0.7-0.2-1-0.3l0.1-0.3c0.3,0.1,0.6,0.2,1,0.3L73,131.4z M96.3,131.1
				l-0.1-0.3c0.3-0.1,0.7-0.2,1-0.3l0.1,0.3C96.9,130.9,96.6,131,96.3,131.1z M71,130.8c-0.3-0.1-0.7-0.2-1-0.3l0.1-0.3
				c0.3,0.1,0.6,0.2,1,0.3L71,130.8z M98.2,130.5l-0.1-0.3c0.3-0.1,0.6-0.2,0.9-0.4l0.1,0.3C98.9,130.3,98.6,130.4,98.2,130.5z
				 M69.1,130.1c-0.3-0.1-0.6-0.3-0.9-0.4l0.1-0.3c0.3,0.1,0.6,0.3,0.9,0.4L69.1,130.1z M100.1,129.7l-0.1-0.3
				c0.3-0.1,0.6-0.3,0.9-0.4l0.2,0.3C100.8,129.4,100.4,129.6,100.1,129.7z M67.2,129.3c-0.3-0.2-0.6-0.3-0.9-0.5l0.2-0.3
				c0.3,0.2,0.6,0.3,0.9,0.5L67.2,129.3z M101.9,128.8l-0.2-0.3c0.3-0.2,0.6-0.4,0.8-0.6l0.2,0.3
				C102.5,128.4,102.2,128.6,101.9,128.8z M65.5,128.2c-0.3-0.2-0.6-0.4-0.8-0.7l0.2-0.3c0.2,0.2,0.5,0.4,0.8,0.6L65.5,128.2z
				 M103.6,127.5l-0.2-0.2c0.3-0.2,0.5-0.5,0.7-0.7l0.3,0.2C104.1,127.1,103.9,127.3,103.6,127.5z M64,126.8
				c-0.2-0.3-0.4-0.6-0.6-0.9l0.3-0.2c0.2,0.3,0.3,0.5,0.6,0.8L64,126.8z M104.9,125.9l-0.3-0.2c0.2-0.3,0.3-0.6,0.4-0.9l0.3,0.1
				C105.3,125.3,105.1,125.6,104.9,125.9z M63,124.9c-0.1-0.3-0.1-0.7-0.1-1l0.3,0v0c0,0.3,0,0.6,0.1,0.9L63,124.9z M105.5,123.9
				l-0.3,0l0.2,0l-0.2,0c0-0.3,0-0.6-0.1-0.9l0.3-0.1C105.5,123.2,105.5,123.6,105.5,123.9L105.5,123.9z M63.3,122.9l-0.3-0.1
				c0.1-0.3,0.2-0.7,0.4-1l0.3,0.2C63.5,122.3,63.4,122.6,63.3,122.9z M104.7,122.1c-0.2-0.3-0.3-0.5-0.6-0.8l0.3-0.2
				c0.2,0.3,0.4,0.6,0.6,0.9L104.7,122.1z M64.2,121.2L64,121c0.2-0.3,0.5-0.5,0.7-0.7l0.2,0.2C64.7,120.8,64.4,121,64.2,121.2z
				 M103.4,120.5c-0.2-0.2-0.5-0.4-0.8-0.6l0.2-0.3c0.3,0.2,0.6,0.4,0.8,0.7L103.4,120.5z M65.7,119.9l-0.2-0.3
				c0.3-0.2,0.6-0.4,0.9-0.6l0.2,0.3C66.2,119.5,66,119.7,65.7,119.9z M101.8,119.3c-0.3-0.2-0.6-0.3-0.9-0.5l0.2-0.3
				c0.3,0.2,0.6,0.3,0.9,0.5L101.8,119.3z M67.4,118.8l-0.2-0.3c0.3-0.2,0.6-0.3,0.9-0.5l0.1,0.3C68,118.5,67.7,118.7,67.4,118.8z
				 M100,118.4c-0.3-0.1-0.6-0.3-0.9-0.4l0.1-0.3c0.3,0.1,0.6,0.3,0.9,0.4L100,118.4z M69.2,118l-0.1-0.3c0.3-0.1,0.6-0.2,1-0.4
				l0.1,0.3C69.9,117.7,69.6,117.8,69.2,118z M98.2,117.6c-0.3-0.1-0.6-0.2-1-0.3l0.1-0.3c0.3,0.1,0.7,0.2,1,0.3L98.2,117.6z
				 M71.2,117.3L71,117c0.3-0.1,0.6-0.2,1-0.3l0.1,0.3C71.8,117.1,71.5,117.2,71.2,117.3z M96.2,117c-0.3-0.1-0.6-0.2-1-0.3l0.1-0.3
				c0.3,0.1,0.7,0.2,1,0.3L96.2,117z M73.1,116.7l-0.1-0.3c0.3-0.1,0.7-0.2,1-0.2l0.1,0.3C73.8,116.6,73.4,116.6,73.1,116.7z
				 M94.3,116.5c-0.3-0.1-0.7-0.1-1-0.2l0.1-0.3c0.3,0.1,0.7,0.1,1,0.2L94.3,116.5z M75.1,116.3L75,116c0.3-0.1,0.7-0.1,1-0.2
				l0.1,0.3C75.7,116.2,75.4,116.2,75.1,116.3z M92.3,116.1c-0.3-0.1-0.7-0.1-1-0.2l0-0.3c0.3,0.1,0.7,0.1,1,0.2L92.3,116.1z
				 M77.1,115.9l0-0.3c0.3,0,0.7-0.1,1-0.1l0,0.3C77.7,115.9,77.4,115.9,77.1,115.9z M90.3,115.8c-0.3,0-0.7-0.1-1-0.1l0-0.3
				c0.3,0,0.7,0.1,1,0.1L90.3,115.8z M79.1,115.7l0-0.3c0.3,0,0.7-0.1,1-0.1l0,0.3C79.8,115.6,79.4,115.7,79.1,115.7z M88.3,115.6
				c-0.3,0-0.7-0.1-1-0.1l0-0.3c0.3,0,0.7,0,1,0.1L88.3,115.6z M81.1,115.5l0-0.3c0.3,0,0.7,0,1-0.1l0,0.3
				C81.8,115.5,81.5,115.5,81.1,115.5z M86.2,115.5c-0.3,0-0.7,0-1,0l0-0.3c0.3,0,0.7,0,1,0L86.2,115.5z M83.2,115.5l0-0.3
				c0.3,0,0.7,0,1,0h0v0.3h0C83.8,115.4,83.5,115.4,83.2,115.5z"/>
		</g>
		<path fill="#C49413" d="M84.2,105.2c-14,0-25.4,5.2-25.4,11.6c0,6.4,11.4,11.6,25.4,11.6c14,0,25.4-3.9,25.4-11.6
			C109.6,110.4,98.2,105.2,84.2,105.2z"/>
		<path fill="#FCD900" d="M84.2,106.9c-11.7,0-21.2,3.9-21.2,8.6c0,4.8,9.5,8.6,21.2,8.6c11.7,0,21.2-3.9,21.2-8.6
			C105.3,110.7,95.9,106.9,84.2,106.9z"/>
		<path fill="#D8B800" d="M84.2,124.3l0-0.2v-0.2h0c0.3,0,0.7,0,1,0l0,0.3C84.8,124.3,84.5,124.3,84.2,124.3z M83.1,124.3
			c-0.3,0-0.7,0-1,0l0-0.3c0.3,0,0.7,0,1,0L83.1,124.3z M86.2,124.2l0-0.3c0.3,0,0.7,0,1,0l0,0.3C86.9,124.2,86.5,124.2,86.2,124.2z
			 M81.1,124.2c-0.3,0-0.7,0-1-0.1l0-0.3c0.3,0,0.7,0.1,1,0.1L81.1,124.2z M88.2,124.1l0-0.3c0.3,0,0.7-0.1,1-0.1l0,0.3
			C88.9,124.1,88.6,124.1,88.2,124.1z M79,124c-0.3,0-0.7-0.1-1-0.1l0-0.3c0.3,0,0.7,0.1,1,0.1L79,124z M90.3,123.9l0-0.3
			c0.3,0,0.7-0.1,1-0.1l0,0.3C90.9,123.8,90.6,123.9,90.3,123.9z M77,123.8c-0.3,0-0.7-0.1-1-0.2l0.1-0.3c0.3,0.1,0.7,0.1,1,0.2
			L77,123.8z M92.3,123.6l-0.1-0.3c0.3-0.1,0.7-0.1,1-0.2l0.1,0.3C93,123.5,92.6,123.6,92.3,123.6z M75,123.4
			c-0.3-0.1-0.7-0.1-1-0.2l0.1-0.3c0.3,0.1,0.7,0.1,1,0.2L75,123.4z M94.3,123.2l-0.1-0.3c0.3-0.1,0.7-0.2,1-0.2l0.1,0.3
			C95,123.1,94.6,123.2,94.3,123.2z M73,123c-0.3-0.1-0.7-0.2-1-0.3l0.1-0.3c0.3,0.1,0.6,0.2,1,0.3L73,123z M96.3,122.7l-0.1-0.3
			c0.3-0.1,0.7-0.2,1-0.3l0.1,0.3C96.9,122.5,96.6,122.6,96.3,122.7z M71,122.4c-0.3-0.1-0.7-0.2-1-0.3l0.1-0.3
			c0.3,0.1,0.6,0.2,1,0.3L71,122.4z M98.2,122.1l-0.1-0.3c0.3-0.1,0.6-0.2,0.9-0.4l0.1,0.3C98.9,121.9,98.6,122,98.2,122.1z
			 M69.1,121.7c-0.3-0.1-0.6-0.3-0.9-0.4l0.1-0.3c0.3,0.1,0.6,0.3,0.9,0.4L69.1,121.7z M100.1,121.3L100,121
			c0.3-0.1,0.6-0.3,0.9-0.4l0.2,0.3C100.8,121,100.4,121.2,100.1,121.3z M67.2,120.9c-0.3-0.2-0.6-0.3-0.9-0.5l0.2-0.3
			c0.3,0.2,0.6,0.3,0.9,0.5L67.2,120.9z M101.9,120.4l-0.2-0.3c0.3-0.2,0.6-0.4,0.8-0.6l0.2,0.3C102.5,120,102.2,120.2,101.9,120.4z
			 M65.5,119.8c-0.3-0.2-0.6-0.4-0.8-0.7l0.2-0.3c0.2,0.2,0.5,0.4,0.8,0.6L65.5,119.8z M103.6,119.1l-0.2-0.3
			c0.3-0.2,0.5-0.5,0.7-0.7l0.3,0.2C104.1,118.6,103.9,118.9,103.6,119.1z M64,118.4c-0.2-0.3-0.4-0.6-0.6-0.9l0.3-0.2
			c0.2,0.3,0.3,0.5,0.6,0.8L64,118.4z M104.9,117.5l-0.3-0.2c0.2-0.3,0.3-0.6,0.4-0.9l0.3,0.1C105.3,116.9,105.1,117.2,104.9,117.5z
			 M63,116.5c-0.1-0.3-0.1-0.7-0.1-1l0.3,0v0c0,0.3,0,0.6,0.1,0.9L63,116.5z M105.5,115.5l-0.3,0l0.2,0l-0.2,0c0-0.3,0-0.6-0.1-0.9
			l0.3-0.1C105.5,114.8,105.5,115.1,105.5,115.5L105.5,115.5z M63.3,114.5l-0.3-0.1c0.1-0.3,0.2-0.7,0.4-1l0.3,0.2
			C63.5,113.9,63.4,114.2,63.3,114.5z M104.7,113.7c-0.2-0.3-0.3-0.5-0.6-0.8l0.3-0.2c0.2,0.3,0.4,0.6,0.6,0.9L104.7,113.7z
			 M64.2,112.8l-0.3-0.2c0.2-0.3,0.5-0.5,0.7-0.7l0.2,0.2C64.7,112.3,64.4,112.6,64.2,112.8z M103.4,112.1c-0.2-0.2-0.5-0.4-0.8-0.6
			l0.2-0.3c0.3,0.2,0.6,0.4,0.8,0.7L103.4,112.1z M65.7,111.5l-0.2-0.3c0.3-0.2,0.6-0.4,0.9-0.6l0.2,0.3
			C66.2,111.1,66,111.3,65.7,111.5z M101.8,110.9c-0.3-0.2-0.6-0.3-0.9-0.5l0.2-0.3c0.3,0.2,0.6,0.3,0.9,0.5L101.8,110.9z
			 M67.4,110.4l-0.2-0.3c0.3-0.2,0.6-0.3,0.9-0.5l0.1,0.3C68,110.1,67.7,110.3,67.4,110.4z M100,110c-0.3-0.1-0.6-0.3-0.9-0.4
			l0.1-0.3c0.3,0.1,0.6,0.3,0.9,0.4L100,110z M69.2,109.6l-0.1-0.3c0.3-0.1,0.6-0.2,1-0.4l0.1,0.3C69.9,109.3,69.6,109.4,69.2,109.6
			z M98.2,109.2c-0.3-0.1-0.6-0.2-1-0.3l0.1-0.3c0.3,0.1,0.7,0.2,1,0.3L98.2,109.2z M71.2,108.9l-0.1-0.3c0.3-0.1,0.6-0.2,1-0.3
			l0.1,0.3C71.8,108.7,71.5,108.8,71.2,108.9z M96.2,108.6c-0.3-0.1-0.6-0.2-1-0.3l0.1-0.3c0.3,0.1,0.7,0.2,1,0.3L96.2,108.6z
			 M73.1,108.3L73,108c0.3-0.1,0.7-0.2,1-0.2l0.1,0.3C73.8,108.2,73.4,108.2,73.1,108.3z M94.3,108.1c-0.3-0.1-0.7-0.1-1-0.2
			l0.1-0.3c0.3,0.1,0.7,0.1,1,0.2L94.3,108.1z M75.1,107.9l-0.1-0.3c0.3-0.1,0.7-0.1,1-0.2l0.1,0.3
			C75.7,107.8,75.4,107.8,75.1,107.9z M92.3,107.7c-0.3-0.1-0.7-0.1-1-0.2l0-0.3c0.3,0.1,0.7,0.1,1,0.2L92.3,107.7z M77.1,107.5
			l0-0.3c0.3,0,0.7-0.1,1-0.1l0,0.3C77.7,107.4,77.4,107.5,77.1,107.5z M90.3,107.4c-0.3,0-0.7-0.1-1-0.1l0-0.3c0.3,0,0.7,0.1,1,0.1
			L90.3,107.4z M79.1,107.3l0-0.3c0.3,0,0.7-0.1,1-0.1l0,0.3C79.8,107.2,79.4,107.3,79.1,107.3z M88.3,107.2c-0.3,0-0.7-0.1-1-0.1
			l0-0.3c0.3,0,0.7,0,1,0.1L88.3,107.2z M81.1,107.1l0-0.3c0.3,0,0.7,0,1-0.1l0,0.3C81.8,107.1,81.5,107.1,81.1,107.1z M86.2,107.1
			c-0.3,0-0.7,0-1,0l0-0.3c0.3,0,0.7,0,1,0L86.2,107.1z M83.2,107l0-0.3c0.3,0,0.7,0,1,0h0v0.3h0C83.8,107,83.5,107,83.2,107z"/>
		<g>
			<path fill="#C49413" d="M84.2,98.8c-14,0-25.4,5.2-25.4,11.6c0,6.4,11.4,11.6,25.4,11.6c14,0,25.4-5.2,25.4-11.6
				C109.6,104,98.2,98.8,84.2,98.8z"/>
			<path fill="#FCD900" d="M84.2,100.7c-11.7,0-21.2,3.9-21.2,8.6s9.5,8.6,21.2,8.6c11.7,0,21.2-3.9,21.2-8.6S95.9,100.7,84.2,100.7
				z"/>
			<path fill="#D8B800" d="M84.2,118.2l0-0.2v-0.2h0c0.3,0,0.7,0,1,0l0,0.3C84.8,118.1,84.5,118.2,84.2,118.2z M83.1,118.1
				c-0.3,0-0.7,0-1,0l0-0.3c0.3,0,0.7,0,1,0L83.1,118.1z M86.2,118.1l0-0.3c0.3,0,0.7,0,1-0.1l0,0.3
				C86.9,118.1,86.5,118.1,86.2,118.1z M81.1,118.1c-0.3,0-0.7,0-1-0.1l0-0.3c0.3,0,0.7,0.1,1,0.1L81.1,118.1z M88.2,118l0-0.3
				c0.3,0,0.7-0.1,1-0.1l0,0.3C88.9,117.9,88.6,118,88.2,118z M79,117.9c-0.3,0-0.7-0.1-1-0.1l0-0.3c0.3,0,0.7,0.1,1,0.1L79,117.9z
				 M90.3,117.8l0-0.3c0.3,0,0.7-0.1,1-0.1l0,0.3C90.9,117.7,90.6,117.7,90.3,117.8z M77,117.6c-0.3,0-0.7-0.1-1-0.2l0.1-0.3
				c0.3,0.1,0.7,0.1,1,0.2L77,117.6z M92.3,117.5l-0.1-0.3c0.3-0.1,0.7-0.1,1-0.2l0.1,0.3C93,117.4,92.6,117.4,92.3,117.5z
				 M75,117.3c-0.3-0.1-0.7-0.1-1-0.2l0.1-0.3c0.3,0.1,0.7,0.1,1,0.2L75,117.3z M94.3,117.1l-0.1-0.3c0.3-0.1,0.7-0.2,1-0.2l0.1,0.3
				C95,116.9,94.6,117,94.3,117.1z M73,116.9c-0.3-0.1-0.7-0.2-1-0.3l0.1-0.3c0.3,0.1,0.6,0.2,1,0.3L73,116.9z M96.3,116.6l-0.1-0.3
				c0.3-0.1,0.7-0.2,1-0.3l0.1,0.3C96.9,116.4,96.6,116.5,96.3,116.6z M71,116.3c-0.3-0.1-0.7-0.2-1-0.3l0.1-0.3
				c0.3,0.1,0.6,0.2,1,0.3L71,116.3z M98.2,116l-0.1-0.3c0.3-0.1,0.6-0.2,0.9-0.4l0.1,0.3C98.9,115.7,98.6,115.9,98.2,116z
				 M69.1,115.6c-0.3-0.1-0.6-0.3-0.9-0.4l0.1-0.3c0.3,0.1,0.6,0.3,0.9,0.4L69.1,115.6z M100.1,115.2l-0.1-0.3
				c0.3-0.1,0.6-0.3,0.9-0.4l0.2,0.3C100.8,114.9,100.4,115.1,100.1,115.2z M67.2,114.7c-0.3-0.2-0.6-0.3-0.9-0.5l0.2-0.3
				c0.3,0.2,0.6,0.3,0.9,0.5L67.2,114.7z M101.9,114.2l-0.2-0.3c0.3-0.2,0.6-0.4,0.8-0.6l0.2,0.3C102.5,113.9,102.2,114,101.9,114.2
				z M65.5,113.6c-0.3-0.2-0.6-0.4-0.8-0.7l0.2-0.3c0.2,0.2,0.5,0.4,0.8,0.6L65.5,113.6z M103.6,113l-0.2-0.2
				c0.3-0.2,0.5-0.5,0.7-0.7l0.3,0.2C104.1,112.5,103.9,112.8,103.6,113z M64,112.2c-0.2-0.3-0.4-0.6-0.6-0.9l0.3-0.2
				c0.2,0.3,0.3,0.5,0.6,0.8L64,112.2z M104.9,111.4l-0.3-0.2c0.2-0.3,0.3-0.6,0.4-0.9l0.3,0.1C105.3,110.8,105.1,111.1,104.9,111.4
				z M63,110.4c-0.1-0.3-0.1-0.7-0.1-1l0.3,0v0c0,0.3,0,0.6,0.1,0.9L63,110.4z M105.5,109.4l-0.3,0l0.2,0l-0.2,0
				c0-0.3,0-0.6-0.1-0.9l0.3-0.1C105.5,108.7,105.5,109,105.5,109.4L105.5,109.4z M63.3,108.4l-0.3-0.1c0.1-0.3,0.2-0.7,0.4-1
				l0.3,0.2C63.5,107.8,63.4,108.1,63.3,108.4z M104.7,107.5c-0.2-0.3-0.3-0.5-0.6-0.8l0.3-0.2c0.2,0.3,0.4,0.6,0.6,0.9L104.7,107.5
				z M64.2,106.7l-0.3-0.2c0.2-0.3,0.5-0.5,0.7-0.7l0.2,0.2C64.7,106.2,64.4,106.5,64.2,106.7z M103.4,106c-0.2-0.2-0.5-0.4-0.8-0.6
				l0.2-0.3c0.3,0.2,0.6,0.4,0.8,0.7L103.4,106z M65.7,105.3l-0.2-0.3c0.3-0.2,0.6-0.4,0.9-0.6l0.2,0.3
				C66.2,105,66,105.2,65.7,105.3z M101.8,104.8c-0.3-0.2-0.6-0.3-0.9-0.5l0.2-0.3c0.3,0.2,0.6,0.3,0.9,0.5L101.8,104.8z
				 M67.4,104.3l-0.2-0.3c0.3-0.2,0.6-0.3,0.9-0.5l0.1,0.3C68,104,67.7,104.1,67.4,104.3z M100,103.9c-0.3-0.1-0.6-0.3-0.9-0.4
				l0.1-0.3c0.3,0.1,0.6,0.3,0.9,0.4L100,103.9z M69.2,103.4l-0.1-0.3c0.3-0.1,0.6-0.2,1-0.4l0.1,0.3
				C69.9,103.2,69.6,103.3,69.2,103.4z M98.2,103.1c-0.3-0.1-0.6-0.2-1-0.3l0.1-0.3c0.3,0.1,0.7,0.2,1,0.3L98.2,103.1z M71.2,102.7
				l-0.1-0.3c0.3-0.1,0.6-0.2,1-0.3l0.1,0.3C71.8,102.5,71.5,102.6,71.2,102.7z M96.2,102.5c-0.3-0.1-0.6-0.2-1-0.3l0.1-0.3
				c0.3,0.1,0.7,0.2,1,0.3L96.2,102.5z M73.1,102.2l-0.1-0.3c0.3-0.1,0.7-0.2,1-0.2l0.1,0.3C73.8,102,73.4,102.1,73.1,102.2z
				 M94.3,102c-0.3-0.1-0.7-0.1-1-0.2l0.1-0.3c0.3,0.1,0.7,0.1,1,0.2L94.3,102z M75.1,101.7l-0.1-0.3c0.3-0.1,0.7-0.1,1-0.2l0.1,0.3
				C75.7,101.6,75.4,101.7,75.1,101.7z M92.3,101.6c-0.3-0.1-0.7-0.1-1-0.2l0-0.3c0.3,0,0.7,0.1,1,0.2L92.3,101.6z M77.1,101.4
				l0-0.3c0.3,0,0.7-0.1,1-0.1l0,0.3C77.7,101.3,77.4,101.4,77.1,101.4z M90.3,101.3c-0.3,0-0.7-0.1-1-0.1l0-0.3
				c0.3,0,0.7,0.1,1,0.1L90.3,101.3z M79.1,101.2l0-0.3c0.3,0,0.7-0.1,1-0.1l0,0.3C79.8,101.1,79.4,101.1,79.1,101.2z M88.3,101.1
				c-0.3,0-0.7,0-1-0.1l0-0.3c0.3,0,0.7,0,1,0.1L88.3,101.1z M81.1,101l0-0.3c0.3,0,0.7,0,1-0.1l0,0.3C81.8,101,81.5,101,81.1,101z
				 M86.2,100.9c-0.3,0-0.7,0-1,0l0-0.3c0.3,0,0.7,0,1,0L86.2,100.9z M83.2,100.9l0-0.3c0.3,0,0.7,0,1,0h0v0.3h0
				C83.8,100.9,83.5,100.9,83.2,100.9z"/>
		</g>
		<g>
			<path fill="#C49413" d="M84.2,92.9c-14,0-25.4,5.2-25.4,11.6c0,6.4,11.4,11.6,25.4,11.6c14,0,25.4-5.2,25.4-11.6
				C109.6,98.1,98.2,92.9,84.2,92.9z"/>
			<path fill="#FCD900" d="M84.2,94.8c-11.7,0-21.2,3.9-21.2,8.6c0,4.8,9.5,8.6,21.2,8.6c11.7,0,21.2-3.9,21.2-8.6
				C105.3,98.7,95.9,94.9,84.2,94.8z"/>
			<path fill="#D8B800" d="M84.2,112.3l0-0.2v-0.2h0c0.3,0,0.7,0,1,0l0,0.3C84.8,112.2,84.5,112.3,84.2,112.3z M83.1,112.2
				c-0.3,0-0.7,0-1,0l0-0.3c0.3,0,0.7,0,1,0L83.1,112.2z M86.2,112.2l0-0.3c0.3,0,0.7,0,1,0l0,0.3C86.9,112.2,86.5,112.2,86.2,112.2
				z M81.1,112.2c-0.3,0-0.7,0-1-0.1l0-0.3c0.3,0,0.7,0,1,0.1L81.1,112.2z M88.2,112.1l0-0.3c0.3,0,0.7-0.1,1-0.1l0,0.3
				C88.9,112,88.6,112.1,88.2,112.1z M79,112c-0.3,0-0.7-0.1-1-0.1l0-0.3c0.3,0,0.7,0.1,1,0.1L79,112z M90.3,111.9l0-0.3
				c0.3,0,0.7-0.1,1-0.1l0,0.3C90.9,111.8,90.6,111.8,90.3,111.9z M77,111.7c-0.3,0-0.7-0.1-1-0.2l0.1-0.3c0.3,0.1,0.7,0.1,1,0.2
				L77,111.7z M92.3,111.6l-0.1-0.3c0.3-0.1,0.7-0.1,1-0.2l0.1,0.3C93,111.5,92.6,111.5,92.3,111.6z M75,111.4
				c-0.3-0.1-0.7-0.1-1-0.2l0.1-0.3c0.3,0.1,0.7,0.1,1,0.2L75,111.4z M94.3,111.2l-0.1-0.3c0.3-0.1,0.7-0.2,1-0.2l0.1,0.3
				C95,111,94.6,111.1,94.3,111.2z M73,111c-0.3-0.1-0.7-0.2-1-0.3l0.1-0.3c0.3,0.1,0.6,0.2,1,0.3L73,111z M96.3,110.7l-0.1-0.3
				c0.3-0.1,0.7-0.2,1-0.3l0.1,0.3C96.9,110.5,96.6,110.6,96.3,110.7z M71,110.4c-0.3-0.1-0.7-0.2-1-0.3l0.1-0.3
				c0.3,0.1,0.6,0.2,1,0.3L71,110.4z M98.2,110.1l-0.1-0.3c0.3-0.1,0.6-0.2,0.9-0.4l0.1,0.3C98.9,109.8,98.6,110,98.2,110.1z
				 M69.1,109.7c-0.3-0.1-0.6-0.3-0.9-0.4l0.1-0.3c0.3,0.1,0.6,0.3,0.9,0.4L69.1,109.7z M100.1,109.3L100,109
				c0.3-0.1,0.6-0.3,0.9-0.4l0.2,0.3C100.8,109,100.4,109.2,100.1,109.3z M67.2,108.8c-0.3-0.2-0.6-0.3-0.9-0.5l0.2-0.3
				c0.3,0.2,0.6,0.3,0.9,0.5L67.2,108.8z M101.9,108.3l-0.2-0.3c0.3-0.2,0.6-0.4,0.8-0.6l0.2,0.3C102.5,108,102.2,108.1,101.9,108.3
				z M65.5,107.7c-0.3-0.2-0.6-0.4-0.8-0.7l0.2-0.2c0.2,0.2,0.5,0.4,0.8,0.6L65.5,107.7z M103.6,107.1l-0.2-0.2
				c0.3-0.2,0.5-0.5,0.7-0.7l0.3,0.2C104.1,106.6,103.9,106.9,103.6,107.1z M64,106.3c-0.2-0.3-0.4-0.6-0.6-0.9l0.3-0.2
				c0.2,0.3,0.3,0.5,0.6,0.8L64,106.3z M104.9,105.5l-0.3-0.2c0.2-0.3,0.3-0.6,0.4-0.9l0.3,0.1C105.3,104.9,105.1,105.2,104.9,105.5
				z M63,104.5c-0.1-0.3-0.1-0.7-0.1-1l0.3,0v0c0,0.3,0,0.6,0.1,0.9L63,104.5z M105.5,103.5l-0.3,0l0.2,0l-0.2,0
				c0-0.3,0-0.6-0.1-0.9l0.3-0.1C105.5,102.8,105.5,103.1,105.5,103.5L105.5,103.5z M63.3,102.5l-0.3-0.1c0.1-0.3,0.2-0.7,0.4-1
				l0.3,0.2C63.5,101.9,63.4,102.2,63.3,102.5z M104.7,101.6c-0.2-0.3-0.3-0.5-0.6-0.8l0.3-0.2c0.2,0.3,0.4,0.6,0.6,0.9L104.7,101.6
				z M64.2,100.8l-0.3-0.2c0.2-0.3,0.5-0.5,0.7-0.7l0.2,0.2C64.7,100.3,64.4,100.5,64.2,100.8z M103.4,100.1
				c-0.2-0.2-0.5-0.4-0.8-0.6l0.2-0.3c0.3,0.2,0.6,0.4,0.8,0.7L103.4,100.1z M65.7,99.4l-0.2-0.3c0.3-0.2,0.6-0.4,0.9-0.6l0.2,0.3
				C66.2,99.1,66,99.3,65.7,99.4z M101.8,98.9c-0.3-0.2-0.6-0.3-0.9-0.5l0.2-0.3c0.3,0.2,0.6,0.3,0.9,0.5L101.8,98.9z M67.4,98.4
				l-0.2-0.3c0.3-0.2,0.6-0.3,0.9-0.5l0.1,0.3C68,98.1,67.7,98.2,67.4,98.4z M100,98c-0.3-0.1-0.6-0.3-0.9-0.4l0.1-0.3
				c0.3,0.1,0.6,0.3,0.9,0.4L100,98z M69.2,97.5l-0.1-0.3c0.3-0.1,0.6-0.2,1-0.4l0.1,0.3C69.9,97.3,69.6,97.4,69.2,97.5z M98.2,97.2
				c-0.3-0.1-0.6-0.2-1-0.3l0.1-0.3c0.3,0.1,0.7,0.2,1,0.3L98.2,97.2z M71.2,96.8L71,96.5c0.3-0.1,0.6-0.2,1-0.3l0.1,0.3
				C71.8,96.6,71.5,96.7,71.2,96.8z M96.2,96.6c-0.3-0.1-0.6-0.2-1-0.3l0.1-0.3c0.3,0.1,0.7,0.2,1,0.3L96.2,96.6z M73.1,96.3L73,96
				c0.3-0.1,0.7-0.2,1-0.2l0.1,0.3C73.8,96.1,73.4,96.2,73.1,96.3z M94.3,96.1c-0.3-0.1-0.7-0.1-1-0.2l0.1-0.3
				c0.3,0.1,0.7,0.1,1,0.2L94.3,96.1z M75.1,95.8L75,95.5c0.3-0.1,0.7-0.1,1-0.2l0.1,0.3C75.7,95.7,75.4,95.8,75.1,95.8z M92.3,95.7
				c-0.3-0.1-0.7-0.1-1-0.2l0-0.3c0.3,0,0.7,0.1,1,0.2L92.3,95.7z M77.1,95.5l0-0.3c0.3-0.1,0.7-0.1,1-0.1l0,0.3
				C77.7,95.4,77.4,95.5,77.1,95.5z M90.3,95.4c-0.3,0-0.7-0.1-1-0.1l0-0.3c0.3,0,0.7,0.1,1,0.1L90.3,95.4z M79.1,95.3l0-0.3
				c0.3,0,0.7-0.1,1-0.1l0,0.3C79.8,95.2,79.4,95.2,79.1,95.3z M88.3,95.2c-0.3,0-0.7,0-1-0.1l0-0.3c0.3,0,0.7,0,1,0.1L88.3,95.2z
				 M81.1,95.1l0-0.3c0.3,0,0.7,0,1-0.1l0,0.3C81.8,95.1,81.5,95.1,81.1,95.1z M86.2,95c-0.3,0-0.7,0-1,0l0-0.3c0.3,0,0.7,0,1,0
				L86.2,95z M83.2,95l0-0.3c0.3,0,0.7,0,1,0h0V95h0C83.8,95,83.5,95,83.2,95z"/>
		</g>
		<g>
			<path fill="#FBCD3B" d="M84.2,84.5c-14,0-25.4,5.2-25.4,11.6c0,6.4,11.4,11.6,25.4,11.6c14,0,25.4-5.2,25.4-11.6
				C109.6,89.7,98.2,84.5,84.2,84.5z"/>
			<g>
				<path fill="#E1B544" d="M104.9,130.4c-1.3,0.8-2.9,1.6-4.6,2.2c-1.4,0.5-3,1-4.6,1.3c-1.5,0.3-3,0.6-4.6,0.8
					c-1.5,0.2-3,0.3-4.6,0.4c-0.7,0-1.5,0-2.3,0c-0.8,0-1.6,0-2.4,0c-1.6-0.1-3.1-0.2-4.6-0.4c-1.6-0.2-3.2-0.5-4.6-0.8
					c-1.7-0.4-3.2-0.8-4.6-1.4c-1.7-0.6-3.3-1.4-4.6-2.2c-2.3-1.4-3.9-3.1-4.5-4.9c0,1.6,0,4.7,0,6.2c0.7,1.7,2.3,3.3,4.5,4.7
					c1.3,0.8,2.9,1.6,4.6,2.2c1.4,0.5,3,1,4.6,1.4c1.5,0.4,3,0.6,4.6,0.9c1.5,0.2,3,0.3,4.6,0.4c0.8,0,1.6,0.1,2.4,0.1
					c0.8,0,1.5,0,2.3,0c1.6-0.1,3.1-0.2,4.6-0.4c1.6-0.2,3.2-0.5,4.6-0.8c1.6-0.4,3.2-0.9,4.6-1.4c1.7-0.6,3.3-1.4,4.6-2.2
					c2.3-1.4,3.9-3,4.6-4.7c0-1.5,0-4.6,0-6.2C108.9,127.3,107.3,128.9,104.9,130.4z"/>
				<path fill="#E1B544" d="M104.9,122.9c-1.3,0.8-2.9,1.5-4.6,2.2c-1.4,0.5-3,1-4.6,1.3c-1.5,0.3-3,0.6-4.6,0.8
					c-1.5,0.2-3,0.3-4.6,0.4c-0.7,0-1.5,0-2.3,0c-0.8,0-1.6,0-2.4-0.1c-1.6-0.1-3.1-0.2-4.6-0.4c-1.6-0.2-3.2-0.5-4.6-0.8
					c-1.7-0.4-3.2-0.8-4.6-1.4c-1.7-0.6-3.3-1.4-4.6-2.2c-2.3-1.4-3.9-3.1-4.5-4.9c0,1.6,0,4.7,0,6.2c0.7,1.7,2.3,3.3,4.5,4.7
					c1.3,0.8,2.9,1.6,4.6,2.2c1.4,0.5,3,1,4.6,1.4c1.5,0.4,3,0.6,4.6,0.9c1.5,0.2,3,0.3,4.6,0.4c0.8,0,1.6,0.1,2.4,0.1
					c0.8,0,1.5,0,2.3-0.1c1.6-0.1,3.1-0.2,4.6-0.4c1.6-0.2,3.2-0.5,4.6-0.8c1.6-0.4,3.2-0.9,4.6-1.4c1.7-0.6,3.3-1.4,4.6-2.2
					c2.3-1.4,3.9-3,4.6-4.7c0-1.5,0-4.7,0-6.3C108.9,119.7,107.3,121.4,104.9,122.9z"/>
				<path fill="#E1B544" d="M104.9,115.8c-1.3,0.8-2.9,1.5-4.6,2.2c-1.4,0.5-3,1-4.6,1.3c-1.5,0.3-3,0.6-4.6,0.8
					c-1.5,0.2-3,0.3-4.6,0.4c-0.7,0-1.5,0-2.3,0c-0.8,0-1.6,0-2.4-0.1c-1.6-0.1-3.1-0.2-4.6-0.4c-1.6-0.2-3.2-0.5-4.6-0.8
					c-1.7-0.4-3.2-0.8-4.6-1.4c-1.7-0.6-3.3-1.4-4.6-2.2c-2.3-1.4-3.9-3.1-4.5-4.9c0,1.6,0,4.7,0,6.2c0.7,1.7,2.3,3.3,4.5,4.7
					c1.3,0.8,2.9,1.6,4.6,2.2c1.4,0.5,3,1,4.6,1.4c1.5,0.3,3,0.6,4.6,0.9c1.5,0.2,3,0.3,4.6,0.4c0.8,0,1.6,0.1,2.4,0.1
					c0.8,0,1.5,0,2.3,0c1.6-0.1,3.1-0.2,4.6-0.4c1.6-0.2,3.2-0.5,4.6-0.8c1.6-0.4,3.2-0.9,4.6-1.4c1.7-0.6,3.3-1.4,4.6-2.2
					c2.3-1.4,3.9-3,4.6-4.7c0-1.5,0-4.6,0-6.2C108.9,112.7,107.3,114.4,104.9,115.8z"/>
				<path fill="#E1B544" d="M104.9,108.8c-1.3,0.8-2.9,1.6-4.6,2.2c-1.4,0.5-3,1-4.6,1.3c-1.5,0.3-3,0.6-4.6,0.8
					c-1.5,0.2-3,0.3-4.6,0.4c-0.7,0-1.5,0-2.3,0c-0.8,0-1.6,0-2.4-0.1c-1.6-0.1-3.1-0.2-4.6-0.4c-1.6-0.2-3.2-0.5-4.6-0.8
					c-1.7-0.4-3.2-0.8-4.6-1.4c-1.7-0.6-3.3-1.4-4.6-2.2c-2.3-1.4-3.9-3.1-4.5-4.9c0,1.6,0,4.7,0,6.2c0.7,1.7,2.3,3.3,4.5,4.7
					c1.3,0.8,2.9,1.6,4.6,2.2c1.4,0.5,3,1,4.6,1.4c1.5,0.3,3,0.6,4.6,0.9c1.5,0.2,3,0.3,4.6,0.4c0.8,0,1.6,0.1,2.4,0.1
					c0.8,0,1.5,0,2.3-0.1c1.6-0.1,3.1-0.2,4.6-0.4c1.6-0.2,3.2-0.5,4.6-0.8c1.6-0.4,3.2-0.9,4.6-1.4c1.7-0.6,3.3-1.4,4.6-2.2
					c2.3-1.4,3.9-3,4.6-4.7c0-1.5,0-4.6,0-6.2C108.9,105.7,107.3,107.4,104.9,108.8z"/>
				<path fill="#E1B544" d="M104.9,101.5c-1.3,0.8-2.9,1.6-4.6,2.2c-1.4,0.5-3,1-4.6,1.3c-1.5,0.3-3,0.6-4.6,0.8
					c-1.5,0.2-3,0.3-4.6,0.4c-0.7,0-1.5,0-2.3,0c-0.8,0-1.6,0-2.4-0.1c-1.6-0.1-3.1-0.2-4.6-0.4c-1.6-0.2-3.2-0.5-4.6-0.8
					c-1.7-0.4-3.2-0.8-4.6-1.4c-1.7-0.6-3.3-1.4-4.6-2.2c-2.3-1.4-3.9-3.1-4.5-4.9c0,1.6,0,4.7,0,6.2c0.7,1.7,2.3,3.3,4.5,4.7
					c1.3,0.8,2.9,1.6,4.6,2.2c1.4,0.5,3,1,4.6,1.4c1.5,0.3,3,0.6,4.6,0.9c1.5,0.2,3,0.3,4.6,0.4c0.8,0,1.6,0.1,2.4,0.1
					c0.8,0,1.5,0,2.3-0.1c1.6-0.1,3.1-0.2,4.6-0.4c1.6-0.2,3.2-0.5,4.6-0.8c1.6-0.4,3.2-0.9,4.6-1.4c1.7-0.6,3.3-1.4,4.6-2.2
					c2.3-1.4,3.9-3,4.6-4.7c0-1.5,0-4.6,0-6.2C108.9,98.4,107.3,100.1,104.9,101.5z"/>
			</g>
		</g>
		<path fill="#E1B544" d="M84.3,104.3L84.3,104.3c-10.9,0-22.5-3.2-22.5-9c0-5.8,11.6-9,22.5-9c10.9,0,22.5,3.2,22.5,9
			C106.8,101.1,95.2,104.3,84.3,104.3z M84.3,88.8c-11.7,0-19.8,3.4-19.8,6.5c0,3.1,8.1,6.5,19.8,6.5c11.7,0,19.8-3.4,19.8-6.5
			C104.1,92.2,95.9,88.8,84.3,88.8z"/>
		<g>
			<path fill="#E1B544" d="M99.9,95.7h-3.6c-0.1,1.2-0.8,2.3-1.6,3l-4.5-0.5c0.9-0.7,1.7-1.8,1.7-2.9c0-1-0.8-1.7-2.4-1.7
				c-1.5,0-2.4,0.6-3.3,1.9c-1.4,1.9-3.3,3.1-7,3.1c-3.4,0-6-1.1-6.8-3h-3.6v-1.7H72c0.1-1.2,0.7-2,1.3-2.5l4.3,0.5
				c-0.4,0.5-1.3,1.3-1.3,2.5c0,1.1,1.1,1.5,2.1,1.5c1.3,0,2.1-0.6,3.3-2.1c1.6-2.1,3.7-2.9,7.2-2.9c3.4,0,6.3,1.1,7.1,3.1h3.9V95.7
				z"/>
		</g>
	</g>
	<g>
		<rect x="56.3" y="103.6" fill="#FFFFFF" width="114.7" height="54.5"/>
		<g>
			<path fill="none" d="M164.8,120.9c-6,0-10.9-4.9-10.9-10.9c0-0.1,0-0.3,0-0.4H73.6c0,0.1,0,0.3,0,0.4c0,6-4.9,10.9-10.9,10.9
				c-0.1,0-0.2,0-0.2,0v20.3c0.1,0,0.2,0,0.2,0c6,0,10.9,4.9,10.9,10.9c0,0.1,0,0.2,0,0.2h80.3c0-0.1,0-0.1,0-0.2
				c0-6,4.9-10.9,10.9-10.9c0,0,0.1,0,0.1,0v-20.2C164.9,120.9,164.8,120.9,164.8,120.9z"/>
			<path fill="#64B56E" d="M154.7,105.7h-82H58.6v14.3v21.8V156h14.2h81.8h14.1v-14.2v-21.7v-14.4H154.7z M164.9,141.1
				c0,0-0.1,0-0.1,0c-6,0-10.9,4.9-10.9,10.9c0,0.1,0,0.1,0,0.2H73.6c0-0.1,0-0.2,0-0.2c0-6-4.9-10.9-10.9-10.9c-0.1,0-0.2,0-0.2,0
				v-20.3c0.1,0,0.2,0,0.2,0c6,0,10.9-4.9,10.9-10.9c0-0.1,0-0.3,0-0.4h80.3c0,0.1,0,0.3,0,0.4c0,6,4.9,10.9,10.9,10.9
				c0,0,0.1,0,0.1,0V141.1z"/>
		</g>
		<g>
			<circle fill="#64B56E" cx="113.7" cy="130.9" r="17.7"/>
			<g>
				<g>
					<path fill="#FFFFFF" d="M111.9,144.7v-3.2c-2.3-0.1-4.5-0.7-5.8-1.5l1-4c1.4,0.8,3.4,1.5,5.6,1.5c1.9,0,3.3-0.7,3.3-2.1
						c0-1.3-1.1-2.1-3.6-3c-3.6-1.2-6.1-2.9-6.1-6.2c0-3,2.1-5.3,5.7-6V117h3.3v3c2.3,0.1,3.8,0.6,4.9,1.1l-1,3.8
						c-0.9-0.4-2.4-1.2-4.9-1.2c-2.2,0-2.9,1-2.9,1.9c0,1.1,1.2,1.8,4.1,2.9c4,1.4,5.7,3.3,5.7,6.4c0,3-2.1,5.6-6.1,6.3v3.5H111.9z"
						/>
				</g>
			</g>
		</g>
	</g>
</g>
</svg>
