<?xml version="1.0" encoding="utf-8"?>
<!-- Generator: Adobe Illustrator 18.0.0, SVG Export Plug-In . SVG Version: 6.00 Build 0)  -->
<!DOCTYPE svg PUBLIC "-//W3C//DTD SVG 1.1//EN" "http://www.w3.org/Graphics/SVG/1.1/DTD/svg11.dtd">
<svg version="1.1" id="Layer_1" xmlns="http://www.w3.org/2000/svg" xmlns:xlink="http://www.w3.org/1999/xlink" x="0px" y="0px"
	 viewBox="0 0 207.4 208.7" enable-background="new 0 0 207.4 208.7" xml:space="preserve">
<g>
	<circle fill="#EC6659" cx="103.7" cy="104.3" r="88.8"/>
	<g>
		<g>
			<path fill="#ABB82E" d="M179.1,78.2H28.3v92H98c1.1,1.4,3.3,2.4,5.7,2.4c2.5,0,4.6-1,5.7-2.4h69.6V78.2z"/>
			<rect x="31.8" y="79.8" fill="#C9BBA5" width="143.9" height="86.9"/>
			<path fill="#F0910E" d="M71.8,159.8c0,0,1.8,10.5-1.4,17.6l6.4-4.6l4.3,4.8c0,0,2.7-8,0.7-18.2L71.8,159.8z"/>
			<path fill="#D8CAAD" d="M31.8,78.1v88.9c0,0,34.6-13.3,71.5-0.2V78.1C103.3,78.1,62.7,73.9,31.8,78.1z"/>
			<path fill="#E6E1CB" d="M34.2,76.6v88.9c0,0,38.9-13,69.1,1.2l0.1-88.6C103.4,78.1,46.9,70.7,34.2,76.6z"/>
			<path fill="#F3EDDF" d="M40.6,65.5l0.2,88.4c0,0,42.8-3.4,62.5,12.8l0-88.6C103.2,78.1,70.3,60.9,40.6,65.5z"/>
			<path fill="#FFFFFD" d="M53.9,58.2v89.6c0,0,28-3.9,49.4,18.9l0.2-88.8C103.5,77.9,85.8,55.7,53.9,58.2z"/>
		</g>
		<g>
			<path fill="#D8CAAD" d="M174.8,78.5v88.9c0,0-35-13.7-71.6-0.6l0.4-88.2C103.6,78.5,143.9,74.3,174.8,78.5z"/>
			<path fill="#E6E1CB" d="M172.7,77v88.9c0,0-39.2-13.4-69.4,0.8l0.2-88.2C103.5,78.5,159.9,71.1,172.7,77z"/>
			<path fill="#F3EDDF" d="M166,65.8l-0.2,88.4c0,0-42.8-3.7-62.5,12.5l0.1-88.6C103.4,78.1,136.3,61.2,166,65.8z"/>
		</g>
	</g>
</g>
</svg>
