<?xml version="1.0" encoding="utf-8"?>
<!-- Generator: Adobe Illustrator 18.0.0, SVG Export Plug-In . SVG Version: 6.00 Build 0)  -->
<!DOCTYPE svg PUBLIC "-//W3C//DTD SVG 1.1//EN" "http://www.w3.org/Graphics/SVG/1.1/DTD/svg11.dtd">
<svg version="1.1" id="Layer_1" xmlns="http://www.w3.org/2000/svg" xmlns:xlink="http://www.w3.org/1999/xlink" x="0px" y="0px"
	 viewBox="0 0 227.3 228.7" enable-background="new 0 0 227.3 228.7" xml:space="preserve">
<g>
	<g>
		<circle fill="#EC6659" cx="113.7" cy="114.3" r="108.7"/>
		<g>
			<path fill="#EA514A" d="M113.7,5.6v217.4c60,0,108.7-48.7,108.7-108.7C222.4,54.3,173.7,5.6,113.7,5.6z"/>
		</g>
	</g>
	<g>
		<g>
			<path fill="#313F51" d="M148.5,88.3h-68c-3.5,0-6.3,2.8-6.3,6.3v37.5c0,3.5,2.8,6.3,6.3,6.3h68c3.5,0,6.3-2.8,6.3-6.3V94.6
				C154.9,91.1,152,88.3,148.5,88.3z"/>
			<rect x="79" y="93.2" fill="#4C657C" width="70.9" height="40.4"/>
			<rect x="79" y="130.4" fill="#4C96D2" width="70.9" height="3.2"/>
			<polygon opacity="9.000000e-02" fill="#010202" points="150,93.2 79,133.6 150,133.6 			"/>
		</g>
		<rect x="107.7" y="135.9" fill="#313F51" width="13.7" height="10.7"/>
		<path fill="#313F51" d="M130.2,151.9H98.8c0-3.7,3-6.6,6.6-6.6h18.2C127.2,145.3,130.2,148.3,130.2,151.9z"/>
		<rect x="91.7" y="88.3" opacity="9.000000e-02" fill="#010202" width="52.7" height="38.6"/>
		<g>
			<rect x="88.1" y="44.2" fill="#ECF0F0" width="52.7" height="79.7"/>
			<rect x="91.7" y="47.2" fill="#4C96D2" width="45.7" height="10.9"/>
			<rect x="91.7" y="62.6" fill="#BEC4C9" width="16" height="19.3"/>
			<rect x="112" y="78.7" fill="#BEC4C9" width="25.4" height="3.2"/>
			<rect x="112" y="73.4" fill="#BEC4C9" width="25.4" height="3.2"/>
			<rect x="112" y="68" fill="#BEC4C9" width="25.4" height="3.2"/>
			<rect x="112" y="62.6" fill="#BEC4C9" width="25.4" height="3.2"/>
			<rect x="99.7" y="88.3" fill="#ED6D6F" width="30.6" height="4.9"/>
			<rect x="97" y="96" fill="#BEC4C9" width="35.9" height="21.5"/>
		</g>
		<path fill="none" stroke="#313F51" stroke-width="1.5621" stroke-miterlimit="10" d="M74.1,116H59.9c-2.2,0-4,1.8-4,4v32.3
			c0,2.2,1.8,4,4,4h39.6c2.2,0,4,1.8,4,4v5.5"/>
		<g>
			<path fill="#313F51" d="M130.2,184.4H75.3c-1.1,0-2-0.9-2-2V164c0-1.1,0.9-2,2-2h54.9c1.1,0,2,0.9,2,2v18.5
				C132.1,183.6,131.2,184.4,130.2,184.4z"/>
			<g>
				<rect x="76.7" y="167.9" fill="#4C657C" width="3.8" height="3.7"/>
				<rect x="82.1" y="167.9" fill="#4C657C" width="3.8" height="3.7"/>
				<rect x="87.4" y="167.9" fill="#4C657C" width="3.8" height="3.7"/>
				<rect x="92.8" y="167.9" fill="#4C657C" width="3.8" height="3.7"/>
				<rect x="98.2" y="167.9" fill="#4C657C" width="3.8" height="3.7"/>
				<rect x="103.6" y="167.9" fill="#4C657C" width="3.8" height="3.7"/>
				<rect x="108.9" y="167.9" fill="#4C657C" width="3.8" height="3.7"/>
				<rect x="114.3" y="167.9" fill="#4C657C" width="3.8" height="3.7"/>
				<rect x="119.7" y="167.9" fill="#4C657C" width="3.8" height="3.7"/>
				<rect x="125.1" y="167.9" fill="#4C657C" width="3.8" height="3.7"/>
			</g>
			<g>
				<rect x="76.7" y="173.4" fill="#4C657C" width="3.8" height="3.7"/>
				<rect x="82.1" y="173.4" fill="#4C657C" width="3.8" height="3.7"/>
				<rect x="87.4" y="173.4" fill="#4C657C" width="3.8" height="3.7"/>
				<rect x="92.8" y="173.4" fill="#4C657C" width="3.8" height="3.7"/>
				<rect x="98.2" y="173.4" fill="#4C657C" width="3.8" height="3.7"/>
				<rect x="103.6" y="173.4" fill="#4C657C" width="3.8" height="3.7"/>
				<rect x="108.9" y="173.4" fill="#4C657C" width="3.8" height="3.7"/>
				<rect x="114.3" y="173.4" fill="#4C657C" width="3.8" height="3.7"/>
				<rect x="119.7" y="173.4" fill="#4C657C" width="3.8" height="3.7"/>
				<rect x="125.1" y="173.4" fill="#4C657C" width="3.8" height="3.7"/>
			</g>
			<rect x="76.7" y="164.3" fill="#4C657C" width="3.8" height="1.8"/>
			<rect x="82.1" y="164.3" fill="#4C657C" width="3.8" height="1.8"/>
			<rect x="87.4" y="164.3" fill="#4C657C" width="3.8" height="1.8"/>
			<rect x="92.8" y="164.3" fill="#4C657C" width="3.8" height="1.8"/>
			<rect x="98.2" y="164.3" fill="#4C657C" width="3.8" height="1.8"/>
			<rect x="103.6" y="164.3" fill="#4C657C" width="3.8" height="1.8"/>
			<rect x="108.9" y="164.3" fill="#4C657C" width="3.8" height="1.8"/>
			<rect x="114.3" y="164.3" fill="#4C657C" width="3.8" height="1.8"/>
			<rect x="119.7" y="164.3" fill="#4C657C" width="3.8" height="1.8"/>
			<rect x="125.1" y="164.3" fill="#4C657C" width="3.8" height="1.8"/>
			<g>
				<rect x="88.4" y="178.8" fill="#4C657C" width="29.8" height="3.7"/>
				<rect x="83.1" y="178.8" fill="#4C657C" width="3.8" height="3.7"/>
				<rect x="76.7" y="178.8" fill="#4C657C" width="4.8" height="3.7"/>
				<rect x="119.7" y="178.8" fill="#4C657C" width="9.2" height="3.7"/>
			</g>
			<path opacity="0.15" fill="#010202" d="M131.4,162.3l-57.4,21.9c0.2,0.2,0.6,0.3,0.9,0.3h55.6c0.9,0,1.6-0.7,1.6-1.6v-19.2
				C132.1,163.1,131.8,162.6,131.4,162.3z"/>
		</g>
		<path fill="none" stroke="#313F51" stroke-width="1.5621" stroke-miterlimit="10" d="M147.1,169.4v-9.7v-9c0-2.2,1.8-4,4-4h16.3
			c2.2,0,4-1.8,4-4V120c0-2.2-1.8-4-4-4h-13.5"/>
		<g>
			<path fill="#313F51" d="M152.7,170.4c0-2-1.6-3.5-3.5-3.5h-4.1c-2,0-3.5,1.6-3.5,3.5v5.3c0,3.1,2.5,5.6,5.6,5.6s5.6-2.5,5.6-5.6
				V170.4z"/>
			<line fill="none" stroke="#4C657C" stroke-width="1.5621" stroke-miterlimit="10" x1="147.1" y1="166.9" x2="147.1" y2="174.5"/>
			
				<line fill="none" stroke="#4C657C" stroke-width="2.7336" stroke-linecap="round" stroke-miterlimit="10" x1="147.1" y1="169.2" x2="147.1" y2="171.4"/>
		</g>
	</g>
</g>
</svg>
