<?xml version="1.0" encoding="utf-8"?>
<!-- Generator: Adobe Illustrator 18.0.0, SVG Export Plug-In . SVG Version: 6.00 Build 0)  -->
<!DOCTYPE svg PUBLIC "-//W3C//DTD SVG 1.1//EN" "http://www.w3.org/Graphics/SVG/1.1/DTD/svg11.dtd">
<svg version="1.1" id="Layer_1" xmlns="http://www.w3.org/2000/svg" xmlns:xlink="http://www.w3.org/1999/xlink" x="0px" y="0px"
	 viewBox="0 0 227.3 228.7" enable-background="new 0 0 227.3 228.7" xml:space="preserve">
<g>
	<g>
		<path fill="#ED734E" d="M113.5,124.2c-0.1,0-0.2,0-0.4-0.1l-46.5-15.4v42.4c0,1.7,1.4,3.1,3.1,3.1h87.8c1.7,0,3.1-1.4,3.1-3.1v-42
			l-46.8,14.9C113.8,124.1,113.6,124.2,113.5,124.2z"/>
		<path fill="#E34815" d="M160.6,106.7V89.1c0-1.7-1.4-3.1-3.1-3.1H69.8c-1.7,0-3.1,1.4-3.1,3.1v17.2l46.8,15.5L160.6,106.7z"/>
		<path fill="#D83C38" d="M113.5,121.8l-46.8-15.5v2.4l46.5,15.4c0.1,0,0.2,0.1,0.4,0.1c0.1,0,0.2,0,0.3-0.1l46.8-14.9v-2.4
			L113.5,121.8z"/>
	</g>
	<g>
		<path fill="#E34815" d="M98.9,80.5c0-1,0.8-1.8,1.8-1.8h25.9c1,0,1.8,0.8,1.8,1.8V91h4.2V80.5c0-3.4-2.7-6.1-6-6.1h-25.9
			c-3.3,0-6,2.7-6,6.1V91h4.2V80.5z"/>
	</g>
	<g>
		<path fill="#D83C38" d="M117.3,118.3H110c-1.7,0-3.1,1.4-3.1,3.1v2.1c0,1.7,1.4,3.1,3.1,3.1h7.2c1.7,0,3.1-1.4,3.1-3.1v-2.1
			C120.4,119.7,119,118.3,117.3,118.3z M119.5,123.3c0,1.4-1.1,2.5-2.5,2.5h-6.5c-1.4,0-2.5-1.1-2.5-2.5v-1.7c0-1.4,1.1-2.5,2.5-2.5
			h6.5c1.4,0,2.5,1.1,2.5,2.5V123.3z"/>
		<path fill="#F5A998" d="M117,119.1h-6.5c-1.4,0-2.5,1.1-2.5,2.5v1.7c0,1.4,1.1,2.5,2.5,2.5h6.5c1.4,0,2.5-1.1,2.5-2.5v-1.7
			C119.5,120.2,118.3,119.1,117,119.1z"/>
	</g>
</g>
</svg>
