<?xml version="1.0" encoding="utf-8"?>
<!-- Generator: Adobe Illustrator 18.0.0, SVG Export Plug-In . SVG Version: 6.00 Build 0)  -->
<!DOCTYPE svg PUBLIC "-//W3C//DTD SVG 1.1//EN" "http://www.w3.org/Graphics/SVG/1.1/DTD/svg11.dtd">
<svg version="1.1" id="Layer_1" xmlns="http://www.w3.org/2000/svg" xmlns:xlink="http://www.w3.org/1999/xlink" x="0px" y="0px"
	 viewBox="0 0 227.3 228.7" enable-background="new 0 0 227.3 228.7" xml:space="preserve">
<g>
	<polygon fill="#FFFFFF" points="42.3,65.9 42.3,187.1 165.2,187.1 185,167.4 185,65.9 	"/>
	<rect x="42.3" y="64.1" fill="#F4D45A" width="142.7" height="23"/>
	<g>
		<path fill="none" stroke="#757475" stroke-width="2.6419" stroke-miterlimit="10" d="M60.5,69.6c-3,0-5.5-2.5-5.5-5.5
			c0-3,2.5-5.5,5.5-5.5c3,0,5.5,2.5,5.5,5.5"/>
		<path fill="none" stroke="#757475" stroke-width="2.6419" stroke-miterlimit="10" d="M78.2,69.6c-3,0-5.5-2.5-5.5-5.5
			c0-3,2.5-5.5,5.5-5.5c3,0,5.5,2.5,5.5,5.5"/>
		<path fill="none" stroke="#757475" stroke-width="2.6419" stroke-miterlimit="10" d="M95.9,69.6c-3,0-5.5-2.5-5.5-5.5
			c0-3,2.5-5.5,5.5-5.5c3,0,5.5,2.5,5.5,5.5"/>
		<path fill="none" stroke="#757475" stroke-width="2.6419" stroke-miterlimit="10" d="M113.7,69.6c-3,0-5.5-2.5-5.5-5.5
			c0-3,2.5-5.5,5.5-5.5c3,0,5.5,2.5,5.5,5.5"/>
		<path fill="none" stroke="#757475" stroke-width="2.6419" stroke-miterlimit="10" d="M131.4,69.6c-3,0-5.5-2.5-5.5-5.5
			c0-3,2.5-5.5,5.5-5.5c3,0,5.5,2.5,5.5,5.5"/>
		<path fill="none" stroke="#757475" stroke-width="2.6419" stroke-miterlimit="10" d="M149.1,69.6c-3,0-5.5-2.5-5.5-5.5
			c0-3,2.5-5.5,5.5-5.5c3,0,5.5,2.5,5.5,5.5"/>
		<path fill="none" stroke="#757475" stroke-width="2.6419" stroke-miterlimit="10" d="M166.8,69.6c-3,0-5.5-2.5-5.5-5.5
			c0-3,2.5-5.5,5.5-5.5c3,0,5.5,2.5,5.5,5.5"/>
		<path fill="none" stroke="#757475" stroke-width="3.5226" stroke-miterlimit="10" d="M87.2,51.3"/>
		<path fill="none" stroke="#757475" stroke-width="3.5226" stroke-miterlimit="10" d="M97,41.5"/>
	</g>
	<g>
		<rect x="107.6" y="99" fill="#DFDFDF" width="12.1" height="9"/>
		<rect x="125.8" y="99" fill="#DFDFDF" width="12.1" height="9"/>
		<rect x="144" y="99" fill="#DFDFDF" width="12.1" height="9"/>
		<rect x="162.2" y="99" fill="#DFDFDF" width="12.1" height="9"/>
		<rect x="53" y="115" fill="#EC6659" width="12.1" height="9"/>
		<rect x="71.2" y="115" fill="#EC6659" width="12.1" height="9"/>
		<rect x="89.4" y="115" fill="#DFDFDF" width="12.1" height="9"/>
		<rect x="107.6" y="115" fill="#DFDFDF" width="12.1" height="9"/>
		<rect x="125.8" y="115" fill="#DFDFDF" width="12.1" height="9"/>
		<rect x="144" y="115" fill="#DFDFDF" width="12.1" height="9"/>
		<rect x="162.2" y="115" fill="#DFDFDF" width="12.1" height="9"/>
		<rect x="53" y="131" fill="#EC6659" width="12.1" height="9"/>
		<rect x="71.2" y="131" fill="#EC6659" width="12.1" height="9"/>
		<rect x="89.4" y="131" fill="#DFDFDF" width="12.1" height="9"/>
		<rect x="107.6" y="131" fill="#DFDFDF" width="12.1" height="9"/>
		<rect x="125.8" y="131" fill="#DFDFDF" width="12.1" height="9"/>
		<rect x="144" y="131" fill="#DFDFDF" width="12.1" height="9"/>
		<rect x="162.2" y="131" fill="#DFDFDF" width="12.1" height="9"/>
		<rect x="53" y="146.9" fill="#EC6659" width="12.1" height="9"/>
		<rect x="71.2" y="146.9" fill="#EC6659" width="12.1" height="9"/>
		<rect x="89.4" y="146.9" fill="#DFDFDF" width="12.1" height="9"/>
		<rect x="107.6" y="146.9" fill="#DFDFDF" width="12.1" height="9"/>
		<rect x="125.8" y="146.9" fill="#DFDFDF" width="12.1" height="9"/>
		<rect x="144" y="146.9" fill="#DFDFDF" width="12.1" height="9"/>
		<rect x="162.2" y="146.9" fill="#DFDFDF" width="12.1" height="9"/>
		<rect x="53" y="162.9" fill="#EC6659" width="12.1" height="9"/>
		<rect x="71.2" y="162.9" fill="#EC6659" width="12.1" height="9"/>
		<rect x="89.4" y="162.9" fill="#DFDFDF" width="12.1" height="9"/>
		<rect x="107.6" y="162.9" fill="#DFDFDF" width="12.1" height="9"/>
		<rect x="125.8" y="162.9" fill="#DFDFDF" width="12.1" height="9"/>
	</g>
	<polyline fill="#DFDFDF" points="165.2,187.1 165.2,167.4 185,167.4 	"/>
</g>
</svg>
