<?xml version="1.0" encoding="utf-8"?>
<!-- Generator: Adobe Illustrator 18.0.0, SVG Export Plug-In . SVG Version: 6.00 Build 0)  -->
<!DOCTYPE svg PUBLIC "-//W3C//DTD SVG 1.1//EN" "http://www.w3.org/Graphics/SVG/1.1/DTD/svg11.dtd">
<svg version="1.1" id="Layer_1" xmlns="http://www.w3.org/2000/svg" xmlns:xlink="http://www.w3.org/1999/xlink" x="0px" y="0px"
	 viewBox="0 0 227.3 228.7" enable-background="new 0 0 227.3 228.7" xml:space="preserve">
<g>
	<g>
		<g>
			<path fill="#CCCCCB" d="M91.9,62.8c0,5.5-5.4,8.3-1.3,8.3h65.5c0,0,0-4.1,0-8.3v-0.1c0-4.1-2.4-6.7-6.6-6.7H90.6
				C86.5,56,91.9,57,91.9,62.8L91.9,62.8z"/>
		</g>
		<g>
			<path fill="#EBEBEB" d="M143.4,56H86.1c-3.3,0-7.7,1.9-7.7,5.2v76.9v5h7.7h57.3c3.3,0,5.6-1.7,5.6-5V61.3V56H143.4z"/>
		</g>
		<g>
			<path fill="#CCCCCB" d="M136.3,136.7c0,5.5,6.8,6.5,2.6,6.5H80c-4.1,0-8.7-2.3-8.7-6.5v-0.1c0-4.1,4.6-7.7,8.7-7.7h58.9
				C143,128.9,136.3,130.9,136.3,136.7L136.3,136.7z"/>
		</g>
	</g>
	<g>
		<g>
			<polygon fill="#72C3B5" points="127.5,172.6 120.4,166.2 113.3,172.6 113.3,143.2 127.5,143.2 			"/>
		</g>
		<g>
			<circle fill="#B4DBCD" cx="120.7" cy="144.2" r="10.9"/>
		</g>
	</g>
	<g>
		<g>
			<path fill="#ED6C6A" d="M135.6,73.5H93.1c-0.8,0-1.5-0.4-1.5-1.2c0-0.8,0.7-1.2,1.5-1.2h42.4c0.8,0,1.5,0.4,1.5,1.2
				C137.1,73.1,136.4,73.5,135.6,73.5z"/>
		</g>
		<g>
			<path fill="#ED6C6A" d="M135.6,82.2H93.1c-0.8,0-1.5-0.8-1.5-1.6c0-0.8,0.7-1.6,1.5-1.6h42.4c0.8,0,1.5,0.8,1.5,1.6
				C137.1,81.4,136.4,82.2,135.6,82.2z"/>
		</g>
		<g>
			<path fill="#ED6C6A" d="M135.6,94.1H93.1c-0.8,0-1.5-0.4-1.5-1.2c0-0.8,0.7-1.2,1.5-1.2h42.4c0.8,0,1.5,0.4,1.5,1.2
				C137.1,93.7,136.4,94.1,135.6,94.1z"/>
		</g>
		<g>
			<path fill="#ED6C6A" d="M135.6,103.6H93.1c-0.8,0-1.5-0.8-1.5-1.6c0-0.8,0.7-1.6,1.5-1.6h42.4c0.8,0,1.5,0.8,1.5,1.6
				C137.1,102.8,136.4,103.6,135.6,103.6z"/>
		</g>
		<g>
			<path fill="#ED6C6A" d="M135.6,113.9H93.1c-0.8,0-1.5-0.8-1.5-1.6c0-0.8,0.7-1.6,1.5-1.6h42.4c0.8,0,1.5,0.8,1.5,1.6
				C137.1,113.1,136.4,113.9,135.6,113.9z"/>
		</g>
	</g>
</g>
</svg>
