<?xml version="1.0" encoding="utf-8"?>
<!-- Generator: Adobe Illustrator 18.0.0, SVG Export Plug-In . SVG Version: 6.00 Build 0)  -->
<!DOCTYPE svg PUBLIC "-//W3C//DTD SVG 1.1//EN" "http://www.w3.org/Graphics/SVG/1.1/DTD/svg11.dtd">
<svg version="1.1" id="Layer_1" xmlns="http://www.w3.org/2000/svg" xmlns:xlink="http://www.w3.org/1999/xlink" x="0px" y="0px"
	 viewBox="0 0 284.7 286.3" enable-background="new 0 0 284.7 286.3" xml:space="preserve">
<g>
	<g>
		<circle fill="#92CCB9" cx="142.3" cy="143.2" r="134.9"/>
		<g>
			<path fill="#74AC99" d="M142.3,8.2v269.9c74.5,0,134.9-60.4,134.9-134.9C277.3,68.6,216.9,8.2,142.3,8.2z"/>
		</g>
	</g>
	<g>
		<path fill="#E2614A" d="M89.6,66.6c-2.2,0-3.9,1.8-3.9,3.9v155.2c0,2.2,1.8,3.9,3.9,3.9H197c2.2,0,3.9-1.8,3.9-3.9V70.6
			c0-2.2-1.8-3.9-3.9-3.9H89.6z"/>
		<rect x="92.2" y="75.9" fill="#FFFFFF" width="102.2" height="144.5"/>
		<g>
			<g>
				<rect x="105.2" y="189.3" fill="#D3D1CE" width="76.2" height="2.3"/>
				<rect x="105.2" y="195" fill="#D3D1CE" width="76.2" height="2.3"/>
				<rect x="105.2" y="200.7" fill="#D3D1CE" width="38.1" height="2.3"/>
			</g>
		</g>
		<g>
			<g>
				<rect x="105.2" y="172.3" fill="#D3D1CE" width="76.2" height="2.3"/>
				<rect x="105.2" y="177.9" fill="#D3D1CE" width="76.2" height="2.3"/>
				<rect x="105.2" y="183.6" fill="#D3D1CE" width="75.9" height="2.3"/>
			</g>
		</g>
		<g>
			<g>
				<g>
					<rect x="125.6" y="101.9" fill="#D3D1CE" width="55.5" height="2.5"/>
					<rect x="125.6" y="118.6" fill="#D3D1CE" width="55.5" height="2.5"/>
					<rect x="125.6" y="135.4" fill="#D3D1CE" width="55.5" height="2.5"/>
					<rect x="125.6" y="152.1" fill="#D3D1CE" width="55.5" height="2.5"/>
				</g>
			</g>
			<g>
				<g>
					<path fill="#D3D1CE" d="M112.2,109.9c-3.7,0-6.7-3-6.7-6.7c0-3.7,3-6.7,6.7-6.7c3.7,0,6.7,3,6.7,6.7
						C119,106.8,116,109.9,112.2,109.9z M112.2,97.7c-3,0-5.4,2.4-5.4,5.4c0,3,2.4,5.4,5.4,5.4c3,0,5.4-2.4,5.4-5.4
						C117.6,100.2,115.2,97.7,112.2,97.7z"/>
					<path fill="#D3D1CE" d="M112.2,126.6c-3.7,0-6.7-3-6.7-6.7c0-3.7,3-6.7,6.7-6.7c3.7,0,6.7,3,6.7,6.7
						C119,123.6,116,126.6,112.2,126.6z M112.2,114.5c-3,0-5.4,2.4-5.4,5.4c0,3,2.4,5.4,5.4,5.4c3,0,5.4-2.4,5.4-5.4
						C117.6,116.9,115.2,114.5,112.2,114.5z"/>
					<path fill="#D3D1CE" d="M112.2,143.4c-3.7,0-6.7-3-6.7-6.7c0-3.7,3-6.7,6.7-6.7c3.7,0,6.7,3,6.7,6.7
						C119,140.3,116,143.4,112.2,143.4z M112.2,131.2c-3,0-5.4,2.4-5.4,5.4c0,3,2.4,5.4,5.4,5.4c3,0,5.4-2.4,5.4-5.4
						C117.6,133.6,115.2,131.2,112.2,131.2z"/>
					<path fill="#D3D1CE" d="M112.2,160.1c-3.7,0-6.7-3-6.7-6.7c0-3.7,3-6.7,6.7-6.7c3.7,0,6.7,3,6.7,6.7
						C119,157.1,116,160.1,112.2,160.1z M112.2,148c-3,0-5.4,2.4-5.4,5.4c0,3,2.4,5.4,5.4,5.4c3,0,5.4-2.4,5.4-5.4
						C117.6,150.4,115.2,148,112.2,148z"/>
				</g>
			</g>
			<polygon fill="#F08464" points="108,118.7 109.1,117.5 112.3,120.8 118.9,114.2 120.1,115.3 112.3,123.1 			"/>
		</g>
		<g>
			<path fill="#DFDDDB" d="M152.1,66.9c0-4.8-3.9-8.8-8.8-8.8c-4.8,0-8.8,3.9-8.8,8.8h-11.1v18h39.7v-18H152.1z M143.3,63.9
				c1.6,0,3,1.3,3,3c0,1.6-1.3,3-3,3c-1.6,0-3-1.3-3-3C140.3,65.3,141.7,63.9,143.3,63.9z"/>
			<path fill="#D3D1CE" d="M152.1,66.9c0-4.8-3.9-8.8-8.8-8.8c-4.8,0-8.8,3.9-8.8,8.8h-11.1v9h39.7v-9H152.1z M143.3,63.9
				c1.6,0,3,1.3,3,3c0,1.6-1.3,3-3,3c-1.6,0-3-1.3-3-3C140.3,65.3,141.7,63.9,143.3,63.9z"/>
			<rect x="123.5" y="74" fill="#FFFFFF" width="39.7" height="1.9"/>
			<rect x="123.5" y="75.9" fill="#D3D1CE" width="39.7" height="1.9"/>
		</g>
	</g>
</g>
</svg>
