<?xml version="1.0" encoding="utf-8"?>
<!-- Generator: Adobe Illustrator 18.0.0, SVG Export Plug-In . SVG Version: 6.00 Build 0)  -->
<!DOCTYPE svg PUBLIC "-//W3C//DTD SVG 1.1//EN" "http://www.w3.org/Graphics/SVG/1.1/DTD/svg11.dtd">
<svg version="1.1" id="Layer_1" xmlns="http://www.w3.org/2000/svg" xmlns:xlink="http://www.w3.org/1999/xlink" x="0px" y="0px"
	 viewBox="0 0 207.4 208.7" enable-background="new 0 0 207.4 208.7" xml:space="preserve">
<g>
	<circle fill="#FED063" cx="113.6" cy="99.9" r="88.8"/>
	<g>
		<path fill="#64C0D3" d="M121.8,127.8c-0.3-2.1-0.8-4.2-1.5-6.2c-1.5-4.5-4.1-8.8-7-12.4c0,0,0,0,0,0c0,0,0,0-0.1-0.1c0,0,0,0,0,0
			c-4.1-4.4-9.1-8.1-14.8-10.1c-3.7-1.5-7.6-2.1-11.5-2.4c-0.3,0-0.5,0-0.8,0c-3.8,0-7.5,0-11.3,0c-3.7,0-7.5,0-11.2,0v32.1
			c3.5,0.2,6.2,3,6.2,6.6c0,3.5-2.7,6.4-6.2,6.6v44.8c0,0,0,0,0,0c3.1-2.1,6.1-4.3,9.2-6.4c2.3-1.6,4.6-3.2,6.9-4.8
			c0.3-0.2,0.6-0.4,1-0.4c0.3,0,0.6,0,1,0c0.6,0,1.3,0,1.9,0c0.2,0,0.4,0,0.6,0c1.9,0,3.8-0.1,5.7-0.3c4.2-0.5,8.3-1.7,12.1-3.6
			c11.4-5.6,19.5-17.5,20.2-30.1C122.3,136.6,122.4,132.2,121.8,127.8z"/>
		<g>
			<g>
				<path fill="#79CBE5" d="M28.8,99.1c-5.7,2-10.7,5.7-14.8,10.1c0,0,0,0,0,0c0,0,0,0-0.1,0c0,0,0,0,0,0c-2.9,3.6-5.6,7.9-7,12.4
					c-2.2,6.2-2.1,12.9-1.8,19.4c0.7,12.6,8.8,24.5,20.2,30.1c5.4,2.8,11.6,4,17.7,3.9c4.4,0.1,8.8-0.1,13.3,0.1
					c-2.6,7.5-5.5,15-8.3,22.5c5.2-3.6,10.4-7.2,15.6-10.8v-44.8v-13.1V96.7c-7.7,0-15.4,0-23.1,0C36.5,97,32.5,97.6,28.8,99.1z"/>
			</g>
			<g>
				<circle fill="#FFFFFF" cx="41.4" cy="135.4" r="6.6"/>
				<g>
					<path fill="#FFFFFF" d="M63.3,128.8c-3.6,0-6.6,2.9-6.6,6.6c0,3.6,2.9,6.6,6.6,6.6c0.1,0,0.2,0,0.4,0v-13.1
						C63.5,128.8,63.4,128.8,63.3,128.8z"/>
					<path fill="#FFFFFF" d="M69.9,135.4c0-3.5-2.7-6.4-6.2-6.6v13.1C67.1,141.7,69.9,138.9,69.9,135.4z"/>
				</g>
				<circle fill="#FFFFFF" cx="85.2" cy="135.4" r="6.6"/>
			</g>
		</g>
		<g>
			<g>
				<g>
					<path fill="#B9312E" d="M173.2,73.2c5.7,2,10.7,5.7,14.8,10.1c0,0,0,0,0,0c0,0,0,0,0.1,0c0,0,0,0,0,0c2.9,3.6,5.6,7.9,7,12.4
						c2.2,6.2,2.1,12.9,1.8,19.4c-0.7,12.6-8.8,24.5-20.2,30.1c-5.4,2.8-11.6,4-17.7,3.9c-4.4,0.1-8.8-0.1-13.3,0.1
						c2.6,7.5,5.5,15,8.3,22.5c-5.2-3.6-10.4-7.2-15.6-10.8v-44.8v-13.1V70.7c7.7,0,15.4,0,23.1,0C165.5,71,169.5,71.6,173.2,73.2z"
						/>
					<g>
						<path fill="#D83C38" d="M138.4,102.8V70.7c-3.7,0-7.5,0-11.2,0c-3.8,0-7.5,0-11.3,0c-0.3,0-0.5,0-0.8,0
							c-3.9,0.3-7.9,0.9-11.5,2.4c-5.7,2-10.7,5.7-14.8,10.1c0,0,0,0,0,0c0,0,0,0-0.1,0.1c0,0,0,0,0,0c-2.8,3.4-5.3,7.4-6.8,11.6
							c2.4,0,4.9,0,7.3,0c0.3,0,0.5,0,0.8,0c3.9,0.3,7.9,0.9,11.5,2.4c5.7,2,10.7,5.7,14.8,10.1c0,0,0,0,0,0c0,0,0,0,0.1,0.1
							c0,0,0,0,0,0c2.9,3.6,5.6,7.9,7,12.4c0.7,2,1.2,4.1,1.5,6.2c0.6,4.3,0.5,8.8,0.3,13.1c-0.2,3.7-1,7.3-2.4,10.7
							c2.1,1.5,4.2,3,6.4,4.4c3.1,2.1,6.1,4.3,9.2,6.4c0,0,0,0,0,0v-44.8c-3.5-0.2-6.2-3-6.2-6.6C132.2,105.9,135,103,138.4,102.8z"
							/>
					</g>
				</g>
			</g>
			<g>
				<circle fill="#FFFFFF" cx="160.7" cy="109.4" r="6.6"/>
				<g>
					<path fill="#FFFFFF" d="M138.8,102.8c3.6,0,6.6,2.9,6.6,6.6c0,3.6-2.9,6.6-6.6,6.6c-0.1,0-0.2,0-0.4,0v-13.1
						C138.5,102.8,138.7,102.8,138.8,102.8z"/>
					<path fill="#FFFFFF" d="M132.2,109.4c0-3.5,2.7-6.4,6.2-6.6v13.1C135,115.7,132.2,112.9,132.2,109.4z"/>
				</g>
				<g>
					<path fill="#FFFFFF" d="M116.4,107.4C116.4,107.3,116.4,107.3,116.4,107.4C116.4,107.4,116.4,107.4,116.4,107.4
						C116.4,107.4,116.4,107.4,116.4,107.4c1.8,2.2,3.4,4.6,4.7,7.1c1.4-1.2,2.4-3,2.4-5c0-3.6-2.9-6.6-6.6-6.6
						c-1.5,0-2.8,0.5-3.9,1.3C114.2,105.1,115.3,106.2,116.4,107.4z"/>
				</g>
			</g>
		</g>
	</g>
</g>
</svg>
