<?xml version="1.0" encoding="utf-8"?>
<!-- Generator: Adobe Illustrator 18.0.0, SVG Export Plug-In . SVG Version: 6.00 Build 0)  -->
<!DOCTYPE svg PUBLIC "-//W3C//DTD SVG 1.1//EN" "http://www.w3.org/Graphics/SVG/1.1/DTD/svg11.dtd">
<svg version="1.1" id="Layer_1" xmlns="http://www.w3.org/2000/svg" xmlns:xlink="http://www.w3.org/1999/xlink" x="0px" y="0px"
	 viewBox="0 0 227.3 228.7" enable-background="new 0 0 227.3 228.7" xml:space="preserve">
<g>
	<g>
		<path fill="#DEDEDE" d="M168.8,85.8v71.8H77.4l-14.7-13V85.8c0-2.8,2.5-5,5.7-5h94.9C166.3,80.8,168.8,83.1,168.8,85.8z"/>
		<path fill="#DEDEDE" d="M168.8,95.7H62.7V91c0-5.6,4.5-10.1,10.1-10.1h85.9c5.6,0,10.1,4.5,10.1,10.1V95.7z"/>
		<rect x="136.3" y="104" fill="#DEDEDE" width="7.7" height="6.8"/>
		<rect x="124.1" y="104" fill="#DEDEDE" width="7.7" height="6.8"/>
		<rect x="111.9" y="104" fill="#DEDEDE" width="7.7" height="6.8"/>
		<rect x="99.7" y="104" fill="#DEDEDE" width="7.7" height="6.8"/>
		<rect x="87.5" y="104" fill="#DEDEDE" width="7.7" height="6.8"/>
		<rect x="75.3" y="104" fill="#DEDEDE" width="7.7" height="6.8"/>
		<rect x="148.5" y="115.5" fill="#DEDEDE" width="7.7" height="6.8"/>
		<rect x="136.3" y="115.5" fill="#DEDEDE" width="7.7" height="6.8"/>
		<rect x="124.1" y="115.5" fill="#DEDEDE" width="7.7" height="6.8"/>
		<rect x="111.9" y="115.5" fill="#DEDEDE" width="7.7" height="6.8"/>
		<rect x="99.7" y="115.5" fill="#DEDEDE" width="7.7" height="6.8"/>
		<rect x="87.5" y="115.5" fill="#DEDEDE" width="7.7" height="6.8"/>
		<rect x="75.3" y="115.5" fill="#DEDEDE" width="7.7" height="6.8"/>
		<rect x="148.5" y="127" fill="#DEDEDE" width="7.7" height="6.8"/>
		<rect x="136.3" y="127" fill="#DEDEDE" width="7.7" height="6.8"/>
		<rect x="124.1" y="127" fill="#DEDEDE" width="7.7" height="6.8"/>
		<rect x="111.9" y="127" fill="#DEDEDE" width="7.7" height="6.8"/>
		<rect x="99.7" y="127" fill="#DEDEDE" width="7.7" height="6.8"/>
		<rect x="87.5" y="127" fill="#DEDEDE" width="7.7" height="6.8"/>
		<rect x="75.3" y="127" fill="#DEDEDE" width="7.7" height="6.8"/>
		<rect x="148.5" y="138.5" fill="#DEDEDE" width="7.7" height="6.8"/>
		<rect x="136.3" y="138.5" fill="#DEDEDE" width="7.7" height="6.8"/>
		<rect x="124.1" y="138.5" fill="#DEDEDE" width="7.7" height="6.8"/>
		<rect x="111.9" y="138.5" fill="#DEDEDE" width="7.7" height="6.8"/>
		<rect x="99.7" y="138.5" fill="#DEDEDE" width="7.7" height="6.8"/>
		<path fill="#DEDEDE" d="M88.1,89.2h-8.9v-6.8c0-2.5,2-4.5,4.5-4.5l0,0c2.5,0,4.5,2,4.5,4.5V89.2z"/>
		<path fill="#DEDEDE" d="M152.4,89.2h-8.9v-7.4c0-2.2,2-3.9,4.5-3.9l0,0c2.5,0,4.5,1.8,4.5,3.9V89.2z"/>
		<path fill="#DEDEDE" d="M88.1,86.6h-8.9v-6.8c0-2.5,2-4.5,4.5-4.5l0,0c2.5,0,4.5,2,4.5,4.5V86.6z"/>
		<path fill="#DEDEDE" d="M152.4,86.6h-8.9v-7.4c0-2.2,2-3.9,4.5-3.9l0,0c2.5,0,4.5,1.8,4.5,3.9V86.6z"/>
		<ellipse fill="#DEDEDE" cx="83.6" cy="79.4" rx="2.7" ry="2.4"/>
		<ellipse fill="#DEDEDE" cx="147.9" cy="79.4" rx="2.7" ry="2.4"/>
		<polygon fill="#DEDEDE" points="77.4,144.6 62.7,144.6 77.4,157.6 		"/>
	</g>
	<g>
		<g>
			<g>
				<path fill="#FFFFFF" d="M166.8,83.7v71.8H75.3l-14.7-13V83.7c0-2.8,2.5-5,5.7-5h94.9C164.2,78.7,166.8,81,166.8,83.7z"/>
			</g>
			<path fill="#61ABBF" d="M166.8,93.7H60.6v-4.8c0-5.6,4.5-10.1,10.1-10.1h85.9c5.6,0,10.1,4.5,10.1,10.1V93.7z"/>
			<g>
				<rect x="134.2" y="101.9" fill="#E16F47" width="7.7" height="6.8"/>
				<rect x="122" y="101.9" fill="#BBBBBB" width="7.7" height="6.8"/>
				<rect x="109.8" y="101.9" fill="#BBBBBB" width="7.7" height="6.8"/>
				<rect x="97.6" y="101.9" fill="#BBBBBB" width="7.7" height="6.8"/>
				<rect x="85.4" y="101.9" fill="#BBBBBB" width="7.7" height="6.8"/>
				<rect x="73.2" y="101.9" fill="#BBBBBB" width="7.7" height="6.8"/>
				<rect x="146.4" y="113.4" fill="#E16F47" width="7.7" height="6.8"/>
				<rect x="134.2" y="113.4" fill="#E16F47" width="7.7" height="6.8"/>
				<rect x="122" y="113.4" fill="#BBBBBB" width="7.7" height="6.8"/>
				<rect x="109.8" y="113.4" fill="#BBBBBB" width="7.7" height="6.8"/>
				<rect x="97.6" y="113.4" fill="#BBBBBB" width="7.7" height="6.8"/>
				<rect x="85.4" y="113.4" fill="#BBBBBB" width="7.7" height="6.8"/>
				<rect x="73.2" y="113.4" fill="#BBBBBB" width="7.7" height="6.8"/>
				<rect x="146.4" y="124.9" fill="#E16F47" width="7.7" height="6.8"/>
				<rect x="134.2" y="124.9" fill="#E16F47" width="7.7" height="6.8"/>
				<rect x="122" y="124.9" fill="#BBBBBB" width="7.7" height="6.8"/>
				<rect x="109.8" y="124.9" fill="#BBBBBB" width="7.7" height="6.8"/>
				<rect x="97.6" y="124.9" fill="#BBBBBB" width="7.7" height="6.8"/>
				<rect x="85.4" y="124.9" fill="#BBBBBB" width="7.7" height="6.8"/>
				<rect x="73.2" y="124.9" fill="#BBBBBB" width="7.7" height="6.8"/>
				<rect x="146.4" y="136.4" fill="#E16F47" width="7.7" height="6.8"/>
				<rect x="134.2" y="136.4" fill="#E16F47" width="7.7" height="6.8"/>
				<rect x="122" y="136.4" fill="#BBBBBB" width="7.7" height="6.8"/>
				<rect x="109.8" y="136.4" fill="#BBBBBB" width="7.7" height="6.8"/>
				<rect x="97.6" y="136.4" fill="#BBBBBB" width="7.7" height="6.8"/>
			</g>
			<path fill="#73C5D8" d="M86,87.1h-8.9v-6.8c0-2.5,2-4.5,4.5-4.5l0,0c2.5,0,4.5,2,4.5,4.5V87.1z"/>
			<path fill="#73C5D8" d="M150.3,87.1h-8.9v-7.4c0-2.2,2-3.9,4.5-3.9l0,0c2.5,0,4.5,1.8,4.5,3.9V87.1z"/>
			<path fill="#626261" d="M86,84.5h-8.9v-6.8c0-2.5,2-4.5,4.5-4.5l0,0c2.5,0,4.5,2,4.5,4.5V84.5z"/>
			<path fill="#626261" d="M150.3,84.5h-8.9v-7.4c0-2.2,2-3.9,4.5-3.9l0,0c2.5,0,4.5,1.8,4.5,3.9V84.5z"/>
			<ellipse fill="#EEEEEE" cx="81.5" cy="77.3" rx="2.7" ry="2.4"/>
			<ellipse fill="#EEEEEE" cx="145.8" cy="77.3" rx="2.7" ry="2.4"/>
			<polygon fill="#BBBBBB" points="75.3,142.5 60.6,142.5 75.3,155.5 			"/>
		</g>
	</g>
</g>
</svg>
