<?xml version="1.0" encoding="utf-8"?>
<!-- Generator: Adobe Illustrator 18.0.0, SVG Export Plug-In . SVG Version: 6.00 Build 0)  -->
<!DOCTYPE svg PUBLIC "-//W3C//DTD SVG 1.1//EN" "http://www.w3.org/Graphics/SVG/1.1/DTD/svg11.dtd">
<svg version="1.1" id="Layer_1" xmlns="http://www.w3.org/2000/svg" xmlns:xlink="http://www.w3.org/1999/xlink" x="0px" y="0px"
	 viewBox="0 0 227.3 228.7" enable-background="new 0 0 227.3 228.7" xml:space="preserve">
<g id="XMLID_28_">
	<path id="XMLID_52_" fill="#FEC906" d="M113.7,64.3c-27.6,0-50,22.4-50,50c0,27.6,22.4,50,50,50c27.6,0,50-22.4,50-50
		C163.7,86.7,141.3,64.3,113.7,64.3z M113.7,153.4c-21.6,0-39-17.5-39-39c0-21.6,17.5-39,39-39c21.6,0,39,17.5,39,39
		C152.7,135.9,135.2,153.4,113.7,153.4z"/>
	<circle id="XMLID_51_" fill="#FFFFFF" cx="113.7" cy="114.3" r="39"/>
	<g id="XMLID_48_">
		<rect id="XMLID_50_" x="112.6" y="79.2" fill="#265575" width="2.2" height="7.3"/>
		<rect id="XMLID_49_" x="112.6" y="142.2" fill="#265575" width="2.2" height="7.3"/>
	</g>
	<g id="XMLID_45_">
		
			<rect id="XMLID_47_" x="94.3" y="85.9" transform="matrix(0.5 0.866 -0.866 0.5 124.3421 -41.2719)" fill="#265575" width="7.3" height="2.2"/>
		
			<rect id="XMLID_46_" x="125.8" y="140.5" transform="matrix(0.5 0.866 -0.866 0.5 187.3536 -41.2718)" fill="#265575" width="7.3" height="2.2"/>
	</g>
	<g id="XMLID_42_">
		
			<rect id="XMLID_44_" x="82.7" y="97.5" transform="matrix(0.866 0.5 -0.5 0.866 60.863 -29.9836)" fill="#265575" width="7.3" height="2.2"/>
		
			<rect id="XMLID_43_" x="137.3" y="129" transform="matrix(0.866 0.5 -0.5 0.866 83.9265 -53.0472)" fill="#265575" width="7.3" height="2.2"/>
	</g>
	<g id="XMLID_39_">
		<rect id="XMLID_41_" x="78.5" y="113.2" fill="#265575" width="7.3" height="2.2"/>
		<rect id="XMLID_40_" x="141.5" y="113.2" fill="#265575" width="7.3" height="2.2"/>
	</g>
	<g id="XMLID_36_">
		
			<rect id="XMLID_38_" x="85.3" y="126.4" transform="matrix(0.5 0.866 -0.866 0.5 155.8541 -9.7633)" fill="#265575" width="2.2" height="7.3"/>
		
			<rect id="XMLID_37_" x="139.8" y="94.9" transform="matrix(0.5 0.866 -0.866 0.5 155.8554 -72.7765)" fill="#265575" width="2.2" height="7.3"/>
	</g>
	<g id="XMLID_33_">
		
			<rect id="XMLID_35_" x="96.8" y="138" transform="matrix(0.866 0.5 -0.5 0.866 83.9233 -29.9835)" fill="#265575" width="2.2" height="7.3"/>
		
			<rect id="XMLID_34_" x="128.3" y="83.4" transform="matrix(0.866 0.5 -0.5 0.866 60.8579 -53.0448)" fill="#265575" width="2.2" height="7.3"/>
	</g>
	<circle id="XMLID_32_" fill="#089E9F" cx="113.7" cy="114.3" r="4"/>
	<circle id="XMLID_31_" fill="#FFFFFF" cx="113.7" cy="114.3" r="1.9"/>
	<path id="XMLID_30_" fill="#F5991A" d="M101.1,115.8c3.8-0.2,6.8-1.8,6.8-1.8s-3.2-1.3-6.9-1.1c-3.8,0.2-6.8,1.8-6.8,1.8
		S97.3,116,101.1,115.8z"/>
	<path id="XMLID_29_" fill="#F5991A" d="M119.8,98.6c1.4-5.8,1.1-10.8,1.1-10.8s-2.5,4.3-3.9,10.1c-1.4,5.8-1.1,10.8-1.1,10.8
		S118.5,104.4,119.8,98.6z"/>
</g>
</svg>
