<?xml version="1.0" encoding="utf-8"?>
<!-- Generator: Adobe Illustrator 18.0.0, SVG Export Plug-In . SVG Version: 6.00 Build 0)  -->
<!DOCTYPE svg PUBLIC "-//W3C//DTD SVG 1.1//EN" "http://www.w3.org/Graphics/SVG/1.1/DTD/svg11.dtd">
<svg version="1.1" id="Layer_1" xmlns="http://www.w3.org/2000/svg" xmlns:xlink="http://www.w3.org/1999/xlink" x="0px" y="0px"
	 viewBox="0 0 227.3 228.7" enable-background="new 0 0 227.3 228.7" xml:space="preserve">
<g>
	<path fill="#14304D" d="M170.7,131.2c0,1.5-1.2,2.8-2.8,2.8l0,0c-1.5,0-2.8-1.2-2.8-2.8v-41c0-1.5,1.2-2.8,2.8-2.8l0,0
		c1.5,0,2.8,1.2,2.8,2.8V131.2z"/>
	<path fill="#14304D" d="M173.3,156.7c0,1.7-1.4,3.1-3.1,3.1h-4.5c-1.7,0-3.1-1.4-3.1-3.1l0,0c0-1.7,1.4-3.1,3.1-3.1h4.5
		C171.9,153.6,173.3,155,173.3,156.7L173.3,156.7z"/>
	<path fill="#14304D" d="M53,156.7c0,1.7,1.4,3.1,3.1,3.1h4.5c1.7,0,3.1-1.4,3.1-3.1l0,0c0-1.7-1.4-3.1-3.1-3.1H56
		C54.4,153.6,53,155,53,156.7L53,156.7z"/>
	<path fill="#2AA7BF" d="M185.9,153.9c0,1.7-1.4,3.2-3.2,3.2H44.6c-1.7,0-3.2-1.4-3.2-3.2v-24.1c0-1.7,1.4-3.2,3.2-3.2h138.1
		c1.7,0,3.2,1.4,3.2,3.2V153.9z"/>
	<path fill="#FFD35B" d="M178.6,144.9c0,2.2-1.8,4-4,4H52.7c-2.2,0-4-1.8-4-4v-6.1c0-2.2,1.8-4,4-4h121.9c2.2,0,4,1.8,4,4V144.9z"/>
	<circle fill="#EE6F51" cx="128.9" cy="141.9" r="1.8"/>
	<circle fill="#EE6F51" cx="141.8" cy="141.9" r="1.8"/>
	<circle fill="#14304D" cx="154.8" cy="141.9" r="1.8"/>
	<circle fill="#EE6F51" cx="167.8" cy="141.9" r="1.8"/>
	<rect x="55" y="141" fill="#FFFFFF" width="61.7" height="1.8"/>
	<g>
		<g>
			<path fill="#EE6F51" d="M155.1,77.8l-2.1-1.8c3.8-4.4,9.4-7,15.2-7c5.6,0,11,2.4,14.8,6.6l-2.1,1.9c-3.3-3.6-7.9-5.7-12.8-5.7
				C163.1,71.7,158.4,73.9,155.1,77.8z"/>
		</g>
		<g>
			<path fill="#EE6F51" d="M158,80.9l-1.8-1.7c3-3.2,7.4-5.1,11.9-5.1c4.4,0,8.6,1.8,11.6,4.8l-1.8,1.7c-2.5-2.6-6.1-4.1-9.8-4.1
				C164.2,76.6,160.6,78.2,158,80.9z"/>
		</g>
		<g>
			<path fill="#EE6F51" d="M161.4,84.3l-1.8-1.6c2.1-2.5,5.2-3.9,8.5-3.9c3.1,0,6.2,1.3,8.3,3.7l-1.8,1.6c-1.7-1.8-4-2.9-6.5-2.9
				C165.5,81.3,163.1,82.4,161.4,84.3z"/>
		</g>
	</g>
</g>
</svg>
