<?xml version="1.0" encoding="utf-8"?>
<!-- Generator: Adobe Illustrator 18.0.0, SVG Export Plug-In . SVG Version: 6.00 Build 0)  -->
<!DOCTYPE svg PUBLIC "-//W3C//DTD SVG 1.1//EN" "http://www.w3.org/Graphics/SVG/1.1/DTD/svg11.dtd">
<svg version="1.1" id="Layer_1" xmlns="http://www.w3.org/2000/svg" xmlns:xlink="http://www.w3.org/1999/xlink" x="0px" y="0px"
	 viewBox="0 0 227.3 228.7" enable-background="new 0 0 227.3 228.7" xml:space="preserve">
<g>
	<g>
		<circle fill="#88D1F4" cx="113.7" cy="114.3" r="108.7"/>
		<g>
			<path fill="#7BCBE3" d="M113.7,5.6v217.4c60,0,108.7-48.7,108.7-108.7S173.7,5.6,113.7,5.6z"/>
		</g>
	</g>
	<g>
		<g opacity="0.3">
			<path fill="#FFFFFF" d="M52.6,120.3l-4.8,2.2l4.6,10l4.8-2.2c2.4,3.4,5.5,6.3,9.2,8.5l-1.8,4.9l10.4,3.8l1.8-4.9
				c4.3,0.7,8.5,0.5,12.6-0.5l2.2,4.8l10-4.6l-2.2-4.8c3.4-2.4,6.3-5.5,8.5-9.2l4.9,1.8l3.8-10.4l-4.9-1.8c0.7-4.3,0.5-8.5-0.5-12.6
				l4.8-2.2l-4.6-10l-4.8,2.2c-2.4-3.4-5.5-6.3-9.2-8.5l1.8-4.9l-10.4-3.8L87,83c-4.3-0.7-8.5-0.5-12.6,0.5l-2.2-4.8l-10,4.6
				l2.2,4.8c-3.4,2.4-6.3,5.5-8.5,9.2L51,95.6L47.2,106l4.9,1.8C51.4,112,51.6,116.3,52.6,120.3 M88,96.5
				c9.1,3.3,13.7,13.4,10.4,22.4c-3.3,9.1-13.4,13.7-22.4,10.4c-9.1-3.3-13.7-13.4-10.4-22.4C68.9,97.8,78.9,93.1,88,96.5"/>
			<path fill="#FFFFFF" d="M157,90.5l3.6-0.2l-0.5-8.9l-3.6,0.2c-0.6-2.4-1.7-4.6-3.1-6.5l2.4-2.7l-6.6-5.9l-2.4,2.7
				c-2.1-1.2-4.4-2-6.8-2.4l-0.2-3.6l-8.9,0.5l0.2,3.6c-2.4,0.6-4.6,1.7-6.5,3.1l-2.7-2.4l-5.9,6.6l2.7,2.4c-1.2,2.1-2,4.4-2.4,6.8
				l-3.6,0.2l0.4,8.9l3.6-0.2c0.6,2.4,1.7,4.6,3.1,6.5l-2.4,2.7l6.6,5.9l2.4-2.7c2.1,1.2,4.4,2,6.8,2.4l0.2,3.6l8.9-0.5l-0.2-3.6
				c2.4-0.6,4.6-1.7,6.5-3.1l2.7,2.4l5.9-6.6l-2.7-2.4C155.8,95.2,156.6,93,157,90.5 M137,95.6c-1.1,0.1-2.3-0.1-3.3-0.5
				c-3.2-1.2-5.3-4.1-5.5-7.5c-0.2-4.6,3.3-8.6,8-8.9c1.1-0.1,2.3,0.1,3.3,0.5c3.2,1.2,5.3,4.1,5.5,7.5
				C145.3,91.4,141.7,95.3,137,95.6"/>
			<path fill="#FFFFFF" d="M118.7,56l2.9-1l-2.5-7.2l-2.9,1c-1.1-1.8-2.5-3.4-4.1-4.7l1.4-2.8l-6.8-3.4l-1.4,2.8
				c-2-0.5-4.1-0.6-6.2-0.4l-1-2.9l-7.2,2.5l1,2.9c-1.8,1.1-3.4,2.5-4.7,4.1l-2.8-1.4L81,52.4l2.8,1.4c-0.5,2-0.6,4.1-0.4,6.2
				l-2.9,1l2.5,7.2l2.9-1c1.1,1.8,2.5,3.4,4.1,4.7l-1.4,2.8l6.8,3.4l1.4-2.8c2,0.5,4.1,0.6,6.2,0.4l1,2.9l7.2-2.5l-1-2.9
				c1.8-1.1,3.4-2.5,4.7-4.1l2.8,1.4l3.4-6.8l-2.8-1.4C118.8,60.2,118.9,58.1,118.7,56 M103.4,64.9c-0.9,0.3-1.9,0.4-2.9,0.4
				c-2.9-0.2-5.4-2.1-6.3-4.9c-1.3-3.8,0.7-7.9,4.5-9.2c0.9-0.3,1.9-0.4,2.9-0.4c2.9,0.2,5.4,2.1,6.3,4.9
				C109.2,59.5,107.1,63.6,103.4,64.9"/>
		</g>
		<g>
			<rect x="33.2" y="118.7" fill="#2B455E" width="110.7" height="78.1"/>
			<rect x="69.2" y="179.4" fill="#51677E" width="38.8" height="17.4"/>
			<path opacity="0.5" fill="#010202" d="M33.2,172.7c0,6.2,5,11.2,11.2,11.2h88.2c6.2,0,11.2-5,11.2-11.2v-49.5H33.2V172.7z"/>
			<path fill="#DDDEE1" d="M96.7,184c0,2-1.6,3.6-3.6,3.6H84c-2,0-3.6-1.6-3.6-3.6v-9.2c0-2,1.6-3.6,3.6-3.6h9.2
				c2,0,3.6,1.6,3.6,3.6V184z"/>
			<circle fill="#BFBFBF" cx="88.6" cy="179.4" r="4"/>
			<path fill="#2B455E" d="M33.2,168.2c0,6.2,5,11.2,11.2,11.2h88.2c6.2,0,11.2-5,11.2-11.2v-49.5H33.2V168.2z"/>
			<rect x="69.2" y="118.7" fill="#51677E" width="38.8" height="60.7"/>
			<g>
				<g>
					<line fill="none" stroke="#231F20" stroke-width="0.6341" stroke-miterlimit="10" x1="73.1" y1="118.7" x2="73.1" y2="120"/>
					
						<line fill="none" stroke="#231F20" stroke-width="0.6341" stroke-miterlimit="10" stroke-dasharray="2.5285,2.5285" x1="73.1" y1="122.5" x2="73.1" y2="176.9"/>
					<line fill="none" stroke="#231F20" stroke-width="0.6341" stroke-miterlimit="10" x1="73.1" y1="178.2" x2="73.1" y2="179.4"/>
				</g>
			</g>
			<g>
				<g>
					<line fill="none" stroke="#231F20" stroke-width="0.6341" stroke-miterlimit="10" x1="104" y1="118.7" x2="104" y2="120"/>
					
						<line fill="none" stroke="#231F20" stroke-width="0.6341" stroke-miterlimit="10" stroke-dasharray="2.5285,2.5285" x1="104" y1="122.5" x2="104" y2="176.9"/>
					<line fill="none" stroke="#231F20" stroke-width="0.6341" stroke-miterlimit="10" x1="104" y1="178.2" x2="104" y2="179.4"/>
				</g>
			</g>
			<rect x="33.2" y="118.7" opacity="0.1" fill="#010202" width="110.7" height="7.3"/>
			<path fill="#172434" d="M101.9,106.4H75.2c-1.2,0-2.2,1-2.2,2.2v13.8h4.1v-11.2H100v11.2h4.1v-13.8
				C104.2,107.4,103.1,106.4,101.9,106.4z"/>
			<path fill="none" stroke="#231F20" stroke-width="0.6341" stroke-miterlimit="10" stroke-dasharray="2.5365" d="M36.1,118.9v46.8
				c0,5.9,4.8,10.6,10.6,10.6h83.5c5.9,0,10.6-4.8,10.6-10.6v-46.8"/>
			<path fill="#DDDEE1" d="M98.4,179.4v-3.8c0-2.4-1.9-4.3-4.3-4.3H83c-2.4,0-4.3,1.9-4.3,4.3v3.8H98.4z"/>
		</g>
		<g>
			<path fill="#DF2A38" d="M217.1,141.4c0,31.6-25.6,57.2-57.2,57.2c-31.6,0-57.2-25.6-57.2-57.2c0-31.6,25.6-57.2,57.2-57.2
				C191.4,84.1,217.1,109.8,217.1,141.4z"/>
			<path fill="#FFFFFF" d="M204.2,141.4c0,24.5-19.9,44.3-44.3,44.3c-24.5,0-44.4-19.9-44.4-44.3c0-24.5,19.9-44.3,44.4-44.3
				C184.3,97,204.2,116.9,204.2,141.4z"/>
			<path fill="#DF2A38" d="M192.6,141.4c0,18.1-14.7,32.8-32.8,32.8c-18.1,0-32.8-14.7-32.8-32.8c0-18.1,14.7-32.8,32.8-32.8
				C177.9,108.6,192.6,123.3,192.6,141.4z"/>
			<path fill="#FFFFFF" d="M181.1,141.4c0,11.7-9.5,21.2-21.2,21.2c-11.7,0-21.2-9.5-21.2-21.2c0-11.7,9.5-21.2,21.2-21.2
				C171.6,120.1,181.1,129.7,181.1,141.4z"/>
			<path fill="#DF2A38" d="M169.5,141.4c0,5.3-4.3,9.7-9.7,9.7c-5.4,0-9.7-4.3-9.7-9.7c0-5.4,4.3-9.7,9.7-9.7
				C165.2,131.7,169.5,136,169.5,141.4z"/>
			<polygon fill="#F59A22" points="199.5,112.5 206.4,105.5 198.6,103.4 196.5,95.6 189.5,102.6 191.2,108.9 167.6,132.6 
				164.2,125.9 162,134 159.8,142.2 168,140 176.1,137.8 169.4,134.5 193.1,110.8 			"/>
			<polygon fill="#FCC016" points="198.6,103.4 196.5,95.6 189.5,102.6 191.2,108.9 167.5,132.6 164.2,125.9 162,134 159.8,142.2 
							"/>
		</g>
		<g>
			<path fill="#FFFFFF" d="M56.2,189.9H25.8c0,3.2-2.6,5.8-5.8,5.8h42C58.8,195.7,56.2,193.1,56.2,189.9z"/>
			<rect x="21.5" y="199.9" fill="#FFFFFF" width="39.1" height="5.3"/>
			<path fill="#FFFFFF" d="M52.8,144.4c0,6.8-5.5,12.3-12.3,12.3c-6.8,0-12.3-5.5-12.3-12.3c0-6.8,5.5-12.2,12.3-12.2
				C47.3,132.1,52.8,137.6,52.8,144.4z"/>
			<path fill="#F0F2F1" d="M46.7,133.7c2.1,2.1,3.3,5,3.3,8.2c0,6.5-5.3,11.8-11.8,11.8c-3.2,0-6.1-1.3-8.2-3.3
				c2.1,3.7,6.1,6.2,10.6,6.2c6.8,0,12.3-5.5,12.3-12.3C52.8,139.8,50.4,135.9,46.7,133.7z"/>
			<path fill="#DDDEE1" d="M52.8,157.3c0,0.3-0.1,0.7-0.4,0.9c-0.2,0.2-0.6,0.4-0.9,0.4h-22c-0.3,0-0.6-0.1-0.9-0.4
				c-0.2-0.2-0.4-0.6-0.4-0.9v-0.2c0-0.3,0.1-0.7,0.4-0.9c0.2-0.3,0.6-0.4,0.9-0.4h22c0.3,0,0.6,0.1,0.9,0.4
				c0.3,0.2,0.4,0.6,0.4,0.9V157.3z"/>
			<path fill="#FFFFFF" d="M44.7,166.4v-2.3c0-3.1,2.5-5.5,5.5-5.5h-5.5h-8.2H31c3.1,0,5.5,2.5,5.5,5.5v2.3
				c0,8.8-4.2,16.5-10.7,21.4h10.7h8.2h10.7C48.9,182.9,44.7,175.2,44.7,166.4z"/>
			<path fill="#F0F2F1" d="M44.7,166.4v-2.3c0-3.1,2.5-5.5,5.5-5.5h-2c-3.1,0-5.5,2.5-5.5,5.5v2.3c0,8.8,4.2,16.5,10.7,21.4h2
				C48.9,182.9,44.7,175.2,44.7,166.4z"/>
			<path fill="#DDDEE1" d="M57.6,188.8c0,0.3-0.1,0.5-0.3,0.7c-0.2,0.2-0.5,0.3-0.7,0.3h-31c-0.3,0-0.5-0.1-0.7-0.3
				c-0.2-0.2-0.3-0.5-0.3-0.7l0,0c0-0.3,0.1-0.5,0.3-0.7c0.2-0.2,0.5-0.3,0.7-0.3h31c0.3,0,0.5,0.1,0.7,0.3
				C57.5,188.3,57.6,188.6,57.6,188.8L57.6,188.8z"/>
			<path fill="#DDDEE1" d="M20,195.7v2.7c0,0.4,0.1,0.8,0.4,1c0.3,0.3,0.7,0.4,1,0.4h39.1c0.4,0,0.8-0.1,1-0.4
				c0.3-0.3,0.4-0.7,0.4-1v-2.7H20z"/>
			<path fill="#DDDEE1" d="M62,202.6c0,0.4-0.1,0.8-0.4,1c-0.3,0.3-0.7,0.4-1,0.4H21.5c-0.4,0-0.8-0.1-1-0.4c-0.3-0.3-0.4-0.7-0.4-1
				v-0.2c0-0.4,0.1-0.8,0.4-1c0.3-0.3,0.7-0.4,1-0.4h39.1c0.4,0,0.8,0.1,1,0.4c0.3,0.3,0.4,0.7,0.4,1V202.6z"/>
		</g>
	</g>
</g>
</svg>
