<?xml version="1.0" encoding="utf-8"?>
<!-- Generator: Adobe Illustrator 18.0.0, SVG Export Plug-In . SVG Version: 6.00 Build 0)  -->
<!DOCTYPE svg PUBLIC "-//W3C//DTD SVG 1.1//EN" "http://www.w3.org/Graphics/SVG/1.1/DTD/svg11.dtd">
<svg version="1.1" id="Layer_1" xmlns="http://www.w3.org/2000/svg" xmlns:xlink="http://www.w3.org/1999/xlink" x="0px" y="0px"
	 viewBox="0 0 227.3 228.7" enable-background="new 0 0 227.3 228.7" xml:space="preserve">
<g>
	<g>
		<rect x="18.6" y="54.1" fill="#757475" width="165.8" height="117.5"/>
		<rect x="18.6" y="156.9" fill="#DFDFDF" width="165.8" height="9.5"/>
		<rect x="28.3" y="65.6" fill="#FFFFFF" width="146.3" height="83.7"/>
		<rect x="5.3" y="165.4" fill="#757475" width="192.3" height="9.2"/>
		<circle fill="#DFDFDF" cx="101.5" cy="59.5" r="2.8"/>
	</g>
	<rect x="38.5" y="75.7" fill="#EC6659" width="128.8" height="9.9"/>
	<rect x="38.5" y="92.1" fill="#DFDFDF" width="128.8" height="5"/>
	<rect x="38.5" y="102.5" fill="#DFDFDF" width="128.8" height="5"/>
	<rect x="76.8" y="115.8" fill="#DFDFDF" width="90.5" height="5"/>
	<rect x="76.8" y="126" fill="#DFDFDF" width="90.5" height="5"/>
	<rect x="76.8" y="136.2" fill="#DFDFDF" width="90.5" height="5"/>
	<g>
		<path fill="#F4D45A" d="M219.7,151.6L219.7,151.6c-3.1,3.1-8.1,3.1-11.2,0L173,116.1l11.1-11.2l35.5,35.5
			C222.8,143.5,222.8,148.5,219.7,151.6z"/>
		<circle opacity="0.47" fill="#FFFFFF" cx="159.8" cy="91.7" r="26.2"/>
		<path fill="#F4D45A" d="M136.8,68.7c-12.7,12.7-12.7,33.3,0,46c12.7,12.7,33.3,12.7,46,0c12.7-12.7,12.7-33.3,0-46
			C170.1,56,149.5,56,136.8,68.7z M176.8,108.7c-9.3,9.3-24.5,9.4-33.8,0c-9.3-9.3-9.4-24.5,0-33.8c9.3-9.3,24.5-9.4,33.8,0
			C186.1,84.2,186.1,99.3,176.8,108.7z"/>
	</g>
	<rect x="38.5" y="115.8" fill="#DFDFDF" width="30.5" height="25.4"/>
</g>
</svg>
