<?xml version="1.0" encoding="utf-8"?>
<!-- Generator: Adobe Illustrator 18.0.0, SVG Export Plug-In . SVG Version: 6.00 Build 0)  -->
<!DOCTYPE svg PUBLIC "-//W3C//DTD SVG 1.1//EN" "http://www.w3.org/Graphics/SVG/1.1/DTD/svg11.dtd">
<svg version="1.1" id="Layer_1" xmlns="http://www.w3.org/2000/svg" xmlns:xlink="http://www.w3.org/1999/xlink" x="0px" y="0px"
	 viewBox="0 0 284.7 286.3" enable-background="new 0 0 284.7 286.3" xml:space="preserve">
<g>
	<g>
		<circle fill="#EC6659" cx="142.3" cy="143.2" r="134.9"/>
		<g>
			<path fill="#EA514A" d="M142.3,8.2v269.9c74.5,0,134.9-60.4,134.9-134.9C277.3,68.6,216.9,8.2,142.3,8.2z"/>
		</g>
	</g>
	<g>
		<g>
			<path fill="#FFFFFF" d="M165.8,229.7v-2.6l1.8-3l0,0l0,0c0.4-0.1,0.8-0.1,1.3,0c2.5,0.6,2.5,4.1,0.1,4.8l0,0l-0.5,0.1l-0.5,0.1
				l-0.5,0.1l-0.5,0.1l-0.5,0.1L165.8,229.7L165.8,229.7L165.8,229.7z M165.8,224.7l0.4-0.1l0.5-0.1l0.5-0.1l0.5-0.1L165.8,224.7
				L165.8,224.7L165.8,224.7z M165.8,69.4v-4.9c0.3,0,0.5,0,0.8,0.1l0.3,0.1l0.5,0.1l0.5,0.1l0.5,0.1l0.5,0.1l0.5,0.1l0.5,0.1
				l0.5,0.1l0.5,0.2l0.5,0.2l0.1,0c0.5,0.1,0.8,0.4,1.1,0.8c1.6,1.9-0.3,4.7-2.6,4l-0.1,0l-0.5-0.1l-0.5-0.1l-0.5-0.1l-0.5-0.1
				l-0.5-0.1l-0.5-0.1l-0.5-0.1l-0.5-0.1L165.8,69.4L165.8,69.4z M181,219.1c-2.2,1.1-1.7,4.3,0.7,4.7c0.5,0.1,1,0,1.4-0.2l0.3-0.1
				l0.5-0.2l0.5-0.2l0.5-0.2l0.5-0.2l0.5-0.2l0.5-0.2l0.5-0.2l0.5-0.2l0.4-0.2l0.1-0.1c2.1-1.2,1.4-4.4-1.1-4.6
				c-0.5,0-0.9,0.1-1.4,0.3l-0.1,0l-0.4,0.2l-0.4,0.2l-0.4,0.2l-0.4,0.2l-0.4,0.2l-0.4,0.2l-0.4,0.2l-0.4,0.2l-0.4,0.2L181,219.1
				L181,219.1z M197.1,208.8c-0.9,0.7-1.1,1.9-0.7,2.9c0.7,1.5,2.6,1.9,3.8,0.9l0,0l0.4-0.3l0.4-0.3l0.4-0.3l0.4-0.3l0.4-0.3
				l0.4-0.3l0.4-0.3l0.4-0.3l0.4-0.3l0.3-0.3c0.8-0.8,1-1.9,0.5-2.9c-0.7-1.5-2.7-1.8-3.9-0.7l-0.3,0.3l-0.4,0.3l-0.4,0.3l-0.4,0.3
				l-0.4,0.3l-0.4,0.3l-0.4,0.3l-0.4,0.3l-0.4,0.3L197.1,208.8L197.1,208.8L197.1,208.8z M210.2,195c-0.6,0.9-0.7,2,0,2.9
				c1,1.4,3,1.4,4,0.1l0.1-0.1l0.3-0.4l0.3-0.4l0.3-0.4l0.3-0.4l0.3-0.4l0.3-0.4l0.3-0.4l0.3-0.4l0.3-0.4l0.2-0.3
				c1.2-1.8-0.3-4.1-2.5-3.8c-0.7,0.1-1.3,0.5-1.6,1.1l-0.2,0.3l-0.3,0.4l-0.3,0.4l-0.3,0.4l-0.3,0.4l-0.3,0.4l-0.3,0.4l-0.3,0.4
				l-0.3,0.4L210.2,195L210.2,195L210.2,195z M219.8,178.5c-0.6,1.3,0.1,2.8,1.5,3.3c1.2,0.4,2.6-0.2,3.1-1.4l0.1-0.3l0.2-0.5
				l0.2-0.5l0.2-0.5l0.2-0.5l0.2-0.5l0.2-0.5l0.2-0.5l0.2-0.5l0.2-0.5l0-0.1c0.9-2.5-2.3-4.4-4.1-2.5c-0.2,0.3-0.4,0.5-0.5,0.8l0,0
				l-0.2,0.5l-0.2,0.5l-0.2,0.5l-0.2,0.5l-0.2,0.5l-0.2,0.5l-0.2,0.5l-0.2,0.5l-0.2,0.4L219.8,178.5L219.8,178.5z M225.1,160.2
				c-0.2,1,0.4,2.1,1.3,2.6c1.5,0.8,3.3-0.1,3.6-1.8l0.1-0.5l0.1-0.5l0.1-0.5l0.1-0.5l0.1-0.5l0.1-0.5l0.1-0.5l0.1-0.5l0.1-0.5
				l0-0.3c0.2-2.5-3-3.7-4.5-1.7c-0.3,0.4-0.4,0.7-0.4,1.2l0,0.3l-0.1,0.5l-0.1,0.5l-0.1,0.5l-0.1,0.5l-0.1,0.5l-0.1,0.5l-0.1,0.5
				l-0.1,0.5L225.1,160.2L225.1,160.2z M226,141.1c0.2,2.3,3.2,3.1,4.5,1.2c0.3-0.5,0.5-1,0.4-1.6l0-0.3l0-0.5l0-0.5l0-0.5l-0.1-0.5
				l-0.1-0.5l-0.1-0.5l-0.1-0.5l-0.1-0.5l-0.1-0.5c-0.3-2.4-3.5-2.9-4.6-0.8c-0.2,0.5-0.3,0.9-0.3,1.5l0.1,0.5l0.1,0.5l0.1,0.5
				l0.1,0.5l0.1,0.5l0,0.5l0,0.5l0,0.5l0,0.5L226,141.1L226,141.1z M222.4,122.4c0.8,2.5,4.5,2.2,4.8-0.6c0-0.3,0-0.6-0.1-0.9l0-0.1
				l-0.2-0.5l-0.2-0.5l-0.2-0.5l-0.2-0.5l-0.2-0.5l-0.2-0.5l-0.2-0.5l-0.2-0.5l-0.2-0.5l-0.1-0.2c-0.9-2.3-4.2-2-4.7,0.4
				c-0.1,0.5-0.1,0.9,0.1,1.4l0.1,0.2l0.2,0.5l0.2,0.5l0.2,0.5l0.2,0.5l0.2,0.5l0.2,0.5l0.2,0.5l0.2,0.5l0.2,0.5L222.4,122.4
				L222.4,122.4z M214.4,105.1c0.6,0.9,1.6,1.3,2.7,1.1c1.6-0.4,2.4-2.3,1.5-3.7l-0.3-0.4l-0.3-0.4l-0.3-0.4l-0.3-0.4l-0.3-0.4
				l-0.3-0.4l-0.3-0.4l-0.3-0.4l-0.3-0.4l-0.3-0.4c-0.6-0.9-1.7-1.2-2.7-0.9c-1.6,0.5-2.3,2.4-1.3,3.8l0.3,0.4l0.3,0.4l0.3,0.4
				l0.3,0.4l0.3,0.4l0.3,0.4l0.3,0.4l0.3,0.4l0.3,0.4L214.4,105.1L214.4,105.1z M202.5,90.1c1.7,1.7,4.5,0.2,4.2-2.1
				c-0.1-0.6-0.3-1-0.7-1.4l-0.1-0.1l-0.4-0.4l-0.4-0.4l-0.4-0.4l-0.4-0.4l-0.4-0.3l-0.4-0.3l-0.4-0.3l-0.4-0.3l-0.4-0.3l-0.3-0.3
				c-0.6-0.6-1.5-0.8-2.3-0.5c-1.8,0.6-2.4,2.9-0.9,4.2l0.3,0.2l0.4,0.3l0.4,0.3l0.4,0.3l0.4,0.3l0.4,0.3l0.3,0.3l0.3,0.3l0.3,0.3
				L202.5,90.1L202.5,90.1L202.5,90.1z M187.5,78.4c2.2,1.3,4.6-1.1,3.4-3.3c-0.2-0.4-0.5-0.7-0.9-0.9l-0.2-0.1l-0.4-0.3l-0.4-0.3
				l-0.4-0.3L188,73l-0.4-0.3l-0.4-0.2l-0.5-0.2l-0.5-0.2l-0.5-0.2l-0.2-0.1c-2.2-1.1-4.4,1.2-3.3,3.3c0.2,0.4,0.6,0.8,1,1l0.2,0.1
				l0.4,0.2l0.4,0.2l0.4,0.2l0.4,0.2l0.4,0.2l0.4,0.2l0.4,0.2l0.4,0.2l0.4,0.2L187.5,78.4z M165.8,64.4v4.9l-0.1,0l-0.2-0.1
				c-0.3-0.1-0.6-0.2-0.9-0.4C162.7,67.4,163.7,64.6,165.8,64.4L165.8,64.4z M165.8,224.6L165.8,224.6l-0.1,0.1l-0.5,0.1l-0.5,0.1
				l-0.5,0.1l-0.5,0.1l-0.5,0.1l-0.3,0.1L165.8,224.6L165.8,224.6z M165.8,227.2v2.6l-0.5,0.1l-0.5,0.1l-0.5,0.1l-0.3,0.1
				L165.8,227.2L165.8,227.2z M147.4,232L147.4,232l1.5,0l-0.2-4.9h0c0.4,0,0.8,0.1,1.2,0.3c2.3,1.2,1.5,4.6-1,4.7l0,0l-0.5,0
				l-0.5,0L147.4,232L147.4,232z M147.4,227.1l0.3,0l0.5,0l0.5,0L147.4,227.1L147.4,227.1L147.4,227.1z M147.4,67V62l0.4,0l0.5,0
				l0.5,0l0.5,0l0.5,0l0.5,0l0.5,0l0.5,0c2.1,0.1,3.1,2.6,1.7,4.1c-0.5,0.6-1.2,0.8-2,0.8l-0.5,0l-0.5,0l-0.5,0l-0.5,0l-0.5,0
				l-0.5,0l-0.5,0L147.4,67L147.4,67z M163,225.3c-2.2,0.5-2.7,3.4-0.7,4.5c0.5,0.3,1.2,0.4,1.8,0.3L163,225.3z M107.4,71.3
				c-2.2,1.1-1.5,4.5,1,4.7c0.4,0,0.9-0.1,1.2-0.3l0.1-0.1l0.1-0.1l0.1-0.1l0.1-0.1l0.1-0.1l0.1-0.1l0.1-0.1l0.1-0.1l0.1-0.1
				l0.1-0.1l0.1-0.1l0.1-0.1l0.1-0.1l0.1-0.1l0.1-0.1l0.1-0.1l0.1-0.1l0.1-0.1l0.1-0.1l0.1-0.1l0.1-0.1l0.1-0.1l0.1-0.1l0.1-0.1
				l0.1-0.1l0.1-0.1l0.1-0.1l0.1-0.1l0.1-0.1l0.1-0.1l0.1-0.1l0.1-0.1l0.1-0.1l0,0c2.4-1.1,1.7-4.7-1-4.7c-0.3,0-0.7,0.1-1,0.2l0,0
				l-0.1,0.1l-0.1,0.1l-0.1,0.1l-0.1,0.1l-0.1,0.1l-0.1,0.1l-0.1,0.1l-0.1,0.1l-0.1,0.1l-0.1,0.1l-0.1,0.1l-0.1,0.1l-0.1,0.1
				l-0.1,0.1l-0.1,0.1l-0.1,0.1l-0.1,0.1l-0.1,0.1l-0.1,0.1l-0.1,0.1l-0.1,0.1l-0.1,0.1l-0.1,0.1l-0.1,0.1l-0.1,0.1l-0.1,0.1
				l-0.1,0.1l-0.1,0.1l-0.1,0.1l-0.1,0.1l-0.1,0.1l-0.1,0.1L107.4,71.3L107.4,71.3z M147.4,62V67l-0.3,0l-0.5,0l-0.2,0
				c-2.1,0-3.2-2.4-1.9-4c0.5-0.6,1.2-0.9,1.9-0.9l0.2,0l0.5,0L147.4,62L147.4,62z M147.4,227.1L147.4,227.1l-0.3,0l-0.5,0l-0.5,0
				L147.4,227.1L147.4,227.1z M147.4,232L147.4,232l-0.2,0l-0.5,0l-0.5,0L147.4,232L147.4,232z M62.4,101.3l22.8-13.9l-0.5,26.7
				L62.4,101.3L62.4,101.3z M71.4,118.3c0.2-0.6,0.2-1.3,0-1.9c-0.9-2-3.8-1.9-4.6,0.1l-0.1,0.1l-0.1,0.2l-0.1,0.2l-0.1,0.2
				l-0.1,0.2l-0.1,0.2l-0.1,0.2l-0.1,0.2l-0.1,0.2l-0.1,0.2l-0.1,0.2l-0.1,0.2l-0.1,0.2l-0.1,0.2l-0.1,0.2l-0.1,0.2l-0.1,0.2
				l-0.1,0.2l-0.1,0.2l-0.1,0.2l-0.1,0.2l-0.1,0.2l-0.1,0.2l-0.1,0.2l-0.1,0.2l-0.1,0.2l-0.1,0.2l-0.1,0.2l-0.1,0.2l0,0.1
				c-0.3,1,0,2.1,0.9,2.8c1.4,1,3.3,0.3,3.8-1.3l0-0.1l0-0.2l0-0.2l0.1-0.2l0-0.2l0-0.2l0.1-0.2l0.1-0.2l0.1-0.2l0.1-0.2l0.1-0.2
				l0.1-0.2l0.1-0.1l0.1-0.2l0.1-0.2l0.1-0.2l0.1-0.2l0.1-0.1l0.1-0.2l0.1-0.2l0.1-0.2l0.1-0.2l0.1-0.1l0.1-0.2l0.1-0.2l0.1-0.1
				l0.1-0.2l0.1-0.1l0.1-0.1L71.4,118.3L71.4,118.3z M66.7,136.8c0.3-2.4-2.6-3.7-4.3-2c-0.4,0.4-0.5,0.8-0.6,1.3l0,0.1l0,0.2l0,0.2
				l0,0.2l0,0.2l0,0.2l0,0.2l0,0.2l0,0.2l0,0.2l0,0.2l0,0.2l0,0.2l0,0.2l0,0.2l0,0.2l0,0.2l0,0.2l0,0.2l0,0.2l0,0.2l0,0.2l0,0.2
				l0,0.2l0,0.2l0,0.2l0,0.2l0,0.2l0,0.2l0,0.1c-0.2,2.4,2.9,3.6,4.4,1.7c0.3-0.4,0.5-0.8,0.5-1.3l0-0.1l0-0.2l0-0.2l0-0.2l0-0.2
				l0-0.2l0-0.2l0-0.2l0-0.2l0-0.2l0-0.2l0-0.2l0-0.2l0-0.2l0-0.2l0-0.2l0-0.2l0-0.2l0-0.2l0-0.2l0-0.2l0-0.2l0-0.2l0-0.2l0-0.2
				l0-0.2l0-0.2l0-0.2L66.7,136.8L66.7,136.8L66.7,136.8z M66.6,155.8c-0.3-2.5-3.8-3-4.8-0.6c-0.1,0.4-0.2,0.7-0.1,1.1l0,0.4
				l0.1,0.5l0.1,0.5l0.1,0.5l0.1,0.5l0.1,0.5l0.1,0.5l0.1,0.5l0.1,0.5l0.1,0.4c0.5,2.7,4.3,2.7,4.8,0.1c0.1-0.3,0.1-0.6,0-0.9
				l-0.1-0.4l-0.1-0.5l-0.1-0.5l-0.1-0.5l-0.1-0.5l-0.1-0.5l-0.1-0.5l-0.1-0.5l-0.1-0.5L66.6,155.8L66.6,155.8z M70.9,174.4
				c-0.9-2.4-4.3-2-4.7,0.4c-0.1,0.4,0,0.9,0.1,1.3l0,0.1l0.2,0.5l0.2,0.5l0.2,0.5l0.2,0.5l0.2,0.5l0.2,0.5l0.2,0.5l0.2,0.5l0.2,0.5
				l0.1,0.3c1.1,2.5,4.8,1.6,4.7-1.1c0-0.3-0.1-0.6-0.2-0.9l-0.1-0.2l-0.2-0.4l-0.2-0.4l-0.2-0.5l-0.2-0.5l-0.2-0.5l-0.2-0.5
				l-0.2-0.5l-0.2-0.5l-0.2-0.5L70.9,174.4L70.9,174.4z M79.5,191.4c-1.5-2.2-4.9-0.8-4.5,1.9c0.1,0.3,0.2,0.6,0.4,0.9l0.2,0.4
				L76,195l0.3,0.4l0.3,0.4l0.3,0.4l0.3,0.4l0.3,0.4l0.3,0.4l0.3,0.4l0.3,0.4l0,0c0.6,0.8,1.6,1.1,2.5,0.9c1.7-0.4,2.5-2.5,1.4-3.9
				l0,0l-0.3-0.4l-0.3-0.4l-0.3-0.4l-0.3-0.4l-0.3-0.4l-0.3-0.4l-0.3-0.4l-0.3-0.4l-0.3-0.4L79.5,191.4L79.5,191.4z M91.9,206
				c-0.3-0.3-0.8-0.6-1.3-0.6c-2.4-0.4-3.8,2.6-2.1,4.2l0,0l0.4,0.3l0.4,0.3l0.4,0.3l0.4,0.3l0.4,0.3l0.4,0.3l0.4,0.3l0.4,0.3
				l0.4,0.3l0.3,0.3c1.9,1.5,4.6-0.3,3.9-2.6c-0.1-0.5-0.4-0.9-0.8-1.2l-0.3-0.3l-0.4-0.3l-0.4-0.3l-0.4-0.3l-0.4-0.3l-0.4-0.3
				l-0.4-0.3l-0.4-0.3l-0.4-0.3L91.9,206L91.9,206L91.9,206z M107.4,217.1c-1.9-1-4.1,0.6-3.6,2.7c0.2,0.7,0.6,1.3,1.2,1.6l0.2,0.1
				l0.5,0.2l0.5,0.2l0.5,0.2l0.5,0.2l0.5,0.2l0.5,0.2l0.5,0.2l0.5,0.2l0.5,0.2l0.2,0.1c2.2,1,4.4-1.4,3.2-3.5
				c-0.3-0.4-0.6-0.8-1.1-1l-0.2-0.1L111,219l-0.4-0.2l-0.4-0.2l-0.4-0.2l-0.4-0.2l-0.4-0.2l-0.4-0.2l-0.4-0.2l-0.4-0.2L107.4,217.1
				L107.4,217.1z M125.1,224.3c-2.4-0.6-4.1,2.2-2.4,4.1c0.4,0.4,0.7,0.6,1.2,0.7l0.1,0l0.5,0.1l0.5,0.1l0.5,0.1l0.5,0.1l0.5,0.1
				l0.5,0.1l0.5,0.1l0.5,0.1l0.5,0.1l0.2,0c0.6,0.1,1.2,0,1.8-0.3c1.9-1.2,1.4-4.1-0.8-4.5l-0.2,0l-0.5-0.1l-0.5-0.1l-0.5-0.1
				l-0.5-0.1l-0.5-0.1l-0.5-0.1l-0.5-0.1l-0.5-0.1l-0.5-0.1L125.1,224.3L125.1,224.3z M144,227.1c-0.8,0-1.6,0.4-2.1,1.1
				c-1.1,1.6,0,3.8,2,3.9l0.1,0l0.5,0l0.5,0l0.5,0l0.5,0v-4.9l-0.5,0l-0.5,0l-0.5,0l-0.5,0L144,227.1L144,227.1z M132.2,68.2
				c2.7-0.5,2.7-4.3,0.1-4.8c-0.3-0.1-0.6-0.1-0.9,0l-0.1,0l-0.2,0l-0.2,0l-0.2,0l-0.2,0l-0.2,0l-0.2,0l-0.2,0l-0.2,0l-0.2,0l-0.2,0
				l-0.2,0l-0.2,0l-0.2,0l-0.2,0l-0.2,0l-0.2,0l-0.2,0l-0.2,0l-0.2,0l-0.2,0l-0.2,0l-0.2,0l-0.2,0l-0.2,0l-0.2,0l-0.2,0l-0.2,0
				l-0.2,0l-0.2,0l-0.2,0l-0.2,0l-0.1,0c-2.3,0.5-2.6,3.7-0.4,4.7c0.5,0.2,1,0.3,1.6,0.1l0.1,0l0.1,0l0.1,0l0.1,0l0.1,0l0.1,0l0.1,0
				l0.1,0l0.1,0l0.1,0l0.1,0l0.1,0l0.1,0l0.1,0l0.1,0l0.1,0l0.1,0l0.1,0l0.1,0l0.1,0l0.1,0l0.1,0l0.1,0l0.1,0l0.1,0l0.1,0l0.1,0
				l0.1,0l0.1,0l0.1,0l0.1,0L132.2,68.2L132.2,68.2z"/>
		</g>
		<g>
			<path fill="#89B7AF" d="M82.2,133.9c-0.2,1.1-0.4,2.1-0.6,3.2c-0.2,1.1-0.3,2.2-0.4,3.3c-0.2,2.2-0.3,4.4-0.3,6.7
				c0,2.3,0.1,4.5,0.3,6.7c0.1,1.1,0.2,2.2,0.4,3.3c0.2,1.1,0.4,2.2,0.6,3.2c0.2,1.1,0.5,2.1,0.7,3.2c0.5,2.1,1.2,4.1,1.9,6.1
				c0.4,1,0.8,2,1.2,3c0.4,1,0.8,1.9,1.3,2.9c0.2,0.5,0.5,0.9,0.7,1.4c0.5,0.9,1,1.9,1.5,2.8c1.6,2.7,3.3,5.3,5.3,7.8
				c1,1.2,2,2.4,3,3.6c0.7,0.8,1.4,1.5,2.2,2.3c0.7,0.7,1.5,1.5,2.3,2.2c3.5,3.2,7.3,6,11.4,8.3c0.9,0.5,1.8,1,2.8,1.5
				c1.9,1,3.8,1.8,5.8,2.6c1,0.4,2,0.8,3,1.1c6.6,2.2,13.6,3.4,20.9,3.4c5,0,9.9-0.6,14.5-1.6c2.2-0.5,4.3-1.1,6.4-1.8
				c1-0.3,2-0.7,3-1.1c2-0.8,3.9-1.7,5.8-2.6c0.9-0.5,1.9-1,2.8-1.5c4.1-2.4,7.9-5.2,11.4-8.3c0.8-0.7,1.5-1.4,2.3-2.2
				c0.7-0.7,1.5-1.5,2.2-2.3c1.1-1.2,2.1-2.4,3-3.6c1.5-2,3-4,4.3-6.1c0.3-0.6,0.7-1.1,1-1.7c0.5-0.9,1-1.8,1.5-2.8
				c0.2-0.5,0.5-0.9,0.7-1.4c0.5-1,0.9-1.9,1.3-2.9c0.4-1,0.8-2,1.2-3c0.7-2,1.4-4.1,1.9-6.1c0.3-1,0.5-2.1,0.7-3.2
				c0.2-1.1,0.4-2.1,0.6-3.2c0.2-1.1,0.3-2.2,0.4-3.3c0.2-2.2,0.3-4.4,0.3-6.7c0-2.3-0.1-4.5-0.3-6.7c-0.1-1.1-0.3-2.2-0.4-3.3
				c-0.2-1.1-0.4-2.2-0.6-3.2c-0.2-1.1-0.5-2.1-0.7-3.2c-0.5-2.1-1.2-4.1-1.9-6.1c-0.2-0.5-0.4-1-0.6-1.5c-0.6-1.5-1.2-2.9-1.9-4.4
				c-0.2-0.5-0.5-1-0.7-1.4c-0.5-0.9-1-1.9-1.5-2.8c-1.6-2.7-3.3-5.3-5.3-7.8c-1-1.2-2-2.4-3-3.6c-0.7-0.8-1.4-1.5-2.2-2.3
				c-0.7-0.7-1.5-1.5-2.3-2.2c-1.5-1.4-3.1-2.7-4.7-3.9c-2.1-1.6-4.4-3.1-6.7-4.4c-0.9-0.5-1.8-1-2.8-1.5c-0.4-0.2-0.9-0.4-1.3-0.6
				c-0.5-0.2-1-0.5-1.6-0.7c-0.2-0.1-0.4-0.2-0.7-0.3c-0.8-0.3-1.5-0.6-2.3-0.9c0,0,0,0,0,0c-0.8-0.3-1.6-0.6-2.5-0.9
				c-0.2-0.1-0.3-0.1-0.5-0.2c-1.9-0.7-3.9-1.2-5.9-1.7c-0.6-0.1-1.3-0.3-1.9-0.4c-0.5-0.1-0.9-0.2-1.4-0.3c-3.4-0.6-7-1-10.6-1
				c-0.4,0-0.8,0-1.2,0c-0.7,0-1.3,0-2,0c-6.6,0.2-13,1.4-18.9,3.4c-1,0.3-2,0.7-3,1.1c-0.3,0.1-0.6,0.2-0.9,0.4
				c-0.7,0.3-1.4,0.6-2,0.9c-1,0.4-1.9,0.9-2.9,1.4c-0.9,0.5-1.9,1-2.8,1.5c-3.7,2.1-7.1,4.6-10.3,7.3c-0.4,0.3-0.8,0.7-1.1,1
				c-0.8,0.7-1.5,1.4-2.3,2.2c-0.7,0.7-1.5,1.5-2.2,2.3c-1.1,1.2-2.1,2.4-3,3.6c-1.9,2.5-3.7,5.1-5.3,7.8c-0.5,0.9-1,1.8-1.5,2.8
				c-0.2,0.5-0.5,0.9-0.7,1.4c-0.7,1.4-1.3,2.9-1.9,4.4c-0.2,0.5-0.4,1-0.6,1.5c-0.7,2-1.4,4-1.9,6.1
				C82.6,131.7,82.4,132.8,82.2,133.9z"/>
			<path fill-rule="evenodd" clip-rule="evenodd" fill="#B4DCD6" d="M182.2,200v-58c0.3,0.1,0.6,0.3,0.8,0.4c1.7,1,4,2.3,4.7,0.8
				c0.7-1.5,2.8-1,4.7-0.7c1.8,0.3,5,1,6.7,0.8c1.7-0.2,3.3-1.7,3.5-3.2c0.2-1.5-2.2-1.8-5-1.8c-2.8,0-4-0.5-3.5-2.2
				c0.5-1.7,1.3-3.2,2.8-3.8c1.5-0.7,2.8-1,4.3-1c1.5,0,3.5,1.2,5.3,1c1.8-0.2,1.2-1.8-0.7-2.8c-1.8-1-2.2-2.5-1.3-3.3
				c0.8-0.8,0.3-1.7-1.2-0.8c-1.5,0.8-3.7,3-4.2,1.7c-0.5-1.3-4.2-0.2-4.2,1.8c0,2,0.5,2.3-0.2,3.7c-0.7,1.3-2.2,2.3-3.5,2.2
				c-1.3-0.2,0.2,2.3-1.2,3c-1.3,0.7-2-1-2.8-2.7c-0.8-1.7-1.5-2.7-2.3-3.7c-0.8-1-1.3-1.5-2.5-2.5c-0.1-0.1-0.2-0.2-0.3-0.2v-13.8
				c0.4-0.1,0.8-0.2,1.3-0.2c1.8,0,3.2,1.5,4.5,0.3c1.3-1.2-1-3.2,1-3.2c2,0,3.7,0.2,2.2-1.3c-1.5-1.5,0.5-0.7,2.2-1.5
				c1.7-0.8,1.5-2.2-0.5-1.8c-2,0.3-3.7,1.5-4.5-0.5c-0.8-2,1.7-4.3,3-5.8c0.3-0.3,0.4-0.6,0.3-0.9c0.3,0.2,0.5,0.5,0.8,0.8
				c0.7,0.7,1.5,1.5,2.2,2.3c1.1,1.2,2.1,2.4,3,3.6c1.9,2.5,3.7,5.1,5.3,7.8c0.5,0.9,1,1.8,1.5,2.8c0.2,0.5,0.5,0.9,0.7,1.4
				c0.7,1.4,1.3,2.9,1.9,4.4c0.2,0.5,0.4,1,0.6,1.5c0.7,2,1.4,4,1.9,6.1c0.3,1,0.5,2.1,0.7,3.2c0.2,1.1,0.4,2.1,0.6,3.2
				c0.2,1.1,0.3,2.2,0.4,3.3c0.2,2.2,0.3,4.4,0.3,6.7c0,2.3-0.1,4.5-0.3,6.7c-0.1,1.1-0.3,2.2-0.4,3.3c-0.2,1.1-0.4,2.2-0.6,3.2
				c-0.1,0.4-0.2,0.9-0.3,1.3l-0.1-0.1c-1.5-3.5-4.8-7.3-6-10.5c-1.2-3.2-2.3-5.2-3.5-5c-1.2,0.2,1.5,6.2,2.7,8.3
				c1.2,2.2,2.5,5.7,4.5,7.7c0.6,0.6,1.3,1.1,1.9,1.5c-0.5,2.1-1.2,4.1-1.9,6.1c-0.4,1-0.8,2-1.2,3c-0.4,1-0.9,1.9-1.3,2.9
				c-0.2,0.5-0.5,0.9-0.7,1.4c-0.5,0.9-1,1.9-1.5,2.8c-0.3,0.6-0.7,1.1-1,1.7c-1.3,2.1-2.7,4.2-4.3,6.1c-1,1.2-2,2.4-3,3.6
				c-0.7,0.8-1.4,1.5-2.2,2.3c-0.7,0.7-1.5,1.5-2.3,2.2c-2.4,2.2-4.9,4.1-7.6,5.9C182.3,200.9,182.3,200.4,182.2,200L182.2,200z
				 M182.2,133.6c0.3,0.8,0.3,1.8,0.3,2.9c0,2.3,1.8-0.8,2.2-1.8c0.3-1,1-3.3-0.3-3.3c-1,0-1.5-0.3-2.1-1V133.6L182.2,133.6z
				 M182.2,113.1c0.3-0.2,0.5-0.3,0.8-0.3c1.2,0,1.7-1.5,3-2.8c1.3-1.3-1.2-3-0.5-4.8c0.7-1.8,2.7-2.7,3.2-4.5
				c0.3-1.1,1.7-1.3,2.5-0.9c-0.4-0.3-0.7-0.7-1.1-1c-1.5-1.4-3.1-2.7-4.7-3.9c-0.4-0.3-0.8-0.6-1.1-0.8c-0.7,0.6-1.4,1.3-2.1,2
				V113.1z M182.2,96v17.1c-0.8,0.6-1.5,1.8-1.9,0.5c-0.5-1.7-1.5-3.5-2.7-2.7c-1.2,0.8-1,3.7-2.5,1.3c-1.5-2.3-2.8-5.7-1.2-7.5
				c1.7-1.8,4-3.3,5.3-5.2C180,98.7,181,97.3,182.2,96L182.2,96z M182.2,114.9c-0.9,0.2-1.6,0.7-3.2,0.7c-2.2,0-1.3-1.5-2.7-1.5
				c-1.3,0-1,2.5-2.2,3.7c-1,1-2.7,2.3-4.4,2.9V134c0.8-0.3,1-1.8,0.6-3.5c-0.5-1.8,2.7-1.2,5.3-1.2c2.7,0,3,1.8,4.8,2.5
				c0.9,0.3,1.4,0.9,1.7,1.7v-3.2c-0.2-0.2-0.4-0.4-0.7-0.7c-1.1-1.1-0.3-1.7,0.7-1.1V114.9L182.2,114.9z M182.2,142v58
				c-0.2-1.2-0.2-2.3-1-3.5c-1.5-2.2-3-6-1.5-8c1.5-2,2.2-3.5,0.8-4c-1.3-0.5,0.7-2.8-1.2-4c-1.8-1.2-3-4.3-2.3-5.8
				c0.7-1.5,0.8-4-1.3-4c-1.6,0-3.9-0.9-5.9-1.1v-31.8c1-0.4,2-0.8,3.6-0.8c3.2,0,5.5-1.2,5.2,1.3
				C178.2,140.5,180.5,141.2,182.2,142L182.2,142z M169.8,119.3v-1.4c0.4-0.1,0.8,0.1,0.7,0.6C170.4,118.9,170.1,119.3,169.8,119.3z
				 M169.8,117.9v1.4c-0.1,0-0.2-0.1-0.4-0.2c-0.5-0.6-0.4-0.9,0.2-1.1C169.6,118,169.7,118,169.8,117.9L169.8,117.9z M169.8,120.7
				V134c-0.1,0-0.2,0-0.3,0c-0.3,0-0.6,0-0.8,0.1V121c0.1,0,0.2,0,0.3-0.1C169.3,120.9,169.5,120.8,169.8,120.7L169.8,120.7z
				 M169.8,137.8v31.8c-0.4,0-0.7-0.1-1.1,0v-31.3C169.1,138.1,169.4,138,169.8,137.8L169.8,137.8z M168.7,113.8v-1.4
				c0.4-0.1,0.8,0.1,0.7,0.6C169.3,113.3,169,113.8,168.7,113.8z M168.7,112.4v1.4c-0.1,0-0.2-0.1-0.4-0.2c-0.5-0.6-0.4-0.9,0.2-1.1
				C168.5,112.4,168.6,112.4,168.7,112.4L168.7,112.4z M168.7,121v13.1c-0.7,0.1-1.3,0.4-1.2,1.3c0.2,1.2-0.3,1-1.2,1.7
				c-0.4,0.3-0.9,0.7-1.5,0.9v-8c1.4-0.4,2.2-1.9,1-3c-1.5-1.3-1-3.2-0.2-4.7C166.5,120.8,167,121.3,168.7,121L168.7,121z
				 M168.7,138.2v31.3c-0.3,0-0.6,0.1-0.8,0.1c-1.1,0.3-2.1,0.6-3,0.9v-31.9c0.4-0.1,0.9-0.1,1.5-0.1
				C167.3,138.6,168,138.4,168.7,138.2L168.7,138.2z M164.9,121c0.6-0.3,1.2-0.5,1.9-0.5c2.4,0-0.2-4.1,0.2-5.5
				c0.4-1.3,0.2-4.4-2.1-4.4V121z M164.9,110.7V121c-1.5,0.6-2.5,1.5-2.8-0.3c-0.4-2.4-0.6-2.3,1.7-3.2c2.3-0.9-0.9-7,0.8-6.8
				C164.7,110.8,164.8,110.8,164.9,110.7L164.9,110.7z M164.9,129.9v8c-0.6,0.2-1.3,0.2-2-0.2c-0.7-0.4-1.7-0.3-2.5-0.3v-7.7
				c1.5,0,1.9,0.3,3.7,0.3C164.3,130.1,164.6,130,164.9,129.9L164.9,129.9z M164.9,138.7v31.9c-0.8,0.3-1.6,0.5-2.4,0.8
				c-0.6,0.2-1.3-0.1-2.2-0.7v-30.2c0.3-0.2,0.6-0.3,1-0.3C162.7,139.8,163.2,139,164.9,138.7L164.9,138.7z M160.4,120.2
				c0.4-0.1,0.8-0.4,1-1c0.8-1.7,0.8-4.7-0.8-4.5c-0.1,0-0.2,0-0.2,0V120.2L160.4,120.2z M160.4,91.7v-2c0.1,0,0.3,0,0.4,0
				c1.3,0,2.3,2.3,0.6,2.3C161,92,160.6,91.8,160.4,91.7z M160.4,89.7v2C159.4,91.1,159.1,89.8,160.4,89.7L160.4,89.7z M160.4,114.7
				v5.5c-0.8,0.3-1.7-0.4-1.4-1.5C159.3,117,158.1,114.5,160.4,114.7L160.4,114.7z M160.4,129.7v7.7c-0.8,0-1.5-0.1-1.5-0.9
				c0-1.7-1.2-2.3-0.3-3.8c0.8-1.5,0-3,1.7-3L160.4,129.7L160.4,129.7z M160.4,140.4v30.2c-1.3-1-2.8-2.6-4.2-3.9
				c-1-1-2.3-2.2-3.3-3.3v-11.6c0.7-1.4,1.3-4.9,2.8-5.1c1.7-0.2,2.8-2,2.8-3.5C158.5,142.1,159.2,141,160.4,140.4L160.4,140.4z
				 M152.8,142.5c0.3,0,0.6-0.4,0.7-0.8c0.1-0.5-0.2-0.7-0.7-0.6V142.5L152.8,142.5z M152.8,103.1v-4c1.7,0,2.5,1.5,1.4,2.8
				C153.8,102.3,153.4,102.8,152.8,103.1z M152.8,99.1v4c-0.3,0.2-0.7,0.4-1,0.5v-4.4C152.2,99.2,152.5,99.1,152.8,99.1L152.8,99.1z
				 M152.8,141.1v1.4c-0.1,0-0.2-0.1-0.4-0.2c-0.5-0.6-0.4-0.9,0.2-1.1C152.7,141.1,152.8,141.1,152.8,141.1L152.8,141.1z
				 M152.8,151.8v11.6c-0.4-0.5-0.8-0.9-1-1.3v-2.4c1.3-1.2,0.7-1.6,0-2.5v-3.6c0.3-0.6,0.6-1.1,0.9-1.5
				C152.7,152,152.8,151.9,152.8,151.8L152.8,151.8z M151.8,146.5v-1.4c0.4-0.1,0.7,0.2,0.6,0.6
				C152.3,146.1,152.1,146.5,151.8,146.5z M151.8,99.3v4.4c-1.3,0.5-2.9,0.6-4.4-0.6l-0.1-0.1v-4.5c0.3-0.1,0.6-0.1,0.9,0.1
				C149.9,99.3,150.4,99.1,151.8,99.3L151.8,99.3L151.8,99.3z M151.8,145.1v1.4c-0.1,0-0.3,0-0.5-0.2c-0.5-0.6-0.4-0.9,0.2-1.1
				C151.6,145.2,151.7,145.1,151.8,145.1L151.8,145.1z M151.8,153.5v3.6c-0.1-0.1-0.2-0.2-0.3-0.4
				C151,155.9,151.3,154.7,151.8,153.5L151.8,153.5z M151.8,159.6v2.4c-0.6-0.9-0.8-1.8-0.1-2.3L151.8,159.6L151.8,159.6z
				 M147.3,83.9v-2.2l0,0c0.4,0,0.8,0,1.2,0c0,0.4-0.1,0.9-0.6,1.4C147.7,83.4,147.5,83.7,147.3,83.9L147.3,83.9z M149.7,141.9
				c0.5-0.3,1,0,0.8,0.5c-0.1,0.5-0.6,1.2-1,0.6C149,142.4,149.1,142.1,149.7,141.9z M113.8,120.1c0.1,0,0.2,0,0.3,0
				c1.9,0,0.5-1.3-0.3-2.5V120.1L113.8,120.1z M147.3,81.7v2.2c-0.9,1.2-0.8,2-2.7,2c-2.2,0,2.7,3.5,0.2,3.5c-2.5,0-3.3,3.2-0.8,2.8
				c2.5-0.3,2.4,0.8-0.3,2.1c-2.7,1.3-6.9,1.3-8.2,3.3c-1.3,2.1-6,1.9-6,3.8s-0.8,8.8-4.4,7.6c-3.6-1.3-4.4-4.9-5.8-7.1
				c-1.4-2.2,0.8-4.6-0.6-5.4c-1.4-0.8,3.2-4.4,1.6-3.3c-1.6,1.1-4.1-0.5-1.9-0.9c2.2-0.5,1.4-2.7-0.2-2.2c-1.2,0.4-2.5,0-2.1-0.9
				l0.5-0.2c0.9-0.5,1.9-0.9,2.9-1.4c0.7-0.3,1.3-0.6,2-0.9c0.3-0.1,0.6-0.3,0.9-0.4c1-0.4,2-0.8,3-1.1c6-2,12.3-3.2,18.9-3.4
				c0.7,0,1.3,0,2,0C146.5,81.7,146.9,81.7,147.3,81.7L147.3,81.7z M147.3,98.5c-1.3,0.4-2,2.8,0,4.5V98.5L147.3,98.5z M113.8,203.8
				v-36.1c1.7,1.2,3.3,2.3,4.8,2.3c2.1,0,1.7,2.1,1.7,4.1c0,2.1,2.7,2.1,5.5,3c2.8,0.9,4.1,0.8,6.9,2.5c2.8,1.7,3.5,2.7,2.1,4.7
				c-1.4,2.1-4.4,5.2-4.6,8.2c-0.2,3-2.1,5.8-4.1,6.2c-2.1,0.3-3.9,1.9-3.9,3.3c0,1.4-1.9,0.8-2.1,3.5c0,0.4-0.1,0.9-0.2,1.3
				c-1.2-0.5-2.4-1.1-3.5-1.7C115.5,204.8,114.7,204.3,113.8,203.8L113.8,203.8z M113.8,125.5v-4.6c0.1,0,0.2,0,0.3,0
				c2.5-0.1,2.8,1.8,3.5,3.3c0.7,1.5,0.2,3.1-2.1,2C114.9,125.9,114.3,125.7,113.8,125.5z M108.4,122.2c0.4,0.4,0.7,0.6,1.1-0.2
				c0.6-1.1,1.8-1.8,4.3-1.9v-2.5c-0.4-0.5-0.6-1-0.5-1.3c0.5-1.1-1.9-1.6-3.2-2.8c-0.9-0.9-1-3.2-1.8-4.4V122.2L108.4,122.2z
				 M113.8,120.8v4.6c-1.2-0.5-1.6-1-1-2.6C113.7,120.8,112.8,120.8,113.8,120.8L113.8,120.8z M113.8,167.7v36.1l-0.2-0.1
				c-1.8-1-3.5-2.1-5.2-3.3v-35.2c1,0.1,2,0.4,3.2,1.1C112.4,166.7,113.1,167.2,113.8,167.7L113.8,167.7z M108.4,129.4v-2
				c1.3-0.1,1.5,2.1,0.3,2.1C108.6,129.4,108.5,129.4,108.4,129.4L108.4,129.4z M108.4,99.8v-2C109,98.7,109.1,99.6,108.4,99.8z
				 M106.4,127.5c0.1-0.1,0.1-0.2,0.2-0.2c0.9-1.1,0.5-2.3-0.2-3.1V127.5L106.4,127.5z M106.4,121.2c0.5-0.1,0.9,0,1.1,0.2
				c0.4,0.3,0.7,0.6,0.9,0.8v-13.1c-0.3-0.5-0.7-0.8-1.2-0.8c-0.4,0-0.6,0-0.8,0.1V121.2L106.4,121.2z M108.4,97.8v2
				c-0.2,0.1-0.4,0-0.8,0c-0.5-0.1-0.9-0.2-1.3-0.2v-3.3c0.1,0,0.1,0.1,0.2,0.1C107.4,96.6,108,97.2,108.4,97.8L108.4,97.8z
				 M108.4,127.3v2c-1.1-0.2-1.6-1.8-0.3-2C108.2,127.3,108.3,127.3,108.4,127.3L108.4,127.3z M108.4,165.1v35.2
				c-0.7-0.5-1.4-1-2.1-1.5v-33.8C107,165.1,107.7,165,108.4,165.1L108.4,165.1z M106.4,158.3v-0.4
				C106.5,158,106.6,158.2,106.4,158.3L106.4,158.3z M106.4,130.1c0.1,0,0.1,0,0.2,0c0.9,0,0.7-1.6-0.2-1.5V130.1L106.4,130.1z
				 M106.4,105.2v-2.9C107.3,103.4,107,104.6,106.4,105.2z M103.3,129.6c0.9-0.4,2-0.9,3-2.1v-3.4c-0.7-0.9-1.9-1.4-2.7-1.4
				c-1.2,0,1-1.2,2.7-1.4v-12.9c-0.8,0.3-0.1,1.4-1.4,1.8c-0.7,0.2-1.2,0.2-1.6-0.1V129.6L103.3,129.6z M106.4,96.2v3.3
				c-1.4,0-2.1,0.8-0.4,2.3c0.2,0.2,0.3,0.3,0.4,0.5v2.9c-0.4,0.3-0.9,0.4-1.4,0.2c-0.4-0.2-1-0.4-1.6-0.6v-7.1
				c0.8-0.7,1.6-1.3,2.4-2C105.9,95.9,106.1,96.1,106.4,96.2L106.4,96.2z M106.4,128.6v1.5c-0.8-0.2-1.2-1.3-0.2-1.5
				C106.2,128.6,106.3,128.6,106.4,128.6L106.4,128.6z M106.4,157.9v0.4c-0.1,0.1-0.4,0.1-0.8,0.1c-1.9-0.1-3.1-1.2-0.7-1.1
				C105.5,157.3,106.1,157.6,106.4,157.9L106.4,157.9z M106.4,165.1v33.8c-1-0.8-2-1.6-3-2.5v-31.1c0.6,0,1.3-0.1,1.8-0.1
				C105.5,165.1,105.9,165.1,106.4,165.1z M100.8,132.1c0.3-0.5,0.6-1.1,1-1.5c0.4-0.4,0.9-0.7,1.5-0.9v-19.5
				c-0.5-0.3-0.7-0.9-0.7-1.7c0-0.6-0.8-1.4-1.8-2.2V132.1L100.8,132.1z M103.3,97.7v7.1c-0.7-0.3-1.6-0.6-2.5-0.9V100
				c0.5-0.4,0.9-0.9,1.4-1.3C102.6,98.3,103,98,103.3,97.7L103.3,97.7L103.3,97.7z M103.3,165.2v31.1c-0.4-0.3-0.8-0.7-1.1-1
				c-0.5-0.4-1-0.9-1.4-1.3v-29.3C101.4,165.3,102.4,165.3,103.3,165.2L103.3,165.2z M100.8,158.1v-2.2c0.2,0,0.3,0,0.5,0
				c1.4-0.1,1.2,2.2-0.2,2.2C101,158.1,100.9,158.1,100.8,158.1z M95.4,140.1c0.4-0.4,0.7-0.8,0.7-1.2c0-1.4,0.9-5.4,2.7-5.4
				c1,0,1.5-0.7,2-1.5v-25.8c-1.2-0.9-2.9-1.6-4.2-1.8c-0.4,0.5-0.8,0.9-1.2,1.4V140.1L95.4,140.1z M100.8,100v3.9
				c-1-0.3-2-0.6-3-0.8c0.7-0.8,1.4-1.5,2.1-2.2C100.2,100.6,100.5,100.3,100.8,100L100.8,100z M100.8,155.9v2.2
				C99.5,157.9,98.3,156.1,100.8,155.9L100.8,155.9z M100.8,164.7V194c-0.2-0.2-0.3-0.3-0.5-0.5c-0.7-0.8-1.5-1.9-2.4-2.5l-0.1-0.1
				c-0.8-0.9-1.6-1.8-2.4-2.8v-22.9c0.7,0,1.3,0,1.8-0.3c1.3-0.8,2.5-2.4,3.2-0.8C100.5,164.4,100.6,164.6,100.8,164.7L100.8,164.7z
				 M95.4,155.3V154c1.3,0.3,2.1,1.3,0.7,1.3C95.8,155.3,95.6,155.3,95.4,155.3L95.4,155.3z M95.4,151.4v-1.8c1.4,0.7,2.4,2.7,1.2,2
				C96.2,151.4,95.8,151.4,95.4,151.4z M91.4,148.7c0.5,0.3,0.8-0.2,0.8-1.4c0-2.2-0.6-3.5,0.2-4.7c0.5-0.9,2.1-1.6,3.1-2.4v-34.3
				c-0.2,0.3-0.4,0.6-0.7,0.8c-0.5,0.6-1,1.2-1.4,1.9c0.1,0.6,0.2,1.1,0.3,1.6c0.5,2.2,1.6,3.8,0.3,3.8c-1.3,0-1.3,1.9-1.4,4.9
				c-0.1,1.5-0.6,1.3-1.1,0.5V148.7L91.4,148.7z M95.4,149.7v1.8c-0.7,0.1-1.3,0.6-1.9,0.3c-0.9-0.5-0.7-2,0.8-2.3
				C94.7,149.4,95.1,149.5,95.4,149.7L95.4,149.7z M95.4,154v1.3c-1.3-0.3-2.1-1.3-0.7-1.3C95,153.9,95.2,154,95.4,154L95.4,154z
				 M95.4,165.3v22.9l-0.1-0.1c0-0.2,0-0.4,0-0.5c0-1.2-2.6-3.3-3.9-5.1v-6.7c0,0,0.1-0.1,0.2-0.1c1.7-0.8,0.9-3.2,2.7-3.6
				c1.7-0.5,0.6-2.4,0-3.6c-0.3-0.7-1.6-0.6-2.8-0.6v-2.5c0.4,0.1,0.8,0.1,1.1-0.1C93.3,165,94.4,165.2,95.4,165.3L95.4,165.3z
				 M91.4,153.7V152c1.4,0.3,2.2,1.9,0.6,1.7C91.8,153.8,91.6,153.7,91.4,153.7z M82.2,133.9c-0.2,1.1-0.4,2.1-0.6,3.2
				c-0.2,1.1-0.3,2.2-0.4,3.3c-0.2,1.8-0.3,3.6-0.3,5.4c0.8,0,1.5,0.1,2.2-0.2c1.6-0.6,4.6-1.4,6.5,1.1c0.8,1.1,1.5,1.8,1.9,2v-29.3
				c-0.5-0.8-1-2-1-2.7c0-0.6-0.5-1.1-1.4-1.5c-0.4,0.7-0.8,1.4-1.1,2.1c-0.2,0.5-0.5,0.9-0.7,1.4c-0.7,1.4-1.3,2.9-1.9,4.4
				c-0.2,0.5-0.4,1-0.6,1.5c-0.7,2-1.4,4-1.9,6.1C82.6,131.7,82.4,132.8,82.2,133.9L82.2,133.9z M91.4,152v1.6
				c-1.5-0.4-2.2-1.9-0.5-1.7C91.1,152,91.3,152,91.4,152L91.4,152z M91.4,165.3c-1-0.2-2-1.1-2.7-2.3c-0.9-1.6,0.6-3.3-1.7-3.3
				c-2.4,0-0.7-5.3-0.7-6.9c0-1.5-3.2,1.2-4.9,2.8c0.1,0.4,0.1,0.8,0.2,1.3c0.2,1.1,0.4,2.2,0.6,3.2c0.1,0.4,0.2,0.8,0.3,1.2
				c0.9,0.5,1.7,0.9,2.8,0.9c2.7,0,2.8,3.6,3.6,4.9c0.4,0.6,1.4,0.6,2.5,0.6V165.3L91.4,165.3z M91.4,175.8v6.7
				c-0.2-0.3-0.4-0.5-0.5-0.8C90,179.9,89.8,176.7,91.4,175.8z"/>
		</g>
		<g>
			<path fill-rule="evenodd" clip-rule="evenodd" fill="#0081BA" d="M161.7,54.2c-14.5,0-26.3,11.8-26.3,26.3c0,3.1,0.8,7.3,2,10.1
				l24.3,56.3l24.4-56.6c1.1-2.5,1.9-6.7,1.9-9.8C188,66,176.2,54.2,161.7,54.2z"/>
			<path fill-rule="evenodd" clip-rule="evenodd" fill="#FFFEFB" d="M161.7,102c11.9,0,21.6-9.7,21.6-21.6s-9.7-21.6-21.6-21.6
				c-11.9,0-21.6,9.7-21.6,21.6S149.8,102,161.7,102z"/>
		</g>
		<g>
			<path fill-rule="evenodd" clip-rule="evenodd" fill="#EBAD27" d="M104.6,118.7c-8.4,0-15.3,6.8-15.3,15.3c0,1.8,0.5,4.3,1.2,5.8
				l14.1,32.7l14.2-32.9c0.6-1.4,1.1-3.9,1.1-5.7C119.8,125.5,113,118.7,104.6,118.7z"/>
			<path fill-rule="evenodd" clip-rule="evenodd" fill="#FFFEFB" d="M104.6,146.5c6.9,0,12.5-5.6,12.5-12.5
				c0-6.9-5.6-12.5-12.5-12.5c-6.9,0-12.5,5.6-12.5,12.5C92,140.9,97.7,146.5,104.6,146.5z"/>
		</g>
	</g>
</g>
</svg>
