<?xml version="1.0" encoding="utf-8"?>
<!-- Generator: Adobe Illustrator 18.0.0, SVG Export Plug-In . SVG Version: 6.00 Build 0)  -->
<!DOCTYPE svg PUBLIC "-//W3C//DTD SVG 1.1//EN" "http://www.w3.org/Graphics/SVG/1.1/DTD/svg11.dtd">
<svg version="1.1" id="Layer_1" xmlns="http://www.w3.org/2000/svg" xmlns:xlink="http://www.w3.org/1999/xlink" x="0px" y="0px"
	 viewBox="0 0 227.3 228.7" enable-background="new 0 0 227.3 228.7" xml:space="preserve">
<g>
	<g>
		<circle fill="#92CCB9" cx="113.7" cy="112.9" r="108.7"/>
		<g>
			<path fill="#74AC99" d="M113.7,4.2v217.4c60,0,108.7-48.7,108.7-108.7S173.7,4.2,113.7,4.2z"/>
		</g>
	</g>
	<g>
		<g>
			<path fill="#0F3854" d="M178.6,218.7c0,3.2-2.6,5.8-5.8,5.8H54.5c-3.2,0-5.8-2.6-5.8-5.8V66.2c0-3.2,2.6-5.8,5.8-5.8h118.3
				c3.2,0,5.8,2.6,5.8,5.8V218.7z"/>
			<path fill="#165079" d="M178.6,214.3c0,3.2-2.6,5.8-5.8,5.8H54.5c-3.2,0-5.8-2.6-5.8-5.8V61.8c0-3.2,2.6-5.8,5.8-5.8h118.3
				c3.2,0,5.8,2.6,5.8,5.8V214.3z"/>
			<rect x="59.2" y="66.4" fill="#FFFFFF" width="108.9" height="143.2"/>
			<rect x="59.2" y="204.9" fill="#D1EBFA" width="108.9" height="4.7"/>
			<path fill="#DD3F1A" d="M139,74v-5.8c0-1.9-1.6-3.5-3.5-3.5H91.9c-1.9,0-3.5,1.6-3.5,3.5V74H139z"/>
			<path fill="#EC632B" d="M139,71.5v-5.8c0-1.9-1.6-3.5-3.5-3.5H91.9c-1.9,0-3.5,1.6-3.5,3.5v5.8H139z"/>
			<circle fill="#EC632B" cx="113.7" cy="61.8" r="8.2"/>
			<path fill="#0F3854" d="M117.2,61.8c0,1.9-1.6,3.5-3.5,3.5c-1.9,0-3.5-1.6-3.5-3.5c0-1.9,1.6-3.5,3.5-3.5
				C115.6,58.3,117.2,59.8,117.2,61.8z"/>
			<g>
				<rect x="85.6" y="104.7" fill="#A6D9E7" width="67.9" height="3.6"/>
				<rect x="85.6" y="119.4" fill="#A6D9E7" width="67.9" height="3.6"/>
				<rect x="85.6" y="134" fill="#A6D9E7" width="67.9" height="3.6"/>
				<rect x="85.6" y="148.7" fill="#A6D9E7" width="67.9" height="3.6"/>
			</g>
			<g>
				<path fill="#EC632B" d="M73,110.7c-0.4,0-0.9-0.2-1.2-0.5l-2.7-2.8c-0.6-0.6-0.6-1.7,0.1-2.3c0.7-0.6,1.7-0.6,2.3,0.1l1.4,1.5
					l4.7-5.8c0.6-0.7,1.6-0.8,2.3-0.2c0.7,0.6,0.8,1.6,0.2,2.3l-5.9,7.2C73.9,110.5,73.5,110.7,73,110.7C73,110.7,73,110.7,73,110.7
					L73,110.7z"/>
			</g>
			<g>
				<path fill="#EC632B" d="M73,124.8c-0.4,0-0.9-0.2-1.2-0.5l-2.7-2.8c-0.6-0.7-0.6-1.7,0.1-2.3c0.7-0.6,1.7-0.6,2.3,0.1l1.4,1.5
					l4.7-5.8c0.6-0.7,1.6-0.8,2.3-0.2c0.7,0.6,0.8,1.6,0.2,2.3l-5.9,7.2C73.9,124.6,73.5,124.8,73,124.8C73,124.8,73,124.8,73,124.8
					L73,124.8z"/>
			</g>
			<g>
				<path fill="#EC632B" d="M73,138.9c-0.4,0-0.9-0.2-1.2-0.5l-2.7-2.8c-0.6-0.6-0.6-1.7,0.1-2.3c0.7-0.6,1.7-0.6,2.3,0.1l1.4,1.5
					l4.7-5.8c0.6-0.7,1.6-0.8,2.3-0.2c0.7,0.6,0.8,1.6,0.2,2.3l-5.9,7.2C73.9,138.6,73.5,138.8,73,138.9C73,138.9,73,138.9,73,138.9
					L73,138.9z"/>
			</g>
		</g>
		<g>
			<g>
				<path fill="#EC632B" d="M138.9,183.5c-0.6,0-1.3-0.3-1.7-0.7l-3.9-4.1c-0.9-0.9-0.9-2.5,0.1-3.4c0.9-0.9,2.5-0.9,3.4,0.1l2,2.1
					l6.9-8.4c0.8-1,2.3-1.2,3.3-0.3c1,0.8,1.2,2.3,0.3,3.3l-8.6,10.5C140.3,183.2,139.7,183.5,138.9,183.5
					C139,183.5,139,183.5,138.9,183.5L138.9,183.5z"/>
			</g>
			<path fill="#EC632B" d="M141.3,160.4c-8.6,0-15.5,6.9-15.5,15.5c0,8.6,6.9,15.5,15.5,15.5c8.6,0,15.5-6.9,15.5-15.5
				C156.8,167.3,149.9,160.4,141.3,160.4z M141.3,187.6c-6.5,0-11.7-5.2-11.7-11.7c0-6.5,5.3-11.7,11.7-11.7
				c6.5,0,11.7,5.2,11.7,11.7C153,182.4,147.8,187.6,141.3,187.6z"/>
		</g>
	</g>
</g>
</svg>
