<?xml version="1.0" encoding="utf-8"?>
<!-- Generator: Adobe Illustrator 18.0.0, SVG Export Plug-In . SVG Version: 6.00 Build 0)  -->
<!DOCTYPE svg PUBLIC "-//W3C//DTD SVG 1.1//EN" "http://www.w3.org/Graphics/SVG/1.1/DTD/svg11.dtd">
<svg version="1.1" id="Layer_1" xmlns="http://www.w3.org/2000/svg" xmlns:xlink="http://www.w3.org/1999/xlink" x="0px" y="0px"
	 viewBox="0 0 227.3 228.7" enable-background="new 0 0 227.3 228.7" xml:space="preserve">
<g>
	<g>
		<circle fill="#FED063" cx="113.7" cy="114.3" r="108.7"/>
		<g>
			<path fill="#EEC15C" d="M113.7,5.6v217.4c60,0,108.7-48.7,108.7-108.7C222.4,54.3,173.7,5.6,113.7,5.6z"/>
		</g>
	</g>
	<g>
		<g>
			<polygon fill="#4C657C" points="63.5,67.4 46.9,67.4 63.5,50.8 			"/>
			<polygon fill="#FFFFFF" points="63.5,50.8 63.5,67.4 46.9,67.4 46.9,145.1 118.2,145.1 118.2,50.8 			"/>
			<g>
				<line fill="none" stroke="#ED6D6F" stroke-width="2.9846" stroke-miterlimit="10" x1="57.9" y1="87.9" x2="57.9" y2="96.1"/>
				<line fill="none" stroke="#ED6D6F" stroke-width="2.9846" stroke-miterlimit="10" x1="63" y1="84.2" x2="63" y2="96.1"/>
				<line fill="none" stroke="#ED6D6F" stroke-width="2.9846" stroke-miterlimit="10" x1="68" y1="81.2" x2="68" y2="96.1"/>
				<line fill="none" stroke="#ED6D6F" stroke-width="2.9846" stroke-miterlimit="10" x1="73.1" y1="85.7" x2="73.1" y2="96.1"/>
				<line fill="none" stroke="#ED6D6F" stroke-width="2.9846" stroke-miterlimit="10" x1="78.1" y1="87.9" x2="78.1" y2="96.1"/>
			</g>
			<g>
				<line fill="none" stroke="#ED6D6F" stroke-width="2.9846" stroke-miterlimit="10" x1="87.8" y1="78.2" x2="87.8" y2="96.1"/>
				<line fill="none" stroke="#ED6D6F" stroke-width="2.9846" stroke-miterlimit="10" x1="92.8" y1="84.2" x2="92.8" y2="96.1"/>
				<line fill="none" stroke="#ED6D6F" stroke-width="2.9846" stroke-miterlimit="10" x1="97.9" y1="87.9" x2="97.9" y2="96.1"/>
				<line fill="none" stroke="#ED6D6F" stroke-width="2.9846" stroke-miterlimit="10" x1="102.9" y1="83.4" x2="102.9" y2="96.1"/>
				<line fill="none" stroke="#ED6D6F" stroke-width="2.9846" stroke-miterlimit="10" x1="107.9" y1="87.9" x2="107.9" y2="96.1"/>
			</g>
			<rect x="77.5" y="58.1" fill="#4C96D2" width="25" height="5.4"/>
			<rect x="73.1" y="66.4" fill="#BEC4C9" width="34.1" height="2.2"/>
			<rect x="73.1" y="70.2" fill="#BEC4C9" width="34.1" height="2.2"/>
			<rect x="82.5" y="108.2" fill="#BEC4C9" width="28.1" height="2.2"/>
			<rect x="82.5" y="114.9" fill="#BEC4C9" width="28.1" height="2.2"/>
			<rect x="82.5" y="121.7" fill="#BEC4C9" width="28.1" height="2.2"/>
			<rect x="82.5" y="128.4" fill="#BEC4C9" width="17.7" height="2.2"/>
			<rect x="56.7" y="104.9" fill="#BEC4C9" width="20.8" height="28.9"/>
		</g>
		<g>
			<g>
				<g>
					<path fill="#E0B95D" d="M180.4,148.8l-9.7,13h-64.5l0.8-63.5h70.2c1.7,0,3.1,1.4,3.1,3.1V148.8z"/>
					<rect x="104" y="101.3" fill="#D7D8D8" width="73.4" height="50.5"/>
					<rect x="101.8" y="103.5" fill="#EFF0F0" width="73.4" height="50.5"/>
					<rect x="99.6" y="105.8" fill="#FFFFFF" width="73.4" height="50.5"/>
					<path fill="#59BDB8" d="M120,108.4v-6.8c0-1.7-1.4-3.1-3.1-3.1H99.4c-1.7,0-3.1,1.4-3.1,3.1c0,13,0,53.8,0,60.3h74.4v-50.3
						c0-1.7-1.4-3.1-3.1-3.1H120z"/>
				</g>
				<g>
					<path fill="#21A292" d="M147.9,144.5H119c-2,0-3.7-1.7-3.7-3.7v-15.5c0-2,1.7-3.7,3.7-3.7h28.9c2,0,3.7,1.7,3.7,3.7v15.5
						C151.6,142.9,150,144.5,147.9,144.5z"/>
				</g>
				<g>
					<path fill="#FFFFFF" d="M147.9,123.1c1.2,0,2.2,1,2.2,2.2v15.5c0,1.2-1,2.2-2.2,2.2H119c-1.2,0-2.2-1-2.2-2.2v-15.5
						c0-1.2,1-2.2,2.2-2.2H147.9 M147.9,121.7H119c-2,0-3.7,1.7-3.7,3.7v15.5c0,2,1.7,3.7,3.7,3.7h28.9c2,0,3.7-1.7,3.7-3.7v-15.5
						C151.6,123.3,150,121.7,147.9,121.7L147.9,121.7z"/>
				</g>
			</g>
			<line fill="none" stroke="#ED6D6F" stroke-width="6.7154" stroke-miterlimit="10" x1="158.7" y1="105.8" x2="158.7" y2="98.3"/>
			<line fill="none" stroke="#ED6D6F" stroke-width="6.7154" stroke-miterlimit="10" x1="166.9" y1="103.5" x2="166.9" y2="96.1"/>
		</g>
		<g>
			<path fill="#4C657C" d="M144,59.1c-9.4,0-17,7.6-17,17s7.6,17,17,17c4.7,0,9-1.9,12-5l-12-11.6V59.1z"/>
			<path fill="#ED6D6F" d="M158.8,63.9L147,76.5l12,11.6c3-3,4.7-6.9,5-11.2C164.3,72,162.3,67.2,158.8,63.9z"/>
			<path fill="#FFFFFF" d="M158.1,61.6c-3.2-3.1-7.4-4.8-11.8-4.8v17.4L158.1,61.6z"/>
		</g>
		<g>
			<path fill="none" stroke="#3D5164" stroke-width="3.7308" stroke-linecap="round" stroke-miterlimit="10" d="M55.4,162.1l57,0.1
				c9.8,0,19.3,2.9,27.5,8.2l11.5,7.4"/>
			<path fill="none" stroke="#3D5164" stroke-width="3.7308" stroke-linecap="round" stroke-miterlimit="10" d="M151.4,162.1
				l-57,0.1c-9.8,0-19.3,2.9-27.5,8.2l-11.5,7.4"/>
			<path opacity="0.6" fill="#4C96D2" d="M96.9,169.2c-0.6,1.7-2.6,3.4-4.3,3.6c-9.1,1.2-18.2,1.2-27.4,0c-1.7-0.2-3.8-1.9-4.3-3.6
				c-1.4-4.6-1.4-9.1,0-13.7c0.6-1.7,2.6-3.4,4.3-3.6c9.1-1.2,18.2-1.2,27.4,0c1.7,0.2,3.8,1.9,4.3,3.6
				C98.3,160,98.3,164.6,96.9,169.2z"/>
			<path opacity="0.19" fill="#010202" d="M70.4,167.8c-1.7-0.2-3.8-1.9-4.3-3.6c-1.3-4.1-1.4-8.3-0.4-12.4c-0.2,0-0.3,0-0.5,0.1
				c-1.7,0.2-3.8,1.9-4.3,3.6c-1.4,4.6-1.4,9.1,0,13.7c0.6,1.7,2.6,3.4,4.3,3.6c9.1,1.2,18.2,1.2,27.4,0c1.7-0.2,3.8-1.9,4.3-3.6
				c0.1-0.4,0.3-0.9,0.4-1.3C88.3,169,79.4,169,70.4,167.8z"/>
			<path fill="none" stroke="#354C5F" stroke-width="3.7308" stroke-miterlimit="10" d="M96.9,169.2c-0.6,1.7-2.6,3.4-4.3,3.6
				c-9.1,1.2-18.2,1.2-27.4,0c-1.7-0.2-3.8-1.9-4.3-3.6c-1.4-4.6-1.4-9.1,0-13.7c0.6-1.7,2.6-3.4,4.3-3.6c9.1-1.2,18.2-1.2,27.4,0
				c1.7,0.2,3.8,1.9,4.3,3.6C98.3,160,98.3,164.6,96.9,169.2z"/>
			<path opacity="0.6" fill="#4C96D2" d="M145.4,169.2c-0.6,1.7-2.6,3.4-4.3,3.6c-9.1,1.2-18.2,1.2-27.4,0c-1.7-0.2-3.8-1.9-4.3-3.6
				c-1.4-4.6-1.4-9.1,0-13.7c0.6-1.7,2.6-3.4,4.3-3.6c9.1-1.2,18.2-1.2,27.4,0c1.7,0.2,3.8,1.9,4.3,3.6
				C146.8,160,146.8,164.6,145.4,169.2z"/>
			<path opacity="0.19" fill="#010202" d="M118.9,167.8c-1.7-0.2-3.8-1.9-4.3-3.6c-1.3-4.1-1.4-8.3-0.4-12.4c-0.2,0-0.3,0-0.5,0.1
				c-1.7,0.2-3.8,1.9-4.3,3.6c-1.4,4.6-1.4,9.1,0,13.7c0.6,1.7,2.6,3.4,4.3,3.6c9.1,1.2,18.2,1.2,27.4,0c1.7-0.2,3.8-1.9,4.3-3.6
				c0.1-0.4,0.3-0.9,0.4-1.3C136.8,169,127.9,169,118.9,167.8z"/>
			<path fill="none" stroke="#354C5F" stroke-width="3.7308" stroke-miterlimit="10" d="M145.4,169.2c-0.6,1.7-2.6,3.4-4.3,3.6
				c-9.1,1.2-18.2,1.2-27.4,0c-1.7-0.2-3.8-1.9-4.3-3.6c-1.4-4.6-1.4-9.1,0-13.7c0.6-1.7,2.6-3.4,4.3-3.6c9.1-1.2,18.2-1.2,27.4,0
				c1.7,0.2,3.8,1.9,4.3,3.6C146.8,160,146.8,164.6,145.4,169.2z"/>
			<g>
				<path fill="none" stroke="#354C5F" stroke-width="3.7308" stroke-miterlimit="10" d="M97.3,162.1c3.8-1.7,8.2-1.7,12,0"/>
			</g>
		</g>
	</g>
</g>
</svg>
