<?xml version="1.0" encoding="utf-8"?>
<!-- Generator: Adobe Illustrator 18.0.0, SVG Export Plug-In . SVG Version: 6.00 Build 0)  -->
<!DOCTYPE svg PUBLIC "-//W3C//DTD SVG 1.1//EN" "http://www.w3.org/Graphics/SVG/1.1/DTD/svg11.dtd">
<svg version="1.1" id="Layer_1" xmlns="http://www.w3.org/2000/svg" xmlns:xlink="http://www.w3.org/1999/xlink" x="0px" y="0px"
	 viewBox="0 0 227.3 228.7" enable-background="new 0 0 227.3 228.7" xml:space="preserve">
<g>
	<g>
		<path fill="#EEEDEE" d="M141.3,64.7c-27.5-15.3-62.1-5.4-77.3,22.1c-15.2,27.4-5.3,62,22.1,77.3c0.1,0,0.1,0.1,0.2,0.1l55.2-99.3
			C141.4,64.7,141.3,64.7,141.3,64.7z"/>
		<path fill="#FFFFFF" d="M163.4,142c15.2-27.4,5.4-61.9-21.9-77.2l-55.2,99.3C113.7,179.2,148.2,169.3,163.4,142z"/>
		<path fill="#009FA0" d="M170.1,122.1l-2.6-1.4l-0.5-2.2l1-2.4l-1.7,0l-2.3,2.4l-0.8-3.1l1-2l-1-2.6l-0.3-1.1l-2.2-1.2l-0.4,2.3
			l1.8,2.9l0.2,0.7l-0.7,0l-0.8,1.5l-1.6-0.2l-0.9-0.8l-0.1-1.3l1.7,1.1l0.8-0.4l-2.4-4.8l0.3-1.3l-2.4,0.6l-1.4-1.2l-4.2,1.8
			l-1.2,1l-1.6-0.7l-2.3-1.3l-1-1.4l1.1-3l1.2-1l2.6,0.8l2.3,1.9l1.1-1.2l-0.9-0.9l1.6-2l2.8,1l3.2-1.5l2,0.7l1.5,1.2l0.6,0.3l1-2.6
			l-2.5-0.3l0.3-2.2l-1.1-0.8l0.5-1.3l1.6-0.5l2.8,0.4l1.2-0.7c-4.5-12.6-13.3-23.6-25.8-30.6l-5,9l0.7,0.9l-1,1.8l1.3,1.2l-1.5,1
			l-1.7-0.9l-3.6,6.5l0.7,1.2l-1,1.7l-1.1-0.2l-0.7,1.2l1.1,1.5l-0.7,1.2l-0.7-0.3c0,0,0,0,0,0l-0.6-0.7L109.1,123l1,1.2l4.4,2.5
			l0.1,2.8l1.6,1.7l-1.3,1.5l-3.6,1.5l-3.9,5.6l-2.8,0.5l-2.8-1.7l-1.9,1.1l0,0l-1,3.5l-1.2,0.5l-11.3,20.4
			c15.5,8.6,33.4,9.1,48.7,3l-1.6-0.9l1.8-3.3l-0.5-3.6l2.2-4l-0.7-2.3l0.8-1.7l3.8-2.5l-0.1-8.1l2.7-3.9l-3-2.1l-0.5-1.8l-2.1-1.2
			l-1.6,0.4l-3.7-2.1l-0.3,0.3l-2.1-1.1l-1.7-8.1l2.4-4.2l0.9,0.1l1.2-1.5l-1.1-0.6l0.5-1.9l7.7-0.9l1.6-2.8h3.5l1,0.7l2.2,1.2
			l2.3,0l5.8,2.7l-1.6,2.9l3.8,3.6l0.5,1.1l0.8,0.4l0.9-1.6l2.7,1.2l1.4,3.1l4,2.2l0.4-0.1C169.6,125.3,169.9,123.7,170.1,122.1z
			 M154.5,94.9l0.8-0.4l1.8,0.6l-0.7,2.2l0.1,1.9l0.2,1l0.8,1l-1.6,0.6l-2-0.9l-1.4-0.8l1.1-1.6l1.3,0.4l0.3-0.9l-0.7-1.3l-0.5-1
			L154.5,94.9z M150.1,96.5l1.9-1l1.5,0.4l0.7,0.9l-0.7,1l-2.8,0.3l-1.2-0.6L150.1,96.5z"/>
		<polygon fill="#124346" points="99.8,139.7 99.8,139.7 99.8,139.7 		"/>
		<path fill="#007973" d="M93.5,145.5l-2,1.3l-3.7-0.2l-2.1-0.8l-0.5,0.8l1.1,1.1l-0.7,0.8l-1.9,0.5l0.2,1.3l1.4,0.9l-0.7,1.1
			l-1,0.9L83,154l1.2,3l-0.8,0.8l-2.9-1.7l-1.5-4.2l-0.1-5.3l2.5-3.7l-0.4-3.3l2.9-3.5l-0.9-0.9l4.7-8.5c0,0-1.7-3.8-1.8-3.9
			c-0.2-0.1-1.3-1.2-1.3-1.2l0.6-1.8l-1.1-6.8l1.3-1.5l1.7-2.7l3.6-0.4l1.4-3.3l-3.6-2.4l-1.1-5l-1.8-1.7l-1.2-1l0.9-1.1l-1.6-1.2
			L83,93.3l-3.7-3.5L79,86.1l1.4-0.9l-0.5-5.5l1.2-3.2l-1.1-0.6l-1.2,3.1l0.3,4l-0.9,1l-1.5-1.1l-0.1-4.5l2.2-3.9l-1.5-2.1l1.6-2.8
			C72.9,74,67.8,79.8,64,86.7c-15.2,27.4-5.3,62.2,22.1,77.4c0,0,0.1,0,0.1,0.1l11.3-20.4L93.5,145.5z"/>
		<path fill="#007973" d="M126,87.9l0.4-1l0,0l1.1-0.1l0.4-0.8l-0.7-0.7l-0.6,0.6l-1.7-0.6l-0.1-0.1l0,0.1l-0.6-0.2l0.1-1.1
			l-0.4-0.5l-1.1-0.6L122,83l-0.5,0.9l0.8,0.8l0.8,0.6l-0.3,0l-1.4,0.5l-0.1-0.7l-0.7-0.7l-3.4,0.8l0.2,0.4l-4.3,0l-4.8,1.5l-1,1.3
			l-4.2,0.3l-2.4,0.7l-1.5,3.2l-1.6-2.2l1-1.8l-5.9-3.3L89,85.3L86.4,87l-1.6,1.6L84.6,91l2.2,1.6l5.2-0.4l-0.4,1.4l-2.4,1.5
			l2.6,2.1l-2.2,4.6l3.6,2.9l4.1-1.5l2.7,2.3l0.2,2.1l3,1.5l0.6-0.8l1.2,1.7l0.2,3.9l3.1,1.8l0,2.7l-1.2,2.6l1.8,2.1l18.5-33.4
			L126,87.9z M119.7,87.6l-1.1-0.5l0.5-0.7l0.8-0.3l0.4,0.8L119.7,87.6z M124,88.4l-0.7-0.3l-0.5,0.6l-0.7,0l-0.9-0.4
			c0.1-0.2,0.2-0.4,0.2-0.4l-0.3-0.2l0.4-0.7l1.4,0.8l0.7-0.6l0.6,0.3l0.6,0.5L124,88.4z"/>
		<path fill="#007973" d="M141.4,64.6c-10.9-6.1-23-8.1-34.5-6.7l2.5,1.4l0.8,1.2l1.9,1.6l-0.3,0.9l3.3,2l0.1-1.3l-2.9-1.7l1.1-0.3
			l0.2-0.9l-2.7-1.5l4.2-0.6l2.8,1.6l0.3,2.6l2.1,1.3l2-0.6l0.7,1l-2.8,0.8c0,0-2.5-1.4-2.4-1.3c0.1,0.1-0.8,1.9-0.8,1.9l3.1,1.6
			l0.8-0.6l2.2,1l0.9-1.1l-1.1-0.9l1-0.9l1.1,0.2l3.2,2l-2.7,0.6l-0.4,1.4l1.7,1.3l1.2-2.4l2.3,0.1l3.4,1.4l2.8,3.7l5-9
			C141.5,64.6,141.4,64.6,141.4,64.6z"/>
		<polygon fill="#007973" points="133.9,77.3 132.4,78.6 128.2,74.8 133.1,74.9 132.3,72.8 128.9,71.4 128.4,71.6 128.4,71.6 
			128.3,71.6 126.8,72.1 125.2,71.3 124.9,72.2 125.3,72.7 125.1,72.9 123.8,72.4 123.3,73.1 122,72.5 122.6,70.9 120.1,70.4 
			114.2,70.5 113.7,72.6 114.5,74.1 116.8,75.8 115.2,78.7 116.5,79.1 118.7,77.5 121.8,78.1 123.7,74.7 125.8,74.4 128.9,77.2 
			127.4,79.3 128.3,79.9 131.7,80 130.2,83 130.7,84.1 134.3,77.6 		"/>
		<polygon fill="#007973" points="128.2,86.6 128,87.2 128.6,88 129.2,86.7 		"/>
	</g>
</g>
</svg>
