<?xml version="1.0" encoding="utf-8"?>
<!-- Generator: Adobe Illustrator 18.0.0, SVG Export Plug-In . SVG Version: 6.00 Build 0)  -->
<!DOCTYPE svg PUBLIC "-//W3C//DTD SVG 1.1//EN" "http://www.w3.org/Graphics/SVG/1.1/DTD/svg11.dtd">
<svg version="1.1" id="Layer_1" xmlns="http://www.w3.org/2000/svg" xmlns:xlink="http://www.w3.org/1999/xlink" x="0px" y="0px"
	 viewBox="0 0 284.7 286.3" enable-background="new 0 0 284.7 286.3" xml:space="preserve">
<g>
	<g>
		<circle fill="#88D1F4" cx="142.3" cy="143.2" r="134.9"/>
		<g>
			<path fill="#7BCBE3" d="M142.3,8.2v269.9c74.5,0,134.9-60.4,134.9-134.9C277.3,68.6,216.9,8.2,142.3,8.2z"/>
		</g>
	</g>
	<g>
		<g>
			<polygon fill-rule="evenodd" clip-rule="evenodd" fill="#455E5A" points="123.6,202.4 152.4,202.4 165.9,226.9 110.1,226.9 			
				"/>
			<path fill-rule="evenodd" clip-rule="evenodd" fill="#455E5A" d="M70.1,96.8h135.9c3.8,0,7,3.1,7,7v97.9c0,3.8-3.1,7-7,7H70.1
				c-3.8,0-7-3.1-7-7v-97.9C63.1,99.9,66.2,96.8,70.1,96.8z"/>
			<g>
				<circle fill-rule="evenodd" clip-rule="evenodd" fill="#89B7AF" cx="204.5" cy="202.5" r="0.9"/>
				<circle fill-rule="evenodd" clip-rule="evenodd" fill="#89B7AF" cx="200.9" cy="202.5" r="0.9"/>
				<circle fill-rule="evenodd" clip-rule="evenodd" fill="#89B7AF" cx="197.4" cy="202.5" r="0.9"/>
			</g>
			<path fill-rule="evenodd" clip-rule="evenodd" fill="#89B7AF" d="M55.1,219.5h165.9c2,0,3.7,1.7,3.7,3.7l0,0c0,2-1.7,3.7-3.7,3.7
				H55.1c-2,0-3.7-1.7-3.7-3.7l0,0C51.4,221.2,53,219.5,55.1,219.5z"/>
			<path fill-rule="evenodd" clip-rule="evenodd" fill="#455E5A" d="M224.6,223.2c0,2-1.7,3.7-3.7,3.7H55.1c-2,0-3.7-1.7-3.7-3.7
				H224.6z"/>
			<rect x="67.7" y="100.9" fill-rule="evenodd" clip-rule="evenodd" fill="#E5F3F3" width="140.6" height="95.3"/>
		</g>
		<g>
			<polygon fill-rule="evenodd" clip-rule="evenodd" fill="#F5DB92" points="89.7,59.4 172.5,59.4 186.3,73.3 186.3,59.4 
				186.3,196.2 89.7,196.2 			"/>
			
				<path fill-rule="evenodd" clip-rule="evenodd" fill="none" stroke="#FFFFFF" stroke-width="1.5085" stroke-miterlimit="22.9256" d="
				M169.1,156.4v17.1 M148.4,156.4v8.5 M106.4,156.4v26.8"/>
			<g>
				
					<circle fill-rule="evenodd" clip-rule="evenodd" fill="#FFFFFF" stroke="#F5DB92" stroke-width="0.7127" stroke-miterlimit="22.9256" cx="167.2" cy="128.6" r="10.2"/>
				
					<path fill-rule="evenodd" clip-rule="evenodd" fill="#FFFFFF" stroke="#F5DB92" stroke-width="0.7127" stroke-miterlimit="22.9256" d="
					M161.6,137.2c-1.5-1-2.7-2.3-3.5-3.9l9.1-4.7L161.6,137.2z"/>
				
					<path fill-rule="evenodd" clip-rule="evenodd" fill="#FFFFFF" stroke="#F5DB92" stroke-width="0.7127" stroke-miterlimit="22.9256" d="
					M158.1,133.3c-0.7-1.4-1.1-3-1.1-4.7c0-3.3,1.5-6.2,3.9-8.1l6.3,8.1L158.1,133.3z"/>
				
					<path fill-rule="evenodd" clip-rule="evenodd" fill="#FFFFFF" stroke="#F5DB92" stroke-width="0.7127" stroke-miterlimit="22.9256" d="
					M160.9,120.6c1.7-1.4,3.9-2.2,6.3-2.2v10.2L160.9,120.6z"/>
				
					<path fill-rule="evenodd" clip-rule="evenodd" fill="#FFFFFF" stroke="#F5DB92" stroke-width="0.7127" stroke-miterlimit="22.9256" d="
					M167.2,118.4v10.2l7.3-7.2C172.7,119.6,170.1,118.4,167.2,118.4z"/>
			</g>
			<g>
				
					<rect x="98.5" y="140.6" fill-rule="evenodd" clip-rule="evenodd" fill="#EBAD27" stroke="#F5DB92" stroke-width="0.7127" stroke-miterlimit="22.9256" width="47" height="4.4"/>
				
					<rect x="98.5" y="115.4" fill-rule="evenodd" clip-rule="evenodd" fill="#FFFFFF" stroke="#F5DB92" stroke-width="0.7127" stroke-miterlimit="22.9256" width="8.4" height="25.2"/>
				
					<rect x="108.2" y="124.9" fill-rule="evenodd" clip-rule="evenodd" fill="#FFFFFF" stroke="#F5DB92" stroke-width="0.7127" stroke-miterlimit="22.9256" width="8.3" height="15.7"/>
				
					<rect x="117.8" y="130.2" fill-rule="evenodd" clip-rule="evenodd" fill="#FFFFFF" stroke="#F5DB92" stroke-width="0.7127" stroke-miterlimit="22.9256" width="8.4" height="10.4"/>
				
					<rect x="127.5" y="125.4" fill-rule="evenodd" clip-rule="evenodd" fill="#FFFFFF" stroke="#F5DB92" stroke-width="0.7127" stroke-miterlimit="22.9256" width="8.4" height="15.2"/>
				
					<rect x="137.1" y="129.7" fill-rule="evenodd" clip-rule="evenodd" fill="#FFFFFF" stroke="#F5DB92" stroke-width="0.7127" stroke-miterlimit="22.9256" width="8.4" height="10.9"/>
			</g>
			<rect x="157.6" y="140.6" fill-rule="evenodd" clip-rule="evenodd" fill="#EBAD27" width="4.2" height="4.4"/>
			<rect x="163.8" y="140.6" fill-rule="evenodd" clip-rule="evenodd" fill="#EBAD27" width="12.5" height="4.4"/>
			<g>
				<rect x="114.5" y="74.1" fill-rule="evenodd" clip-rule="evenodd" fill="#EBAD27" width="46.9" height="3.3"/>
				<rect x="98.5" y="82.4" fill-rule="evenodd" clip-rule="evenodd" fill="#EBAD27" width="78.9" height="3.3"/>
				<rect x="98.5" y="88.3" fill-rule="evenodd" clip-rule="evenodd" fill="#EBAD27" width="78.9" height="3.3"/>
				<rect x="98.5" y="94.1" fill-rule="evenodd" clip-rule="evenodd" fill="#EBAD27" width="78.9" height="3.3"/>
				<rect x="98.5" y="100" fill-rule="evenodd" clip-rule="evenodd" fill="#EBAD27" width="37" height="3.3"/>
				<polygon fill-rule="evenodd" clip-rule="evenodd" fill="#EBAD27" points="172.5,73.3 186.3,73.3 172.5,59.4 				"/>
			</g>
			<rect x="98.5" y="153.9" fill-rule="evenodd" clip-rule="evenodd" fill="#EBAD27" width="16.7" height="5.1"/>
			<rect x="119.3" y="153.9" fill-rule="evenodd" clip-rule="evenodd" fill="#EBAD27" width="16.7" height="5.1"/>
			<rect x="140.1" y="153.9" fill-rule="evenodd" clip-rule="evenodd" fill="#EBAD27" width="16.7" height="5.1"/>
			<rect x="160.8" y="153.9" fill-rule="evenodd" clip-rule="evenodd" fill="#EBAD27" width="16.7" height="5.1"/>
			<rect x="98.5" y="162.4" fill-rule="evenodd" clip-rule="evenodd" fill="#F1CC67" width="16.7" height="5.1"/>
			<rect x="98.5" y="171" fill-rule="evenodd" clip-rule="evenodd" fill="#FAEBC0" width="16.7" height="5.1"/>
			<rect x="98.5" y="179.5" fill-rule="evenodd" clip-rule="evenodd" fill="#FFFFFF" width="16.7" height="5.1"/>
			<rect x="140.1" y="162.4" fill-rule="evenodd" clip-rule="evenodd" fill="#F1CC67" width="16.7" height="5.1"/>
			<rect x="160.8" y="162.4" fill-rule="evenodd" clip-rule="evenodd" fill="#F1CC67" width="16.7" height="5.1"/>
			<rect x="160.8" y="171" fill-rule="evenodd" clip-rule="evenodd" fill="#F5DB92" width="16.7" height="5.1"/>
		</g>
		<g>
			<path fill-rule="evenodd" clip-rule="evenodd" fill="#89B7AF" d="M183.9,183.3l-8.5,3.1l3.5-8.3l48.8-46.4
				c0.8-0.8,2.1-0.7,2.8,0.1l2.3,2.4c0.8,0.8,0.7,2.1-0.1,2.8L183.9,183.3z"/>
			<path fill-rule="evenodd" clip-rule="evenodd" fill="#455E5A" d="M183.9,183.3l-8.5,3.1l6.2-5.9l50-47.5l1.1,1.2
				c0.8,0.8,0.7,2.1-0.1,2.8L183.9,183.3z"/>
			<path fill-rule="evenodd" clip-rule="evenodd" fill="#E5F3F3" d="M183.9,183.3l-8.5,3.1l3.5-8.3l46.7-44.4c2.1,1.6,3.7,3.3,5,5.3
				L183.9,183.3z"/>
			<path fill-rule="evenodd" clip-rule="evenodd" fill="#89B7AF" d="M183.9,183.3l-8.5,3.1l6.2-5.9l46.7-44.4
				c0.9,0.9,1.6,1.9,2.3,2.9L183.9,183.3z"/>
			<path fill-rule="evenodd" clip-rule="evenodd" fill="#F4D4C9" d="M183.9,183.3l-8.5,3.1l3.5-8.3l45-42.8c2.1,1.5,3.8,3.3,5,5.3
				L183.9,183.3z"/>
			<path fill-rule="evenodd" clip-rule="evenodd" fill="#DE6D4D" d="M183.9,183.3l-8.5,3.1l6.2-5.9l45-42.8c0.9,0.9,1.6,1.9,2.3,2.9
				L183.9,183.3z"/>
			<path fill-rule="evenodd" clip-rule="evenodd" fill="#E5F3F3" d="M183.9,183.3l-8.5,3.1l3.5-8.3c1,0.7,1.9,1.5,2.7,2.4
				C182.5,181.3,183.2,182.3,183.9,183.3z"/>
			<path fill-rule="evenodd" clip-rule="evenodd" fill="#89B7AF" d="M183.9,183.3l-8.5,3.1l6.2-5.9
				C182.5,181.3,183.2,182.3,183.9,183.3z"/>
			<path fill-rule="evenodd" clip-rule="evenodd" fill="#666766" d="M178.2,185.3l-2.8,1l1.1-2.8c0.3,0.2,0.6,0.5,0.9,0.8
				C177.7,184.7,178,185,178.2,185.3z"/>
		</g>
	</g>
</g>
</svg>
