<?xml version="1.0" encoding="utf-8"?>
<!-- Generator: Adobe Illustrator 18.0.0, SVG Export Plug-In . SVG Version: 6.00 Build 0)  -->
<!DOCTYPE svg PUBLIC "-//W3C//DTD SVG 1.1//EN" "http://www.w3.org/Graphics/SVG/1.1/DTD/svg11.dtd">
<svg version="1.1" id="Layer_1" xmlns="http://www.w3.org/2000/svg" xmlns:xlink="http://www.w3.org/1999/xlink" x="0px" y="0px"
	 viewBox="0 0 227.3 228.7" enable-background="new 0 0 227.3 228.7" xml:space="preserve">
<g>
	<polygon fill="#4C657C" points="79.1,58.9 49.1,58.9 79.1,28.8 	"/>
	<polygon fill="#FFFFFF" points="79.1,28.8 79.1,58.9 49.1,58.9 49.1,199.8 178.3,199.8 178.3,28.8 	"/>
	<g>
		<line fill="none" stroke="#ED6D6F" stroke-width="5.4143" stroke-miterlimit="10" x1="69" y1="96.1" x2="69" y2="111"/>
		<line fill="none" stroke="#ED6D6F" stroke-width="5.4143" stroke-miterlimit="10" x1="78.2" y1="89.3" x2="78.2" y2="111"/>
		<line fill="none" stroke="#ED6D6F" stroke-width="5.4143" stroke-miterlimit="10" x1="87.3" y1="83.9" x2="87.3" y2="111"/>
		<line fill="none" stroke="#ED6D6F" stroke-width="5.4143" stroke-miterlimit="10" x1="96.4" y1="92.1" x2="96.4" y2="111"/>
		<line fill="none" stroke="#ED6D6F" stroke-width="5.4143" stroke-miterlimit="10" x1="105.6" y1="96.1" x2="105.6" y2="111"/>
	</g>
	<g>
		<line fill="none" stroke="#ED6D6F" stroke-width="5.4143" stroke-miterlimit="10" x1="123.2" y1="78.5" x2="123.2" y2="111"/>
		<line fill="none" stroke="#ED6D6F" stroke-width="5.4143" stroke-miterlimit="10" x1="132.3" y1="89.3" x2="132.3" y2="111"/>
		<line fill="none" stroke="#ED6D6F" stroke-width="5.4143" stroke-miterlimit="10" x1="141.4" y1="96.1" x2="141.4" y2="111"/>
		<line fill="none" stroke="#ED6D6F" stroke-width="5.4143" stroke-miterlimit="10" x1="150.6" y1="88" x2="150.6" y2="111"/>
		<line fill="none" stroke="#ED6D6F" stroke-width="5.4143" stroke-miterlimit="10" x1="159.7" y1="96.1" x2="159.7" y2="111"/>
	</g>
	<rect x="104.6" y="42" fill="#4C96D2" width="45.3" height="9.8"/>
	<rect x="96.4" y="57.2" fill="#BEC4C9" width="61.9" height="4.1"/>
	<rect x="96.4" y="64" fill="#BEC4C9" width="61.9" height="4.1"/>
	<rect x="113.6" y="133" fill="#BEC4C9" width="51" height="4.1"/>
	<rect x="113.6" y="145.2" fill="#BEC4C9" width="51" height="4.1"/>
	<rect x="113.6" y="157.3" fill="#BEC4C9" width="51" height="4.1"/>
	<rect x="113.6" y="169.5" fill="#BEC4C9" width="32.1" height="4.1"/>
	<rect x="66.8" y="127" fill="#BEC4C9" width="37.8" height="52.4"/>
</g>
</svg>
