<?xml version="1.0" encoding="utf-8"?>
<!-- Generator: Adobe Illustrator 18.0.0, SVG Export Plug-In . SVG Version: 6.00 Build 0)  -->
<!DOCTYPE svg PUBLIC "-//W3C//DTD SVG 1.1//EN" "http://www.w3.org/Graphics/SVG/1.1/DTD/svg11.dtd">
<svg version="1.1" id="Layer_1" xmlns="http://www.w3.org/2000/svg" xmlns:xlink="http://www.w3.org/1999/xlink" x="0px" y="0px"
	 viewBox="0 0 227.3 228.7" enable-background="new 0 0 227.3 228.7" xml:space="preserve">
<g>
	<rect x="71.5" y="104.6" fill="#B4DBCD" width="80.9" height="43.7"/>
	<rect x="65.7" y="145.5" fill="#72C3B5" width="91.8" height="7.3"/>
	<rect x="62.1" y="149.8" fill="#B4DBCD" width="99.1" height="10.9"/>
	<polygon fill="#B4DBCD" points="113.7,67.9 166.8,105.4 113.7,105.4 60.5,105.4 	"/>
	<polygon fill="#72C3B5" points="113.7,76.5 142.2,96.6 113.7,96.6 85.1,96.6 	"/>
	<g>
		<rect x="89" y="105.4" fill="#676767" width="16" height="40.1"/>
		<rect x="97.8" y="105.4" fill="#4E4D4E" width="7.3" height="40.1"/>
		<rect x="121.1" y="105.4" fill="#676767" width="15.3" height="40.1"/>
		<rect x="129.1" y="105.4" fill="#4E4D4E" width="7.3" height="40.1"/>
	</g>
	<rect x="83.2" y="105.4" fill="#72C3B5" width="5.8" height="40.1"/>
	<rect x="115.2" y="105.4" fill="#72C3B5" width="5.8" height="40.1"/>
	<rect x="147.3" y="105.4" fill="#72C3B5" width="5.1" height="40.1"/>
	<rect x="71.5" y="105.4" fill="#72C3B5" width="11.7" height="5.8"/>
	<rect x="105" y="105.4" fill="#72C3B5" width="10.9" height="5.8"/>
	<rect x="136.4" y="105.4" fill="#72C3B5" width="12.4" height="5.8"/>
</g>
</svg>
