<?xml version="1.0" encoding="utf-8"?>
<!-- Generator: Adobe Illustrator 18.0.0, SVG Export Plug-In . SVG Version: 6.00 Build 0)  -->
<!DOCTYPE svg PUBLIC "-//W3C//DTD SVG 1.1//EN" "http://www.w3.org/Graphics/SVG/1.1/DTD/svg11.dtd">
<svg version="1.1" id="Layer_1" xmlns="http://www.w3.org/2000/svg" xmlns:xlink="http://www.w3.org/1999/xlink" x="0px" y="0px"
	 viewBox="0 0 227.3 228.7" enable-background="new 0 0 227.3 228.7" xml:space="preserve">
<g>
	<g>
		<circle fill="#EC6659" cx="113.7" cy="115.5" r="108.7"/>
		<g>
			<path fill="#EA514A" d="M113.7,6.8v217.4c60,0,108.7-48.7,108.7-108.7C222.4,55.5,173.7,6.8,113.7,6.8z"/>
		</g>
	</g>
	<g>
		<defs>
			<path id="SVGID_1_" d="M2.7,114.3c0,61.3,49.7,110.9,110.9,110.9c61.3,0,110.9-49.7,110.9-110.9c0-61.3-49.7-110.9-110.9-110.9
				C52.4,3.4,2.7,53.1,2.7,114.3"/>
		</defs>
		<clipPath id="SVGID_2_">
			<use xlink:href="#SVGID_1_"  overflow="visible"/>
		</clipPath>
		<path clip-path="url(#SVGID_2_)" fill="#473E3B" d="M113.7,49.8c-18.7,0.1-37.9,7.2-44.8,23.2c-7.8,18.2-3.4,36-3.4,36h2.7
			c0,0,5.1-12.3,14.8-15.8c8.2-3,17.7-1.7,30.6-0.6V49.8z"/>
		<path clip-path="url(#SVGID_2_)" fill="#3B322F" d="M148,59.6c-8.1-6.3-21.1-9.8-34.3-9.7v42.8c2.4,0.2,5,0.4,7.7,0.6
			c16.9,1.1,24.5-11.2,24.5-11.2s3.8,5.5,7.4,9.9c3.6,4.4,5.1,17.1,5.1,17.1h3.2C161.6,109.1,167.5,74.8,148,59.6"/>
		<polygon clip-path="url(#SVGID_2_)" fill="#E9E9E9" points="126.5,168.4 126.4,173 113.6,179.8 119.4,187.3 129.5,176.2 		"/>
		<path clip-path="url(#SVGID_2_)" fill="#F2D6C0" d="M113.6,179.8L113.6,179.8l12.8-6.8l0-0.6v-13.1c-0.4,0.4-0.8,0.7-1.2,1
			c-4.3,4-11.7,3.9-11.7,3.9v15.7C113.6,179.8,113.6,179.8,113.6,179.8"/>
		<path clip-path="url(#SVGID_2_)" fill="#F9E0CB" d="M113.4,179.8L113.4,179.8l-12.8-6.8l0-0.6v-13.1c0.4,0.4,0.8,0.7,1.2,1
			c4.3,4,11.7,3.9,11.7,3.9v15.7C113.5,179.8,113.4,179.8,113.4,179.8"/>
		<g opacity="0.6" clip-path="url(#SVGID_2_)">
			<g>
				<defs>
					<rect id="SVGID_3_" x="100.6" y="159.3" width="25.8" height="7.5"/>
				</defs>
				<clipPath id="SVGID_4_">
					<use xlink:href="#SVGID_3_"  overflow="visible"/>
				</clipPath>
				<path clip-path="url(#SVGID_4_)" fill="#F2D6C0" d="M100.6,161.5c0,0,5.1,5.2,13.3,5.2c8.2,0,12.5-5.8,12.5-5.8v-1.7h-25.8
					V161.5z"/>
			</g>
		</g>
		<path clip-path="url(#SVGID_2_)" fill="#F9E0CB" d="M83.1,93.3c-9.7,3.5-14.8,15.8-14.8,15.8h-2.7c0,0-0.3-1.2-0.6-3.2
			c-0.6,0.3-1.8,0.2-2.1,1.3c-0.4,1.4-0.3,9.3,1.2,11.4c2.1,2.9,4.4,2.6,4.4,2.6s0.2,16.9,14.6,28.3c9.9,7.9,16.7,8.6,18.8,10.7
			c4.8,4.7,11.7,3.9,11.7,3.9l0.2-71.6C100.9,91.5,91.2,90.3,83.1,93.3"/>
		<path clip-path="url(#SVGID_2_)" fill="#F2D6C0" d="M164.2,108.2c0-1.8-1.5-2.5-2.2-3l0,0c-0.2,2.4-0.5,3.9-0.5,3.9h-3.2
			c0,0-1.5-12.7-5.1-17.1c-3.6-4.4-7.4-9.9-7.4-9.9s-7.6,12.3-24.5,11.2c-2.7-0.2-5.2-0.4-7.7-0.6l-0.2,71.6c0,0,7.4,0.1,11.7-3.9
			c2.2-2,6.9-1.4,16.9-9.2c14.9-11.5,16.4-29.9,16.4-29.9s2.3,0.3,4.4-2.6C164.4,116.7,164.3,110,164.2,108.2"/>
		<path clip-path="url(#SVGID_2_)" fill="#3B322F" d="M174.3,225.3c-3.7-14.3-8.5-43.8-34.1-47.5c-4-0.6-7.7-1.4-10.7-1.5
			l-10.1,11.1l-5.8-7.6l0.1,0c-0.1,0-0.1,0-0.2,0l0.1,45.5H174.3z"/>
		<path clip-path="url(#SVGID_2_)" fill="#473E3B" d="M113.7,225.3l-0.1-45.5c-0.1,0-0.1,0-0.2,0l0.1,0l-5.8,7.6l-10.1-11.1
			c-3,0.1-6.7,0.9-10.7,1.5c-27.4,4-31,35.3-35,47.5H113.7z"/>
		<polygon clip-path="url(#SVGID_2_)" fill="#D7D8D8" points="113.5,207.6 127.8,177.9 113.5,181.5 		"/>
		<polygon clip-path="url(#SVGID_2_)" fill="#EEEEEE" points="113.5,207.6 99.2,177.9 113.5,181.5 		"/>
		<polygon clip-path="url(#SVGID_2_)" fill="#2B2521" points="113.6,207.6 129,198.5 126.6,195.7 134.5,192.8 130.9,176.3 
			128.7,176.1 		"/>
		<polygon clip-path="url(#SVGID_2_)" fill="#3B322F" points="113.6,207.7 98.2,198.6 100.6,195.7 92.7,192.8 96.3,176.3 
			98.4,176.1 		"/>
		<polygon clip-path="url(#SVGID_2_)" fill="#821810" points="116.8,188.3 118.4,197.6 113.6,207.7 113.6,191.9 		"/>
		<polygon clip-path="url(#SVGID_2_)" fill="#961914" points="110.4,188.3 108.8,197.6 113.6,207.6 113.6,191.9 		"/>
		<path clip-path="url(#SVGID_2_)" fill="#961914" d="M113.5,191.9c0,0,2.2-1.5,3.2-2.6c1.4-1.5,1.8-3,1.8-3l-5.1-6.5V191.9z"/>
		<path clip-path="url(#SVGID_2_)" fill="#A91916" d="M113.5,191.9c0,0-2.2-1.5-3.2-2.6c-1.4-1.5-1.8-3-1.8-3l5.1-6.5V191.9z"/>
		<polygon clip-path="url(#SVGID_2_)" fill="#E9E9E9" points="126.5,168.4 126.4,173 113.6,179.8 119.4,187.3 129.5,176.2 		"/>
		<polygon clip-path="url(#SVGID_2_)" fill="#FFFFFF" points="100.5,168.4 100.6,173 113.4,179.8 107.7,187.3 97.5,176.2 		"/>
		<path clip-path="url(#SVGID_2_)" fill="#2B2521" d="M111.2,212.4c0,0.7-0.6,1.3-1.3,1.3c-0.7,0-1.3-0.6-1.3-1.3s0.6-1.3,1.3-1.3
			C110.6,211.1,111.2,211.7,111.2,212.4"/>
		<path clip-path="url(#SVGID_2_)" fill="#2B2521" d="M111.2,218.2c0,0.7-0.6,1.3-1.3,1.3c-0.7,0-1.3-0.6-1.3-1.3
			c0-0.7,0.6-1.3,1.3-1.3C110.6,216.9,111.2,217.5,111.2,218.2"/>
	</g>
</g>
</svg>
