<?xml version="1.0" encoding="utf-8"?>
<!-- Generator: Adobe Illustrator 18.0.0, SVG Export Plug-In . SVG Version: 6.00 Build 0)  -->
<!DOCTYPE svg PUBLIC "-//W3C//DTD SVG 1.1//EN" "http://www.w3.org/Graphics/SVG/1.1/DTD/svg11.dtd">
<svg version="1.1" id="Layer_1" xmlns="http://www.w3.org/2000/svg" xmlns:xlink="http://www.w3.org/1999/xlink" x="0px" y="0px"
	 viewBox="0 0 227.3 228.7" enable-background="new 0 0 227.3 228.7" xml:space="preserve">
<g>
	<g>
		<circle fill="#FED063" cx="113.7" cy="114.3" r="108.7"/>
		<g>
			<path fill="#EEC15C" d="M113.7,5.6v217.4c60,0,108.7-48.7,108.7-108.7C222.4,54.3,173.7,5.6,113.7,5.6z"/>
		</g>
	</g>
	<g>
		<path opacity="0.5" fill="#F0F2F1" d="M220.7,160.9c0-5.1-3.1-9.3-7.6-11c0.1-0.8,0.2-1.6,0.2-2.4c0-9.2-7.4-16.6-16.6-16.6
			c-6.9,0-12.8,4.2-15.3,10.1c-2-0.8-4.1-1.3-6.4-1.3c-9.2,0-16.6,7.3-16.6,16.5c0,8.7,6.6,16.5,15.2,16.5h35.6
			C215.6,172.7,220.7,167.4,220.7,160.9z"/>
		<path opacity="0.5" fill="#F0F2F1" d="M83.3,73.9c0-5.1-3.1-9.3-7.6-11c0.1-0.8,0.2-1.6,0.2-2.4c0-9.2-7.4-16.6-16.6-16.6
			C52.4,43.8,46.5,48,44,54c-2-0.8-4.1-1.3-6.4-1.3C28.4,52.7,21,60,21,69.2c0,8.7,6.6,16.5,15.2,16.5h35.6
			C78.1,85.7,83.3,80.4,83.3,73.9z"/>
		<g>
			<path fill="#49AEBD" d="M110.4,197.6c36.4,0,66-29.6,66-66c0-36.4-29.6-66-66-66"/>
			<path fill="#9CD1D5" d="M110.4,65.6c-36.4,0-66,29.6-66,66c0,36.4,29.6,66,66,66"/>
			<g>
				<g>
					<path fill="#F0F2F1" d="M173.6,149.5c-0.9,0-2,0.4-2,0.7c0,0.3-1.2,0.8-1.6,1c-0.4,0.2-1.2,1.4-1.3,1.8
						c-0.2,0.4-1.1,0.3-1.5,0.4c-0.4,0.2-1.1,0.8-1.1,1.1c0,0.4-0.2,0.3-0.4-0.1c0,0,0,0-0.5,0.5c-0.6,0.6-0.6,0.6-0.6,0.6
						c-0.3,1-1.4,2.3-1.8,2.4c-0.4,0.1-0.4,1.9-0.4,2.6c0,0.7,0.3,1.6,0.6,2c0,0,0,0,0.1,0.6c0.1,1.1,0.1,1.1,0.1,1.1
						c-0.2,0.9,0.5,1.7,0.7,1.8c0.2,0.1,1.8-0.3,2.5-0.4c0.3-0.1,0.6-0.2,0.9-0.4c2.9-4.9,5.2-10.2,6.8-15.8
						C173.8,149.6,173.7,149.5,173.6,149.5z"/>
					<path fill="#F0F2F1" d="M64.5,151.2c-0.1,0.2,1.1,1.4,1.5,1.8c0.5,0.4,1.4,2.4,1.6,3c0.2,0.7,0.1,1.7,0,2
						c-0.1,0.2,0.2,0.8,0.3,1c0,0.2-0.4,2.2-0.2,3c0.2,0.8-0.9,3.2-0.9,4.4c0,1.2,0.6,2.8,0.8,2.7c0.2-0.1,0.3,1.1-0.1,1.2
						c-0.4,0.1-0.8,1.1-0.6,1.2c0.2,0.1,0,1,0,1.4c0.1,0.4,0.4,2.9,0.4,3.5c0.1,0.6,1,2.2,1.2,2.7c0.2,0.5,0.4,1.5,0.5,1.6
						c0.1,0.2,0.2,0.3,0.2,0.3c0,0,0.7,0.3,0.9,0.4c0.2,0.2,1.6,0.1,2.1,0c0.5-0.1,0-0.5-0.2-0.7c-0.2-0.2-0.4-1.3-0.6-1.5
						c-0.2-0.1-0.3-1.5-0.1-1.8c0.2-0.3,1.1-0.8,1.1-1.1c0.1-0.3,0.1-1.5-0.1-1.7c-0.2-0.2,0.1-1.7-0.1-2.4c-0.2-0.7,1.3-1.4,1.4-2
						c0.1-0.6,1.7-1.2,2-1.5c0.4-0.3,0.7-2,0.5-2.4c-0.2-0.4,0.6-0.7,0.9-0.7c0.3,0,0.7-0.2,0.8-0.2c0.1,0,0.5-0.8,0.7-0.9
						c0.2-0.2,0.7-2,1.1-2.3c0.4-0.3,0.7-1.4,0.7-1.7c0-0.3,0.6-1.3,0.8-1.5c0.2-0.3,1.7-1,1.9-1.1c0.3-0.1,0.7-2.5,0.8-3.3
						c0.1-0.9,0.5-2,0.6-2.3c0-0.3,0.5-0.5,0.6-0.6c0.1-0.1,0.4-1.2,0.7-1.4c0.2-0.2,1-1.3,1.1-1.5c0-0.2,0.1-0.8,0.3-1.3
						c0,0,0,0,0-0.6c0-0.9,0-0.9,0-0.9c-0.3-0.7-1.1-1.6-1.3-1.4c-0.2,0.2-1.1-0.6-1.6-0.8c-0.5-0.2-1.6-0.3-1.9-0.3
						c-0.3,0-1.3-0.8-1.8-1c-0.5-0.1-1.6-0.4-1.8-0.5c-0.2-0.1-0.5-1.9-1.4-2.4c-0.9-0.6-2.6-1.9-2.8-2.4c-0.2-0.5-2-1.5-2.5-1.8
						c-0.6-0.3-1.4-0.4-1.5-0.3c-0.1,0.1-0.8-0.9-1.2-1.2c-0.4-0.3-1.4-0.5-1.5-0.3c0,0.3-0.8,0.1-0.9-0.1c-0.2-0.2-0.7,0.1-1,0.2
						c-0.3,0.1-1.2,1.5-1.6,1.8c-0.4,0.3-0.9-0.3-1.2-0.4c-0.3-0.1-1.3,0.2-1.6,0.4c-0.3,0.2-0.9-1.5-0.8-2.2
						c0.1-0.8-0.7-2.3-1.3-2.3c-0.6,0-0.8-1.6-0.7-2.2c0.1-0.6-1.2-1-1.5-1c-0.3,0-1.1,0.8-1.3,1.2c-0.1,0.4-3.1-0.5-2.7-2.3
						c0.3-1.8,1.7-3.6,2.1-3.8c0.3-0.2,2.2-0.3,2.6-0.1c0.4,0.2,0.8,0,0.9-0.1c0.1-0.1,1.6,0,2.1,0.2c0.5,0.2,1.1,2,1.6,2.2
						c0.5,0.2,0.7-1.1,0.7-1.5c0.1-0.3-0.2-1.2-0.3-1.4c-0.1-0.2,0.8-2.4,1.5-2.7c0.7-0.4,1.5-1.6,1.4-1.8c-0.1-0.2,0.6-0.4,0.7-0.5
						c0.2-0.1,0-1.8,0.3-2.2c0.3-0.4,1.6-1.2,2.1-1.3c0.4-0.2,0.7-1.3,0.6-1.5c-0.2-0.2,1.1-1.3,1.7-1.5c0.7-0.2,1.2,0.4,1.1,0.5
						c0.1-0.1,1-0.5,1.4-0.8c0.4-0.3,0-1.1-0.3-1.4c-0.3-0.2-0.1-1.2,0.2-1.3c0.3-0.1,0.6-0.9,0.6-1.1c-0.1-0.2,1.4,0.1,2-0.3
						c0.6-0.4,0.2,1-0.3,1.6c-0.4,0.6,0.3,1.1,0.6,1c0.3-0.1,0.6,0.3,0.6,0.5c0.1,0.2,0.6-0.2,1,0c0.4,0.2,0.6-0.5,0.6-0.8
						c0-0.3-0.9-1-1.1-1.4c-0.1-0.4-0.2-2.6-0.2-3.1c0-0.5-0.6-1.2-0.8-1.1c-0.2,0.1-0.6-1.2-0.9-1.5c-0.3-0.3-0.4-0.9-0.4-1.1
						c0-0.2-1.1-1.4-1.3-1.9c-0.3-0.5-0.6-0.4-0.7-0.2c0,0.2-0.8,0.3-1.1,0.2c-0.3,0-0.6-1.2-0.6-1.7c0-0.5-1.4-0.5-1.6-0.9
						c-0.2-0.4-1.2-0.2-1.3-0.4c-0.1-0.3-1-0.5-1.1-0.4c-0.2,0.1-0.1,3.4-0.2,4.3c-0.2,0.9-0.9,1.7-1.2,1.6c-0.3,0-0.1,0.6,0.1,0.6
						c0.2-0.1-0.5,1-0.6,1.6c-0.1,0.7-0.8,0-0.9-0.6c-0.1-0.6-0.8-1.4-0.9-1.2c-0.1,0.2-0.6-0.2-0.8-0.1c-0.2,0.1-1.5-0.7-2-1
						c-0.5-0.3-0.8-1.8-1.1-2c-0.3-0.1,0-0.3-0.1-0.6c0-0.2,1-1.1,1.3-1.5c0.3-0.4,1.4-1.8,1.8-2.1c0.4-0.3,0.8-1.1,0.7-1.3
						c-0.1-0.1,1.9-0.8,2.4-0.9c0.5-0.2,1-1.6,1-2.1c0.1-0.4-0.3-1.2-0.6-1.3c-0.2-0.1,0.7-0.1,1,0c0.3,0.2,1.3-0.3,1.7-0.1
						c0.4,0.2,1.2,0.7,1.8,1c0,0,0,0-0.1,1.1c-0.2,1.8-0.2,1.8-0.2,1.8c-1.5,0.6-2,1.7-1.4,1.7c0.5,0,3,1.1,3.6,1.5
						c0.7,0.5,0.9-0.7,1.1-1.1c0.2-0.4,0.1-1.6,0-1.8c-0.2-0.2,0.8-0.2,1.1,0.1c0.3,0.3,0.6-0.3,0.8-0.4c0.2-0.1,0.3-1.1,0.4-1.3
						c0.1-0.2-0.5-0.4-0.5-0.7c0-0.3-1.1-0.7-1.5-0.9c-0.4-0.2-0.4-0.9-0.3-1c0.2-0.1-0.1-1.1-0.3-1.4c-0.2-0.3-1.3-0.6-1.7-0.6
						c-0.4,0-0.8-0.9-1-1c-0.2-0.1-1.7-0.3-2-0.2c-0.4,0.1-1-1-1.6-0.7c-0.6,0.4-1.2-0.4-1.5-0.6c-0.3-0.1-1.7,1.4-1.7,2.5
						c0,1.1,0.6,2.1,0.8,2.2c0.2,0-0.1,1-0.3,1.3c-0.2,0.3-0.8-0.3-0.6-0.5c0.2-0.2-0.6-1.4-0.9-1.8c-0.2-0.3-1-0.6-1.5-0.8
						c-0.3,0.3-0.6,0.6-0.9,1c0.1,0.4,0.2,0.9,0.1,1.3c-0.2,0.7-0.8,0.8-0.8,0.5c0-0.1-0.3-0.2-0.6-0.3c-8,9.6-13.3,21.5-14.8,34.5
						c0.3,0.4,0.7,0.8,0.8,1.1c0.2,0.6,1.2,1,1.4,1.1c0.2,0.1,0.2-1.1,0.1-1.4c-0.1-0.3,0.2-0.5,0.2-0.3c0,0.2,0.9,1.3,1.3,1.7
						c0.3,0.4,0.6,2.9,0.9,3.4c0.3,0.5,3.2,1.7,4.1,1.9c0.9,0.2,2.1,1.2,2.3,1.5c0.2,0.3,1.4,0.5,1.7,0.6c0.3,0.1,0.9,1,1.2,1.1
						c0.3,0.2,0.5,0.7,0.5,0.8c0,0.1,1.6,0.8,2,1.2c0.4,0.4,1.1,0.3,1.2,0.1c0.1-0.2,0.4,0.9,0.6,1.2c0.2,0.4,0.2,1.3,0.1,1.4
						c-0.1,0.1-0.4,1.8-0.6,2.1c-0.3,0.3-0.9,2.7-0.7,3.2c0.1,0.5,0.9,1.5,1.2,1.6c0.3,0.1,0.2,0.7-0.1,0.7c-0.3,0-0.1,2.3,0.5,2.7
						C64.1,150,64.6,151.1,64.5,151.2z"/>
					<path fill="#F0F2F1" d="M72.3,111L72.3,111C72.3,111,72.3,111,72.3,111z"/>
					<path fill="#F0F2F1" d="M67.8,83.2c0.8-0.1,2.1-0.4,2.2-0.6c0.1-0.2,0.1-0.7-0.1-0.9c0.1,0,0.3,0,0.4,0c0.3,0,0.8-1.6,1.1-2
						c0.3-0.4,2.1-0.9,2.6-1.2c0.4-0.3,1.4-1.2,1.7-1.3c0.4-0.1,0.9-1,0.8-1.1c-0.1-0.2,1.2-1,1.7-1.2c0.5-0.2,0.8-0.8,0.6-0.8
						c-0.1,0-2.9,1.4-5.4,2.9c-2.9,2-5.6,4.1-8.1,6.5C66.1,83.4,67.3,83.2,67.8,83.2z"/>
					<path fill="#F0F2F1" d="M115.6,165.4c0.8-0.5,2.3-2.6,2.8-3.1c0.5-0.4,0.8-2.1,0.9-2.4c0.1-0.4,0.8-0.9,1.1-1
						c0.3-0.1,1.1-3.6,1.9-4.4c0.8-0.8,1.6-4.5,1.5-5.9c-0.1-1.3,0.5-3.9,0.7-4.6c0.2-0.6,1.1-1.7,1.4-1.9c0.3-0.2,2.1-2.9,2.7-3.9
						c0.6-1,1.1-3.1,1-3.6c-0.1-0.5-1.4-0.8-1.6-0.6c-0.2,0.2-1.4,0.4-1.8,0.4c-0.4,0-1.3-2-1.8-2.5c-0.5-0.4-1-2.8-1.3-3.2
						c-0.3-0.4-1.2-1.6-1.5-1.8c-0.3-0.3-0.3-1.5-0.4-1.8c-0.1-0.3,0.5,0.2,0.6,0.7c0.1,0.5,1.5,2.5,1.9,3.2
						c0.4,0.7,1.6,2.8,1.9,3.5c0.3,0.7,2.8,0.3,3.7-0.1c0.8-0.4,1.9-1.1,1.9-1.3c0-0.2,1.4-0.8,1.7-1.1c0.4-0.3,0.7-1.8,0.9-2.1
						c0.2-0.2-0.2-1.7-0.5-2.1c-0.3-0.4-1.6-0.8-1.9-0.6c-0.3,0.2-0.8-1-1-1.4c-0.2-0.4-1.2-0.9-1.3-1.2c-0.1-0.3,0.3-0.7,0.4-0.8
						c0.2-0.1,2,1.2,2.6,1.8c0.5,0.6,1.1,1.8,1.2,2.1c0.1,0.2,1.6,0.3,1.9,0.1c0.3-0.2,0.7-0.2,0.8,0.1c0,0,0,0,0.5-0.1
						c1.6-0.2,1.6-0.2,1.6-0.2c0.8,0.8,1,1.5,1,1.7c0,0.2,0.5,0.8,0.8,0.9c0.3,0.1,0.5,1.1,0.6,1.4c0.1,0.3,1,1.8,1.2,2.5
						c0.2,0.7,1,2,1.2,2.3c0.2,0.3,0.3,1.4,0.3,1.6c0,0.3,0.6,0.8,1,0.8c0.4,0,1.1-2.3,1.3-3.2c0.2-0.9,0.8-1.6,0.9-1.6
						c0.2,0,0.3-0.5,0.3-0.7c0-0.2,0.9-0.2,1-0.4c0.1-0.2,0.4-1.8,0.7-2c0.3-0.2,1.5-1,1.9-1.1c0.4-0.1,1.5,0.8,1.7,1.2
						c0.2,0.4,0.4,1.5,0.4,1.7c-0.1,0.2,0.6,1.1,1.1,1.1c0.6,0,0.7,0.7,0.8,1c0,0.3,0.8,1,0.9,1.4c0.1,0.3,0.1,1.3,0,1.5
						c-0.1,0.2,0,1.4,0.1,1.8c0.1,0.3,1.8,2.1,2.5,2.6c0.7,0.5,1-1.1,0.6-1.6c-0.3-0.5-1.5-1.7-1.7-2c-0.3-0.4-0.3-1.8-0.2-2.1
						c0.1-0.4,1,0.2,1.4,0.5c0.4,0.3,0.9,0.9,0.9,1.1c0,0.2,2.3-1.1,2.4-2.5c0.1-1.4,0.9-3,0.9-3.4c0.1-0.4-0.2-0.9-0.4-0.9
						c-0.2,0,0.3-1.1,1-1.1c0.7,0,2.2-1.7,2.6-2.4c0.4-0.7,1.1-1.3,1.2-1.4c0.1-0.1,0.6-1.7,0.7-2.4c0.1-0.7-0.4-1.7-0.4-2.1
						c-0.1-0.3-0.6-1.2-0.8-1.4c-0.1-0.3-0.3-1.2-0.2-1.4c0.1-0.2,0.7-0.4,0.7-0.5c0.1-0.2,0.7-0.9,0.7-1.2
						c-0.1-0.3,0.4,0.4,0.7,0.7c0.3,0.3,0.6,1.9,1,2.1c0.4,0.2,1.9-1.8,1.7-3.1c-0.2-1.3,0.4-2.9,0.8-3c0.3-0.1,1-1.1,1.5-1.9
						c-3.4-9.8-9-18.5-16.3-25.6c-0.1,0-0.2,0-0.3,0c-0.6-0.1-0.6-0.1-0.6-0.1c-0.9-0.2-1.5-1.2-1.3-1.5c0-0.1,0-0.2,0-0.4
						c-0.5-0.5-1.1-0.9-1.6-1.4c-0.4,0-0.9,0-1.2,0c-0.6,0-1.8-0.4-2-0.6c-0.2-0.2-1,0.2-1,0.6c0,0.4-1.3,0.6-1.5,0.9
						c-0.1,0.3-0.8,0.3-0.9,0.2c-0.1-0.2-1.3,0.4-1.9,0.5c-0.6,0.1-1.7,0.6-2,0.7c-0.3,0.1-0.9,0.7-1,1c-0.1,0.3-0.9,0.7-1.1,0.8
						c-0.2,0.1-0.2,1.2,0.1,1.4c0.3,0.2-0.6-0.1-1-0.3c-0.4-0.2-0.8,0.5-1,0.7c-0.1,0.2-0.5-0.1-0.5-0.5c0-0.3-1-0.6-1.1-0.3
						c-0.1,0.3-0.8-0.1-1.1-0.2c-0.3-0.2-1.5,1.1-2,1.6c-0.5,0.5-2.7,0.8-3.1,0.7c-0.4-0.2-0.8,1-0.5,1.1c0.3,0.1-0.9-0.1-1.6,0
						c-0.7,0.1-2.7,0.9-3.2,1.2c-0.5,0.4-0.9-0.1-0.9-0.4c0-0.3-0.8-0.5-1-0.6c-0.2-0.1-0.7,1.5-1.1,1.8c-0.4,0.3-0.9-1.2-1.8-1.5
						c-0.9-0.3-2.4-1.1-2.8-1.3c-0.4-0.1-1.2-1-1.5-1.2c-0.2-0.3-1.4-0.5-1.8-0.5c-0.4,0-1.6,0.7-1.9,1c-0.3,0.3-0.8,0.2-1,0.3
						c-0.2,0.1-1.6,1.5-2.1,1.9c-0.5,0.4-1.5,2.3-1.8,2.7c-0.3,0.4-0.8,0.5-0.9,0.5c-0.2,0-0.3,0.5-0.3,0.7c0,0.2-1.6,1-1.8,1.7
						c-0.2,0.7,0.2,2.4,0.2,3c0,0.6,0.6,1.8,1,1.8c0.4,0,0.2,1,0.1,1.3c-0.1,0.3,0.3,0.6,0.3,0.8c0,0.2-1.1,0.6-1.5,0.7
						c-0.3,0.1-0.9,0.9-1,1.2c-0.1,0.3-1.1,0.4-1.5,0.8c0.1-0.2,0.2-0.6,0.3-0.8c0.2-0.4-0.1-1.1-0.2-1.2c-0.2-0.1-0.2-2.1-0.5-2.5
						c-0.3-0.4-0.9-1.1-1.1-1.2c-0.2-0.1,0.1-0.6,0.2-0.9c0.1-0.2-0.9-0.3-1.2-0.2c-0.3,0.2-0.4,2.1-0.5,2.6
						c-0.1,0.5,0.5,1.3,0.7,1.4c0.2,0,0.1,1-0.2,1c-0.4,0-0.7,1.4-0.5,1.7c0.2,0.3-0.3,0.9-0.5,1.1c-0.2,0.1,1.3,0.1,2,0
						c0.7,0,1.3,0.3,1.2,0.4c-0.1,0.1-1.3,0.2-1.6,0.5c-0.2,0.3-1.1,0.9-1.3,1.1c-0.2,0.2,0.3,0.7,0.7,0.7c0.4,0,0.8,1.3,1.1,1.5
						c0.3,0.2,0.2,0.9,0.1,1.1c-0.1,0.2-1.8-0.1-2.5,0c-0.7,0.2-1.5,1.5-1.5,2.1c-0.1,0.5,0.1,2,0.2,2.4c0.1,0.4,1.5,0.7,1.7,0.9
						c0.3,0.2,1.6,0,1.9,0.1c0.3,0.1,1.2-1.3,1.3-2c0.2-0.7,1.6-1.9,1.9-2.4c0.3-0.5,1.8-0.4,2.2-0.6c0.4-0.2,0.2,1.1,0.3,1.9
						c0.2,0.8,1.6,0.7,1.4,0c-0.2-0.7,0.1-1,0.2-0.8c0.1,0.3,1.4,0.8,1.7,1.2c0.3,0.4,0.2,1.3-0.1,1.2c-0.3,0-0.3,0.9,0,1
						c0.3,0.1,0.8-1.1,1.1-1.2c0.3-0.2,0.6-0.9,0.5-1c-0.2-0.1,0.3-0.7,0.5-0.5c0.2,0.2-0.7-1.4-1.3-2c-0.6-0.6-0.2-0.3,0.9,0.6
						c0,0,0,0,0.8,1.1c0.2,0.2,0.3,0.8,0.5,1c0.2,0.3,0.2,0.3,0.2,0.3c0.1,0.4,0.3,1.4,0.3,1.7c0,0.3,0.6,0.8,1,0.8
						c0.4,0,0.6,0.2,0.6,0.2c-0.1,0,0.2,0.7,0.6,0.7c0.4,0,0.5-0.9,0.2-0.9c-0.4,0-0.3-1.4-0.4-1.9c0-0.6,0.3-1.1,0.4-1.1
						c0.1,0,0,1.2,0,1.5c0,0.3,0.2,0.8,0.3,1.2c0,0,0,0,0.4,0.3c0.8,0.6,0.8,0.6,0.8,0.6c1.2-0.4,2.8-0.1,2.7,0.2
						c-0.1,0.2,0.9,0.3,0.9-0.1c0.1-0.4,0.1,0,0.1,0.3c0,0.3-0.8,1.3-0.9,1.8c-0.1,0.5-2.9,0.2-4.1,0.1c-1.2-0.1-2.9,0.3-3.1,0.7
						c-0.1,0.4-2-0.8-2.8-1.2c-0.9-0.4-1.5-1.7-1.7-1.8c-0.2-0.2,0.1-0.6,0.1-0.8c-0.1-0.3-2-0.3-2.6-0.1c-0.6,0.2-3.5,0.5-4.2,0.8
						c-0.7,0.3-1.7,0-2-0.1c-0.3-0.1-1.1,0.9-1.5,1.1c-0.4,0.2-0.9,1.5-1.1,3c0,0,0,0-0.5,1c-0.3,0.7-0.3,0.7-0.3,0.7
						c-1,0.7-2,3.2-2.3,3.7c-0.3,0.5-0.6,4-0.6,5.2c0,1.2,1,3.7,1.3,4.4c0.3,0.7,2.1,2.2,2.7,2.6c0.6,0.4,2.5,0.4,3.2,0.4
						c0.6,0,1.4-0.6,1.6-1.3c0,0,0,0,0.9,0.1c0.4,0,0.4,0,0.4,0c0,0.5,1.4,0.9,1.7,1.1c0.3,0.2,1.2,0,1.5,0c0.3-0.1,0.6,2.3,0.4,3
						c-0.2,0.7,0.5,3.2,0.7,3.9c0.2,0.7,1,2.8,1.1,3.5c0.1,0.7-0.5,3.1-0.6,4c-0.1,0.9,1.1,3.2,1.4,4c0.3,0.8,0.5,2.6,0.5,3
						c0,0.4,1.3,2.9,1.5,3.9C111.6,165.6,114.7,165.8,115.6,165.4z"/>
					<path fill="#F0F2F1" d="M170,135.4c0.1,0.2,0.9-0.5,1.4-0.5c0.5-0.1,0.8-1.4,0.4-1.4c-0.4-0.1-0.8-1.1-1.1-1.2
						c-0.3-0.1-0.8,0.4-0.8,0.8c0,0.4-0.9,0.5-1,0.9c-0.2,0.3-0.2,0.6,0,0.5C169,134.4,169.9,135.2,170,135.4z"/>
					<path fill="#F0F2F1" d="M169,142.3c0.2-0.1,0-1.3-0.5-1.5c-0.5-0.1-1.9,1.7-1.6,2.7c0.3,1,0.5,1,0.7,0.7c0.1-0.2,1,0.1,1.2,0.2
						c0.2,0.1,0.2-0.2,0-0.5C168.5,143.6,168.8,142.4,169,142.3z"/>
					<path fill="#F0F2F1" d="M166.3,141.1c0.1-0.4,0.1-1.9,0.2-2.1c0.1-0.3-0.8-1.1-1.2-1.2c-0.4-0.1-1.7,2.7-2.7,3.3
						c-1,0.5-1.3,2.3-1.1,2.7c0.3,0.4,2.3,0.6,2.6,0.9c0.4,0.3,0.7,0,0.9-0.1c0.2-0.1,0.1-0.2,0.1-0.2c-0.1,0,0.7-0.9,0.8-1.4
						C166.1,142.3,166.3,141.5,166.3,141.1z"/>
					<path fill="#F0F2F1" d="M160.9,145.9c-0.8-0.3-1.6,0.2-1.7,0.4c-0.1,0.3,2.9,0.8,3.9,1c1,0.3,1.6,0.4,1.4,0.2
						C164.2,147.4,161.6,146.2,160.9,145.9z"/>
					<path fill="#F0F2F1" d="M166.9,126.7c0.2-0.3-0.3-1.9-0.6-1.5c-0.3,0.3-0.1,1.2,0,1.6C166.4,127,166.7,127,166.9,126.7z"/>
					<path fill="#F0F2F1" d="M168.7,130c0.2-0.4-0.2-0.8-0.9-1c-0.6-0.1-0.5,1.8-0.3,2C167.8,131.3,168.5,130.4,168.7,130z"/>
					<path fill="#F0F2F1" d="M172,141.9c0.8,0.5,2.5,0.3,2.5-0.7C173.8,140.7,171.9,140.7,172,141.9z"/>
					<path fill="#F0F2F1" d="M171.6,118.3c-0.3,0.2-0.5,0.8-0.4,1c0,0-0.1,0-0.1,0c-0.3,0-0.3,1,0,1.2c0.3,0.2,0.9-0.8,1.2-1
						c0.3-0.2,1-0.4,1.1-0.3c0.1,0.1,0.7-0.1,1.3-0.4c0.1-0.1,0.2-0.2,0.4-0.5c-0.1-0.7-0.3-1.5-0.5-2.2c-0.3,0.2-0.7,0.5-0.8,0.6
						C173.4,117.1,172,118.1,171.6,118.3z"/>
					<path fill="#F0F2F1" d="M154.1,138.6C154.1,138.6,154.1,138.6,154.1,138.6C154,138.5,154,138.5,154.1,138.6z"/>
					<path fill="#F0F2F1" d="M158.9,143c-0.3-0.6-1.2-1.7-2-2.4c0,0,0,0-0.3-0.5c-0.3-0.6-0.3-0.6-0.3-0.6c-0.3-0.6-1.3-1.1-1.3-1.3
						c-0.1-0.2-0.4,0.6-0.7,0.3c0.2,0.1,0.5,0.4,1,0.7c0.9,0.6,2.6,4.9,3,5.2C158.5,144.9,159.2,143.7,158.9,143z"/>
					<path fill="#F0F2F1" d="M145.3,136.1c-0.2,0.5,1.3,1.5,1.4,1.3c0.1-0.2-0.2-1.4-0.5-1.7C145.9,135.4,145.5,135.6,145.3,136.1z"
						/>
					<path fill="#F0F2F1" d="M125.3,159.1c0.1,0.5,1.1,0.9,1.4,0.8c0.3-0.1,1.1-1.6,1.3-2.1c0.1-0.4,0.2-1.4,0.2-1.6
						c0-0.2,0.1-0.7,0.3-0.8c0.1-0.1,0.3-0.6,0.4-1.2c0.1-0.6-0.6-3.3-0.6-3.8c0-0.5-0.6,0.2-0.7,0.7c-0.1,0.5-1.5,1.5-1.8,1.9
						c-0.3,0.4-0.6,1.8-0.5,2c0.1,0.2-0.1,1.2-0.3,1.4C124.8,156.8,125.2,158.5,125.3,159.1z"/>
					<path fill="#F0F2F1" d="M76.6,177.8c0.3,0,0.6,0,0.9,0C77.7,176.9,76.6,177,76.6,177.8z"/>
					<path fill="#F0F2F1" d="M100.8,75.7c-0.4,0-1.4-0.2-1.5-0.3c-0.2-0.2-1.6-0.3-2.1-0.2c-0.4,0.2-0.1-1,0.5-1.2
						c0.6-0.1,0.1-1-0.5-1c-0.6,0-2.2-0.2-2.6-0.2c-0.4,0.1-1.1-0.3-1.3-0.3c-0.3,0-2.1,0.6-3,0.5c-0.9,0-3.1,0-3.5,0.2
						c-0.5,0.1-0.8,1-0.7,1.4C86,75,83.8,75,83.2,75c-0.7,0-4.3,0.8-5.3,1.3c-1,0.5-1.7,1.9-1.4,1.9c0.3,0-0.5,0.8-1,1
						c-0.5,0.2-1.7,0.3-2,0.5c-0.3,0.3,0.3,0.5,0.4,0.7c0.1,0.2,0.5-0.2,0.8,0c0.3,0.2,1.4,0.3,1.7,0.4c0.3,0.1-0.9,0.3-1.5,0.4
						c-0.6,0-0.4,1.1,0,1.3c0.5,0.2,1.6,0.3,1.7,0.1c0.1-0.2,1.4,0.2,2,0.3c0.6,0.1,1,1.5,1.2,1.8c0.2,0.3,0.2,1.4,0.2,1.7
						c0,0.3,1,0.9,1.2,0.7c0.2-0.2,0.1,0.5-0.3,0.5c-0.4,0-0.1,1.2,0.4,1.4c0.5,0.2,0.2,0.9-0.1,1.1c-0.3,0.2-0.1,0.9-0.4,1.2
						c-0.3,0.3,1.1,2.7,1.1,3.9c0,1.2,0.8,2.2,1.1,2.2c0.3,0,1.3,0.2,1.4,0.5c0.1,0.3,0.6-0.2,0.8-0.4c0.2-0.2,0.6-0.8,0.9-1.3
						c0.3-0.5,1-3,1.1-3.3c0.1-0.3,1.3-0.1,1.5-0.2c0.3-0.1,1-0.7,1.2-0.9c0.2-0.2,1.9-0.9,2.3-1.2c0.5-0.3,1.2-1.7,1.6-2
						c0.4-0.3-0.2-0.2-0.6-0.5c-0.4-0.3-0.2-0.6-0.1-0.8c0.1-0.1,1.5,0.2,1.9,0.4c0.5,0.2,1.3-0.5,1-0.7c-0.3-0.2-0.2-0.2,0-0.1
						c0.2,0.1,0.3-0.8,0.2-1c-0.2-0.2,1.4-1.3,1.1-2.4c-0.3-1.1,0.4-2.1,0.8-2.2c0.4,0,0.3-1.2-0.2-1.3c-0.5-0.1,0-0.2,0.2-0.4
						c0.2-0.2,0.4-1.2,0.3-1.4c-0.1-0.2,0.8-0.4,0.9-0.7c0.2-0.2,1.1-0.7,1.5-0.8C101,76.5,101.2,75.6,100.8,75.7z"/>
					<path fill="#F0F2F1" d="M109.4,76.5c-0.5-0.2-1.4,0.4-1.3,0.7c0.1,0.3-0.8-0.4-1.4-0.1c-0.6,0.3-0.8,1.4-0.5,1.6
						c0.3,0.1,0.5,1,0.5,1.2c0,0.2,1.2,0,1.5-0.2c0.3-0.3,0.3,0.9,0,1.2c-0.3,0.3,0.1,0.9,0.4,1c0.3,0,0.8,0.8,1.1,0.8
						c0.3,0,0.9-1.3,1.1-1.8c0.1-0.5,1.3-0.1,1.8,0.1c0.5,0.2,0.7-1.8,0.1-2.1c-0.6-0.3-1.3-0.2-1.5-0.4c-0.2-0.2-0.6-0.4-0.9-0.5
						C110.1,77.9,109.9,76.7,109.4,76.5z"/>
					<path fill="#F0F2F1" d="M114,77.5c0.9,0.1,2-0.6,2.2-0.9c0.2-0.2-2.6-0.8-3.7-0.8c-1.1,0-1.9,0.1-1.9,0.3
						C110.7,76.3,113.1,77.3,114,77.5z"/>
					<path fill="#F0F2F1" d="M97,102.7c-0.2-0.1-0.4,0.8-0.3,1.2c0.1,0.4,0.9,0.3,1.3,0.3c0.4-0.1,0.6-0.4,0.6-0.7
						c0-0.3-0.5-1.7-0.7-1.7C97.7,101.8,97.3,102.8,97,102.7z"/>
					<path fill="#F0F2F1" d="M99.8,92c-0.2-0.3-1.7-0.3-2-0.3c-0.4,0-1.4-0.4-1.7-0.6c-0.2-0.2-0.4,0.9-0.7,1
						c-0.3,0.1,0.2,0.4,0.3,0.2c0.1-0.1,0,0.6-0.2,0.8c-0.1,0.2,1,0.4,1.1,0.8c0.1,0.4,0.6,0.6,1,0.5c0.4-0.1,1.3-0.5,1.6-0.6
						C99.6,93.9,100,92.3,99.8,92z"/>
					<path fill="#F0F2F1" d="M130.5,83.6c0.5-0.5,2.6-1.2,2.8-1.7c0.2-0.5-0.1-0.9-0.3-0.9c-0.2,0-0.5,0.3-0.5,0.3
						c-0.1,0.1-2.4,0.6-3.1,1c-0.7,0.3-1.6,0.9-1.9,1.2c-0.3,0.3-0.8,2.7-1,2.9c-0.2,0.3,0.8,1.2,1.2,1.5c0.4,0.3,1,0.1,1.2,0.1
						c0.2-0.1-0.2-1.7-0.4-2.3C128.1,85.1,130,84.1,130.5,83.6z"/>
					<path fill="#F0F2F1" d="M127.9,77.5c0.8,0.8,1.2-0.3,2.1-0.2C130,75.7,127.9,76.2,127.9,77.5z"/>
					<path fill="#F0F2F1" d="M143.1,77.8c0,0.3,2.2,0.5,2.8,0.4c0.6-0.1-0.1-1.1-1.1-1C143.9,77.2,143.1,77.5,143.1,77.8z"/>
					<path fill="#F0F2F1" d="M64.1,93.9c-0.2,0.2,0,1.3,0.4,1.3c0.4,0,1.1-1.6,1.7-1.3c0.5,0.3,0.9,0.5,0.8,0.3
						c-0.1-0.2-1.6-0.8-1.8-1C65,93.2,64.3,93.7,64.1,93.9z"/>
					<path fill="#F0F2F1" d="M69.7,130.2c0,0.2,1,0.2,1.1-0.1c0.2-0.3,0.1-0.5-0.2-0.5C70.4,129.5,69.7,130,69.7,130.2z"/>
					<path fill="#F0F2F1" d="M65.5,128.6c0.5-0.1,0.2,0.7,0.4,0.9c0.1,0.3,1.2,0.5,1.4,0.7c0.2,0.2,0.8-0.3,1.2-0.3
						c0.4,0.1-0.1-1.5-0.9-1.5c-0.7,0-1.3-0.7-1.5-0.8c-0.2-0.1-1-0.6-1.3-0.8c-0.2-0.2-2.1-0.4-2.7-0.4c-0.6,0-1.3,0.6-1.4,0.9
						c-0.1,0.2,1,0.4,1.3,0.2c0.3-0.2,1.8,0.2,2.1,0.5C64.4,128.5,65,128.7,65.5,128.6z"/>
					<path fill="#F0F2F1" d="M63.5,130.2c0,0.2,1,0.1,1.2,0.1c0.2,0,0.2-0.2,0-0.3C64.4,129.7,63.5,130,63.5,130.2z"/>
					<path fill="#F0F2F1" d="M64.1,125.2c-0.3-0.1-0.4,0.3-0.4,0.5c0,0.2,0.1,0.3,0.3,0.3C64.2,126,64.4,125.3,64.1,125.2z"/>
					<path fill="#F0F2F1" d="M66.2,125.4c-0.1-0.2-0.5-0.3-0.6-0.3c-0.1,0-0.2,0.3-0.2,0.7C65.4,126.1,66.2,125.6,66.2,125.4z"/>
					<path fill="#F0F2F1" d="M67.6,127.6c0.4-0.2,0.4-0.7,0.2-0.6c-0.2,0-0.7-0.7-0.9-0.8c-0.3-0.1-0.5,0.4-0.5,0.6
						c0,0.2,0.1,0.4,0.3,0.3C66.9,127.2,67.2,127.8,67.6,127.6z"/>
					<path fill="#F0F2F1" d="M174.9,142.7c-0.2,0.1-1.2,0.2-1.3,0c-0.1-0.2-0.3,0.4-0.5,0.5c-0.2,0.1-0.1,0.6,0.2,0.4
						c0.2-0.1,1.1,0.4,1.9,0.9c0.1-0.7,0.3-1.5,0.4-2.2C175.3,142.4,175,142.6,174.9,142.7z"/>
				</g>
			</g>
			<path fill="#D1EBFA" d="M70,81.8c-0.1-0.1-0.3,0.1-0.2,0.3C69.8,82.2,70.1,82,70,81.8z"/>
			<path fill="#D1EBFA" d="M77.3,103.6c-0.1-0.1-0.3,0.1-0.2,0.3C77.1,104,77.4,103.8,77.3,103.6z"/>
		</g>
		<path fill="#FFFFFF" d="M189.7,81c0-5.1-3.1-9.7-7.6-11.5c0.1-0.8,0.2-1.8,0.2-2.6c0-9.2-7.4-16.7-16.6-16.7
			c-6.9,0-12.8,4.1-15.3,10.1c-2-0.8-4.1-1.3-6.4-1.3c-9.2,0-16.6,8.2-16.6,17.4c0,8.7,6.6,15.3,15.2,17.3h35.6
			C184.5,93.7,189.7,87.5,189.7,81z"/>
		<g>
			<rect x="38.1" y="165" fill="#F49920" width="20.1" height="6.8"/>
			<path fill="#F49920" d="M27.3,94c-1.1,3.7-1.7,7.6-1.7,11.7c0,15.9,9.3,29.6,22.6,35.8c13.3-6.2,22.6-19.9,22.6-35.8
				c0-4.1-0.6-8-1.7-11.7L27.3,94z"/>
			<g>
				<g>
					<path fill="#FABF15" d="M43.9,134.9l-2.4-0.3c-16.4-1.8-28.8-16.6-28.8-34.5c0-0.6,0-1.3,0.1-2l0.1-2h31V134.9L43.9,134.9z
						 M17.1,100.5c0.1,14.7,9.6,26.9,22.6,29.6v-29.6L17.1,100.5L17.1,100.5z"/>
				</g>
				<g>
					<path fill="#F49920" d="M73.2,125.7c-5.1,5.1-11.5,8.3-18.5,9l-2.4,0.3l0-38.7l31,0l0.1,2c0,0.7,0.1,1.4,0.1,2
						C83.5,109.8,79.8,119.1,73.2,125.7L73.2,125.7z M56.7,130c5-1,9.7-3.6,13.5-7.4c5.7-5.7,9-13.7,9-22.2H56.7L56.7,130L56.7,130z
						"/>
				</g>
			</g>
			<rect x="44.9" y="133.2" fill="#F49920" width="6.4" height="36.5"/>
			<path fill="#F49920" d="M65.7,171.9v-2.2c0-1.4-1-2.6-2.1-2.6l-30.7,0c-1.2,0-2.2,1.2-2.2,2.6v2.2H65.7z"/>
			<path fill="#FABF15" d="M27.3,94c-1.1,3.7-1.7,7.6-1.7,11.7c0,14.6,7.8,27.3,19.3,34l0,25.2l3,0l0-31.7V94L27.3,94z"/>
			<path fill="#FABF15" d="M38.1,167.2l-5.3,0c-1.2,0-2.2,1.2-2.2,2.6v2.2l17.3,0l0-4.7h-3H38.1z"/>
			<rect x="38.1" y="165" fill="#FABF15" width="11.6" height="2.2"/>
			<rect x="26.2" y="171.7" fill="#1D5F90" width="43.9" height="21.6"/>
			<rect x="31.4" y="176.8" fill="#FABF15" width="33.6" height="11.3"/>
			<rect x="24.5" y="192.3" fill="#0F3854" width="47.3" height="5.2"/>
		</g>
		<g>
			<path fill="none" stroke="#FFFFFF" stroke-width="0.6907" stroke-miterlimit="10" d="M145.2,141.3c0,0-58,56.6-79.7,31.7
				c8.1,21.9,46.1,21,87.4-22.8"/>
			<g>
				<g>
					<path fill="#F3AC20" d="M148.5,146.2c-1.2-1.4-3.2-1.7-6.8,1.4c-1.7,1.5-4.6,5-7.8,11.4c6.8-2.3,10.6-4.7,12.3-6.2
						C149.8,149.7,149.8,147.6,148.5,146.2z"/>
					<path fill="#276690" d="M154.2,141.3c5.1,5.9,6.6,13.3,4,18.2c1.4-0.7,2.8-1.6,4-2.7c7.7-6.7,8.9-17.8,2.7-24.8
						c-6.2-7.1-17.3-7.4-25-0.7c-1.3,1.1-2.3,2.3-3.2,3.6C141.9,132.9,149.1,135.4,154.2,141.3z"/>
					<path fill="#F6E83C" d="M157.7,146.7c5.9-1.8,11.5-4.9,16.4-9.2c8.3-7.2,13.3-16.7,15.1-26.8c-10.2,0.4-20.3,4.1-28.5,11.3
						c-4.9,4.3-8.7,9.5-11.4,15L157.7,146.7z"/>
					<path fill="#F3AC20" d="M151.1,133.7c-0.6,1.1-1.2,2.2-1.8,3.4l8.4,9.6c1.2-0.4,2.4-0.8,3.6-1.3L151.1,133.7z"/>
					<polygon fill="#276690" points="154.4,151.8 143.8,139.7 149.9,137.8 157.1,146 					"/>
					<path fill="#20364D" d="M155.2,138.5c-3.4,3-6.2,6.1-7.8,8.7c2.8-1.2,6.2-3.5,9.7-6.5c3.4-3,6.2-6.1,7.8-8.7
						C162.1,133.2,158.7,135.5,155.2,138.5z"/>
					<path fill="#276690" d="M169,128.4c-1.9-2.2-1.7-5.5,0.5-7.4c2.2-1.9,5.5-1.7,7.4,0.5c1.9,2.2,1.7,5.5-0.5,7.4
						C174.3,130.8,170.9,130.5,169,128.4z"/>
					<path fill="#ED6D42" d="M175.6,127.8c-1.6,1.4-4.1,1.3-5.5-0.4c-1.4-1.6-1.3-4.1,0.4-5.5c1.6-1.4,4.1-1.3,5.5,0.4
						C177.4,123.9,177.2,126.4,175.6,127.8z"/>
					<path fill="#F3AC20" d="M189.2,110.7c-4.6,0.2-9.2,1-13.7,2.6l9.2,10.6C187,119.7,188.4,115.3,189.2,110.7z"/>
					<polygon fill="#2B455E" points="194.2,106.4 189,111.8 188.2,110.8 					"/>
				</g>
			</g>
		</g>
	</g>
</g>
</svg>
